<?xml version="1.0" standalone="no"?>
<!DOCTYPE svg PUBLIC "-//W3C//DTD SVG 1.1//EN" "http://www.w3.org/Graphics/SVG/1.1/DTD/svg11.dtd" >
<svg xmlns="http://www.w3.org/2000/svg" xmlns:xlink="http://www.w3.org/1999/xlink" version="1.1">
<metadata>
Created by FontForge 20201107 at Fri Feb 16 17:27:17 2018
 By Jimmy Wärting
Copyright (c) 2018 by Colophon Foundry. All rights reserved.
</metadata>
<defs>
<font id="CompassSerif-Regular" horiz-adv-x="600" >
  <font-face 
    font-family="Compass Serif"
    font-weight="400"
    font-stretch="normal"
    units-per-em="1000"
    panose-1="2 6 5 3 7 8 3 4 4 3"
    ascent="800"
    descent="-200"
    x-height="490"
    cap-height="700"
    bbox="-405 -212.001 1224 946"
    underline-thickness="32"
    underline-position="-160"
    unicode-range="U+0020-FB02"
  />
<missing-glyph horiz-adv-x="440" 
d="M386 0h-332v700h332v-700zM103 668l117 -277l117 277h-234zM86 75l117 275l-117 275v-550zM354 75v550l-116 -275zM337 32l-117 277l-117 -277h234z" />
    <glyph glyph-name="fi" unicode="fi" horiz-adv-x="592" 
d="M571 15l-0.000976562 -15.001h-244v15l54 11l22 22v413h-217v-413l22 -22l54 -11v-15h-243v15l54 11l22 22v413h-72v29h72v41c0 70 19.5 123.667 58.5 161s90.5 56 154.5 56c32.667 0 62 -4.5 88 -13.5s46.167 -20.167 60.5 -33.5s21.5 -26 21.5 -38
c0 -11.333 -3.5 -20.666 -10.5 -27.999s-16.5 -11 -28.5 -11c-12.667 0 -23 3.33301 -31 10s-20.667 21.667 -38 45c-11.333 16 -22.166 27.333 -32.499 34s-23.5 10 -39.5 10c-31.333 0 -57.833 -15.167 -79.5 -45.5s-32.5 -84.5 -32.5 -162.5v-25h309v-442l22 -22z" />
    <glyph glyph-name="fl" unicode="fl" horiz-adv-x="594" 
d="M571 15v-15h-244v15l54 11l22 22v560c0 34 -6.66699 61.667 -20 83s-38.333 32 -75 32s-66.167 -16.5 -88.5 -49.5s-33.5 -83.167 -33.5 -150.5v-33h120v-29h-120v-413l22 -22l54 -11v-15h-243v15l54 11l22 22v413h-72v29h72v41c0 64.667 18.667 117 56 157s93 60 167 60
c44.667 0 83.667 -10.333 117 -31l60 25v-694l22 -22z" />
    <glyph glyph-name="f_b" unicode="fb" horiz-adv-x="895" 
d="M759.5 471.5c33.667 -20.333 60 -49.168 79 -86.501s28.5 -80.666 28.5 -129.999c0 -56 -11.167 -104 -33.5 -144s-52.333 -70.5 -90 -91.5s-79.5 -31.5 -125.5 -31.5c-39.333 0 -77.5 7.66699 -114.5 23s-70.5 35.333 -100.5 60v537c0 34 -6.66699 61.667 -20 83
s-38.333 32 -75 32s-66.167 -16.5 -88.5 -49.5s-33.5 -83.167 -33.5 -150.5v-33h120v-29h-120v-413l22 -22l54 -11v-15h-243v15l54 11l22 22v413h-72v29h72v41c0 64.667 18.667 117 56 157s93 60 167 60c25.333 0 48.833 -3.5 70.5 -10.5s40.167 -16.167 55.5 -27.5l51 32
v-305c41.333 43.333 91 65 149 65c43.333 0 81.833 -10.167 115.5 -30.5zM693 49.498c23.333 19 41.668 46.168 55.001 81.501s20 76.666 20 123.999c0 42 -6 79 -18 111s-28.5 56.833 -49.5 74.5s-44.833 26.5 -71.5 26.5s-52 -7 -76 -21s-43.333 -34.333 -58 -61v-232
c0 -42 11.5 -74.5 34.5 -97.5s51.167 -34.5 84.5 -34.5c29.333 0 55.666 9.5 78.999 28.5z" />
    <glyph glyph-name="f_f" unicode="ff" horiz-adv-x="699" 
d="M700 711l-0.000976562 -95.999h-15l-21 51c-2 2.66699 -7.83301 10 -17.5 22s-20.167 21 -31.5 27s-23.333 9 -36 9c-23.333 0 -43.166 -10.333 -59.499 -31s-24.5 -51.334 -24.5 -92.001v-111h112v-29h-112v-413l22 -22l54 -11v-15h-243v15l54 11l22 22v413h-218v-413
l22 -22l54 -11v-15h-243v15l54 11l22 22v413h-72v29h72v41c0 64 18.333 116.167 55 156.5s90 60.5 160 60.5c27.333 0 52.833 -5 76.5 -15s43.5 -22.333 59.5 -37c32 34.667 76.667 52 134 52c46.667 0 86.667 -12.333 120 -37zM403.999 566.001l-1 -1v43
c0 33.333 -8.33301 60.833 -25 82.5s-40 32.5 -70 32.5c-36.667 0 -66.167 -16.5 -88.5 -49.5s-33.5 -83.167 -33.5 -150.5v-33h218v76z" />
    <glyph glyph-name="f_f_i" unicode="ffi" horiz-adv-x="901" 
d="M880 15l-0.00292969 -15.001h-244v15l54 11l22 22v413h-217v-413l22 -22l54 -11v-15h-243v15l54 11l22 22v413h-218v-413l22 -22l54 -11v-15h-243v15l54 11l22 22v413h-72v29h72v41c0 64 18.333 116.167 55 156.5s90 60.5 160 60.5c30.667 0 58.834 -6 84.501 -18
s46.167 -26.667 61.5 -44c18.667 20 41.834 35.333 69.501 46s58.167 16 91.5 16c32.667 0 62 -4.5 88 -13.5s46.167 -20.167 60.5 -33.5s21.5 -26 21.5 -38c0 -11.333 -3.5 -20.666 -10.5 -27.999s-16.5 -11 -28.5 -11c-12.667 0 -23 3.33301 -31 10s-20.667 21.667 -38 45
c-11.333 16 -22.166 27.333 -32.499 34s-23.5 10 -39.5 10c-31.333 0 -57.833 -15.167 -79.5 -45.5s-32.5 -84.5 -32.5 -162.5v-25h309v-442l22 -22zM403.997 524.999l-1 -2v85c0 33.333 -8.33301 60.833 -25 82.5s-40 32.5 -70 32.5c-36.667 0 -66.167 -16.5 -88.5 -49.5
s-33.5 -83.167 -33.5 -150.5v-33h218v35z" />
    <glyph glyph-name="f_f_l" unicode="ffl" horiz-adv-x="903" 
d="M880 15v-15h-244v15l54 11l22 22v560c0 34 -6.66699 61.667 -20 83s-38.333 32 -75 32s-66.167 -16.5 -88.5 -49.5s-33.5 -83.167 -33.5 -150.5v-33h120v-29h-120v-413l22 -22l54 -11v-15h-243v15l54 11l22 22v413h-218v-413l22 -22l54 -11v-15h-243v15l54 11l22 22v413
h-72v29h72v41c0 64.667 18.667 117 56 157s93 60 167 60c32 0 61.167 -5.5 87.5 -16.5s45.833 -24.5 58.5 -40.5c38 38 92.333 57 163 57c44.667 0 83.667 -10.333 117 -31l60 25v-694l22 -22zM404 507l-1 -2v103c0 34 -6.66699 61.667 -20 83s-38.333 32 -75 32
s-66.167 -16.5 -88.5 -49.5s-33.5 -83.167 -33.5 -150.5v-33h218v17z" />
    <glyph glyph-name="f_h" unicode="fh" horiz-adv-x="936" 
d="M915 15l0.00195312 -15h-244v15l54 11l22 22v271c0 37.333 -7.16699 66.5 -21.5 87.5s-35.5 31.5 -63.5 31.5c-28.667 0 -59.334 -12.833 -92.001 -38.5s-57.667 -56.5 -75 -92.5v-259l22 -22l54 -11v-15h-244v15l54 11l22 22v560c0 34 -6.66699 61.667 -20 83
s-38.333 32 -75 32s-66.167 -16.5 -88.5 -49.5s-33.5 -83.167 -33.5 -150.5v-33h120v-29h-120v-413l22 -22l54 -11v-15h-243v15l54 11l22 22v413h-72v29h72v41c0 64.667 18.667 117 56 157s93 60 167 60c23.333 0 45.166 -3 65.499 -9s38.166 -14 53.499 -24l58 27v-393
c20.667 44 48.834 80.5 84.501 109.5s75.167 43.5 118.5 43.5c46 0 81 -14.833 105 -44.5s36 -71.167 36 -124.5v-285l22 -22z" />
    <glyph glyph-name="f_j" unicode="fj" horiz-adv-x="534" 
d="M494 16c0 -53.333 -13.168 -98.668 -39.501 -136.001s-62.833 -64.666 -109.5 -81.999l-6 11c23.333 22.667 39.833 47.667 49.5 75s14.5 63.666 14.5 108.999v468h-217v-413l22 -22l54 -11v-15h-243v15l54 11l22 22v413h-72v29h72v41c0 70 19.5 123.667 58.5 161
s90.5 56 154.5 56c32.667 0 62 -4.5 88 -13.5s46.167 -20.167 60.5 -33.5s21.5 -26 21.5 -38c0 -11.333 -3.5 -20.666 -10.5 -27.999s-16.5 -11 -28.5 -11c-12.667 0 -23 3.33301 -31 10s-20.667 21.667 -38 45c-11.333 16 -22.166 27.333 -32.499 34s-23.5 10 -39.5 10
c-31.333 0 -57.833 -15.167 -79.5 -45.5s-32.5 -84.5 -32.5 -162.5v-25h308v-474z" />
    <glyph glyph-name="f_k" unicode="fk" horiz-adv-x="916" 
d="M903 15v-15h-264v15l54 11l22 22l-185 196h-35v-196l22 -22l54 -11v-15h-244v15l54 11l22 22v560c0 34 -6.66699 61.667 -20 83s-38.333 32 -75 32s-66.167 -16.5 -88.5 -49.5s-33.5 -83.167 -33.5 -150.5v-33h120v-29h-120v-413l22 -22l54 -11v-15h-243v15l54 11l22 22
v413h-72v29h72v41c0 64.667 18.667 117 56 157s93 60 167 60c44.667 0 83.667 -10.333 117 -31l60 25v-470h37l172 170l-22 22l-54 11v15h199v-15l-54 -11l-22 -22l-158 -147l234 -247l22 -22z" />
    <glyph glyph-name=".notdef" horiz-adv-x="440" 
d="M386 0h-332v700h332v-700zM103 668l117 -277l117 277h-234zM86 75l117 275l-117 275v-550zM354 75v550l-116 -275zM337 32l-117 277l-117 -277h234z" />
    <glyph glyph-name="space" unicode=" " horiz-adv-x="225" 
d="M0 0z" />
    <glyph glyph-name="exclam" unicode="!" horiz-adv-x="201" 
d="M63 418l-12 282h99l-12 -282l-27 -208h-21zM60.5 7.5c-11 11 -16.5 24.5 -16.5 40.5c0 15.333 5.5 28.5 16.5 39.5s24.5 16.5 40.5 16.5c15.333 0 28.5 -5.5 39.5 -16.5s16.5 -24.167 16.5 -39.5c0 -16 -5.5 -29.5 -16.5 -40.5s-24.167 -16.5 -39.5 -16.5
c-16 0 -29.5 5.5 -40.5 16.5z" />
    <glyph glyph-name="quotedbl" unicode="&#x22;" horiz-adv-x="295" 
d="M166 687v13h91v-13l-35 -201h-18zM38 687v13h91v-13l-35 -201h-18z" />
    <glyph glyph-name="numbersign" unicode="#" horiz-adv-x="607" 
d="M475 461l-57 -222h99v-30h-107l-54 -209h-31l54 209h-214l-54 -209h-31l54 209h-109v30h117l57 222h-109v30h117l54 209h31l-54 -209h214l54 209h31l-54 -209h99v-30h-107zM444 461h-214l-57 -222h214z" />
    <glyph glyph-name="dollar" unicode="$" horiz-adv-x="492" 
d="M411 51c-35.333 -38 -86.002 -58.9971 -152.002 -62.9971v-63h-31v63c-31.333 2.66699 -64.333 11.5 -99 26.5s-64.667 33.5 -90 55.5v180h15l53 -135c18 -28 37.333 -50.5 58 -67.5s41.667 -27.5 63 -31.5v306l-12 6c-4 2 -7.66699 3.66699 -11 5
c-59.333 26 -102.166 55.167 -128.499 87.5s-39.5 70.166 -39.5 113.499c0 33.333 8.16699 63.166 24.5 89.499s39 47.333 68 63s61.833 24.167 98.5 25.5v63h31v-64c57.333 -3.33301 111.333 -21.333 162 -54v-186h-16l-37 110c-32 59.333 -68.333 93.666 -109 102.999
v-256l31 -15c56.667 -26 99.834 -56.5 129.501 -91.5s44.5 -77.5 44.5 -127.5c0 -57.333 -17.667 -105 -53 -143zM138.498 509.003c17 -20 46.833 -41.667 89.5 -65v242c-37.333 -2 -65.833 -14 -85.5 -36s-29.5 -46.667 -29.5 -74c0 -24.667 8.5 -47 25.5 -67z
M346.498 55.5029c22.333 25 33.5 58.165 33.5 99.498c0 26.667 -9 52.334 -27 77.001s-49.333 49.334 -94 74.001v-292c36 2.66699 65.167 16.5 87.5 41.5z" />
    <glyph glyph-name="percent" unicode="%" horiz-adv-x="656" 
d="M109.5 419.5c-23 14.333 -41.167 33.5 -54.5 57.5s-20 50 -20 78s6.66699 54 20 78s31.5 43.167 54.5 57.5s47.833 21.5 74.5 21.5c27.333 0 52.5 -7 75.5 -21s41.167 -33.167 54.5 -57.5s20 -50.5 20 -78.5s-6.66699 -54.167 -20 -78.5s-31.5 -43.5 -54.5 -57.5
s-48.167 -21 -75.5 -21c-26.667 0 -51.5 7.16699 -74.5 21.5zM529 700h46l-456 -700h-38zM238 457.5c14.667 26.333 22 58.833 22 97.5c0 39.333 -7.33301 72.166 -22 98.499s-32.667 39.5 -54 39.5c-22 0 -40 -13.167 -54 -39.5s-21 -59.166 -21 -98.499
c0 -38.667 7 -71.167 21 -97.5s32 -39.5 54 -39.5c21.333 0 39.333 13.167 54 39.5zM397 9c-22.667 14 -40.667 33.167 -54 57.5s-20 50.5 -20 78.5s6.66699 54.167 20 78.5s31.333 43.5 54 57.5s47.334 21 74.001 21c27.333 0 52.5 -7 75.5 -21s41.167 -33.167 54.5 -57.5
s20 -50.5 20 -78.5s-6.66699 -54.167 -20 -78.5s-31.5 -43.5 -54.5 -57.5s-48.167 -21 -75.5 -21c-26.667 0 -51.334 7 -74.001 21zM526 47.5c14.667 26.333 22 58.833 22 97.5c0 39.333 -7.33301 72.166 -22 98.499s-33 39.5 -55 39.5
c-21.333 0 -39.166 -13.167 -53.499 -39.5s-21.5 -59.166 -21.5 -98.499c0 -38.667 7.16699 -71.167 21.5 -97.5s32.166 -39.5 53.499 -39.5c22 0 40.333 13.167 55 39.5z" />
    <glyph glyph-name="ampersand" unicode="&#x26;" horiz-adv-x="752" 
d="M640 325c-41.333 -70.667 -81.001 -128.67 -119.001 -174.003l86 -103l22 -22l54 -11v-15h-155l-70 85c-70 -64.667 -143.667 -97 -221 -97c-57.333 0 -105.666 13.833 -144.999 41.5s-59 70.834 -59 129.501c0 46.667 16.5 88.334 49.5 125.001s77.833 67.667 134.5 93
c-24 28.667 -43 55.667 -57 81s-21 52.333 -21 81c0 35.333 7.66699 66 23 92s36 46 62 60s55 21 87 21c27.333 0 53.333 -5.66699 78 -17s44.5 -28.166 59.5 -50.499s22.5 -48.5 22.5 -78.5c0 -43.333 -13 -77.833 -39 -103.5s-64 -49.167 -114 -70.5
c16.667 -18.667 29 -32.667 37 -42l131 -157c22 38.667 43 83 63 133l-24 24l-62 12v15h263v-15l-61 -12zM245.999 657.997c-16.667 -22 -24.999 -53.001 -24.999 -93.001c0 -26.667 6.5 -51.667 19.5 -75s32.167 -48.666 57.5 -75.999c32 19.333 57 42.833 75 70.5
s27 58.5 27 92.5s-8.33301 61.5 -25 82.5s-36 31.5 -58 31.5c-30.667 0 -54.334 -11 -71.001 -33zM433 115.996l-178.001 217.002l-18 21c-34 -22.667 -60.5 -51.334 -79.5 -86.001s-28.5 -68.334 -28.5 -101.001c0 -44 12.333 -80 37 -108s56.334 -42 95.001 -42
c60.667 0 118 33 172 99z" />
    <glyph glyph-name="quotesingle" unicode="'" horiz-adv-x="167" 
d="M38 687v13h91v-13l-35 -201h-18z" />
    <glyph glyph-name="parenleft" unicode="(" horiz-adv-x="313" 
d="M103.5 -17.5c-46.333 80.333 -69.498 174.169 -69.498 281.502c0 69.333 10.667 133.666 32 192.999s51.166 111 89.499 155s82.166 78 131.499 102l10 -18c-50 -41.333 -90.667 -100.333 -122 -177s-47 -161.667 -47 -255c0 -96.667 15.667 -183.667 47 -261
s72 -137 122 -179l-10 -18c-76 37.333 -137.167 96.166 -183.5 176.499z" />
    <glyph glyph-name="parenright" unicode=")" horiz-adv-x="313" 
d="M209.5 -17.5c46.333 80.333 69.498 174.169 69.498 281.502c0 69.333 -10.667 133.666 -32 192.999s-51.166 111 -89.499 155s-82.166 78 -131.499 102l-10 -18c50 -41.333 90.667 -100.333 122 -177s47 -161.667 47 -255c0 -96.667 -15.667 -183.667 -47 -261
s-72 -137 -122 -179l10 -18c76 37.333 137.167 96.166 183.5 176.499z" />
    <glyph glyph-name="asterisk" unicode="*" horiz-adv-x="509" 
d="M392 409l71 -37l-33 -57l-67 43l-102 85l23 -131l3 -80h-66l4 80l21 129l-100 -83l-68 -43l-33 57l71 37l125 46l-125 46l-71 37l33 57l68 -43l100 -83l-21 129l-4 80h66l-3 -80l-23 -131l102 85l67 43l33 -57l-71 -37l-122 -46z" />
    <glyph glyph-name="plus" unicode="+" horiz-adv-x="516" 
d="M476 283h-201v-201h-34v201h-201v34h201v201h34v-201h201v-34z" />
    <glyph glyph-name="comma" unicode="," horiz-adv-x="210" 
d="M31 -114l35.999 33.999c11.333 12 19.333 22.333 24 31s7 17 7 25c0 10.667 -5.33301 18.667 -16 24c-20.667 11.333 -31 27 -31 47c0 14 4.66699 25.667 14 35s21 14 35 14c16.667 0 30.834 -6.16699 42.501 -18.5s17.5 -27.5 17.5 -45.5
c0 -55.333 -40 -107.666 -120 -156.999z" />
    <glyph glyph-name="hyphen" unicode="-" horiz-adv-x="353" 
d="M303 316v-32h-253v32h253z" />
    <glyph glyph-name="period" unicode="." horiz-adv-x="210" 
d="M65.5 4c-11 10.667 -16.5 24 -16.5 40c0 15.333 5.5 28.5 16.5 39.5s24.167 16.5 39.5 16.5s28.5 -5.5 39.5 -16.5s16.5 -24.167 16.5 -39.5c0 -16 -5.5 -29.333 -16.5 -40s-24.167 -16 -39.5 -16s-28.5 5.33301 -39.5 16z" />
    <glyph glyph-name="slash" unicode="/" horiz-adv-x="437" 
d="M388 736h39l-378 -772h-39z" />
    <glyph glyph-name="zero" unicode="0" horiz-adv-x="557" 
d="M153 33c-38 30 -68 72.333 -90 127s-33 118 -33 190s11 135.333 33 190s52 97 90 127s80 45 126 45c45.333 0 87 -15 125 -45s68 -72.333 90 -127s33 -118 33 -190s-11 -135.333 -33 -190s-51.833 -97 -89.5 -127s-79.5 -45 -125.5 -45s-88 15 -126 45zM355 56
c22.667 28 40.5 67.5 53.5 118.5s19.5 109.5 19.5 175.5s-6.5 124.5 -19.5 175.5s-30.833 90.5 -53.5 118.5s-48 42 -76 42c-28.667 0 -54.334 -14 -77.001 -42s-40.5 -67.5 -53.5 -118.5s-19.5 -109.5 -19.5 -175.5s6.5 -124.5 19.5 -175.5s30.833 -90.5 53.5 -118.5
s48.334 -42 77.001 -42c28 0 53.333 14 76 42z" />
    <glyph glyph-name="one" unicode="1" horiz-adv-x="392" 
d="M363 17v-17h-308v17l67 12l40 32v534l-128 -17l-7 18l212 104h17v-642l32 -29z" />
    <glyph glyph-name="two" unicode="2" horiz-adv-x="541" 
d="M494 170l0.00195312 -170h-463v20l213 276c38 48 64 90.167 78 126.5s21 73.833 21 112.5c0 41.333 -10.333 76.833 -31 106.5s-48 44.5 -82 44.5c-34.667 0 -63.167 -13.167 -85.5 -39.5s-33.5 -60.833 -33.5 -103.5c0 -28.667 5 -54 15 -76s22.667 -40.667 38 -56
l-12 -13c-36.667 6.66699 -67 23.167 -91 49.5s-36 57.5 -36 93.5c0 27.333 7.66699 54.166 23 80.499s38.333 48 69 65s67.667 25.5 111 25.5c67.333 0 120.166 -18.5 158.499 -55.5s57.5 -85.5 57.5 -145.5c0 -78 -37 -158.667 -111 -242
c-88.667 -99.333 -169.334 -178.666 -242.001 -237.999l352 53l24 24l12 62h15z" />
    <glyph glyph-name="three" unicode="3" horiz-adv-x="507" 
d="M355.5 402c35 -15.333 63.167 -38.501 84.5 -69.501s32 -69.167 32 -114.5c0 -44 -9.83301 -83.333 -29.5 -118s-47.167 -62 -82.5 -82s-76 -30 -122 -30c-49.333 0 -92.333 13 -129 39s-63.667 62 -81 108l20 13c16.667 -32 38.667 -55.833 66 -71.5
s58.333 -23.5 93 -23.5c32 0 61 7.16699 87 21.5s46.5 34.833 61.5 61.5s22.5 57.667 22.5 93c0 39.333 -8.83301 72 -26.5 98s-40.667 45.167 -69 57.5s-57.833 18.5 -88.5 18.5h-51v17l179 209h-216l-22 -22l-11 -54h-15v147h397v-20l-215 -253
c42 -1.33301 80.5 -9.66602 115.5 -24.999z" />
    <glyph glyph-name="four" unicode="4" horiz-adv-x="560" 
d="M415 51l24 -23.999l62 -12v-15h-247v15l54 11l22 22v110h-312v19l256 523h105v-18c-33.333 -68 -64.5 -122.833 -93.5 -164.5s-62.167 -85.5 -99.5 -131.5c-28 -34.667 -50.833 -64.334 -68.5 -89.001s-35.167 -53.667 -52.5 -87h266v113l42 40l27 75h15v-228h127v-52
h-127v-107z" />
    <glyph glyph-name="five" unicode="5" horiz-adv-x="506" 
d="M367.5 433c34.333 -19.333 60.5 -45.833 78.5 -79.5s27 -72.167 27 -115.5c0 -50 -10 -94 -30 -132s-47.333 -67.167 -82 -87.5s-72.667 -30.5 -114 -30.5c-52 0 -97.833 14 -137.5 42s-66.5 67 -80.5 117l16 9c19.333 -34 43.333 -59.833 72 -77.5
s60.667 -26.5 96 -26.5c48.667 0 89.167 16.5 121.5 49.5s48.5 79.833 48.5 140.5c0 60 -14.333 106.167 -43 138.5s-64.334 48.5 -107.001 48.5c-31.333 0 -61.5 -9.33301 -90.5 -28s-54.5 -45.667 -76.5 -81l-17 9l29 371h362v-165h-15l-12 61l-25 25h-261l-33 -205
c44.667 30.667 95.334 46 152.001 46c46.667 0 87.167 -9.66699 121.5 -29z" />
    <glyph glyph-name="six" unicode="6" horiz-adv-x="540" 
d="M397 420c34 -18 61 -44.3311 81 -78.998s30 -76 30 -124c0 -43.333 -10.667 -82.5 -32 -117.5s-50.166 -62.333 -86.499 -82s-76.166 -29.5 -119.499 -29.5c-42.667 0 -81.834 11.5 -117.501 34.5s-64.5 58.333 -86.5 106s-33 106.5 -33 176.5
c0 91.333 12.333 167.666 37 228.999s56.5 106.333 95.5 135s80.5 43 124.5 43s83 -14.333 117 -43s55 -67.334 63 -116.001l-22 -7c-7.33301 36 -23.833 65.167 -49.5 87.5s-53.834 33.5 -84.501 33.5c-31.333 0 -60.5 -11.833 -87.5 -35.5s-49.5 -57.5 -67.5 -101.5
s-29 -95 -33 -153c20.667 24 44.5 41.667 71.5 53s55.5 17 85.5 17c42 0 80 -9 114 -27zM372 67.502c26 35 39.001 82.168 39.001 141.501c0 38 -6 72.667 -18 104s-28.833 56.166 -50.5 74.499s-45.834 27.5 -72.501 27.5c-42.667 0 -76.167 -19.5 -100.5 -58.5
s-36.5 -88.167 -36.5 -147.5c0 -38.667 6.16699 -72.667 18.5 -102s29 -52 50 -68s43.833 -24 68.5 -24c42 0 76 17.5 102 52.5z" />
    <glyph glyph-name="seven" unicode="7" horiz-adv-x="486" 
d="M456 700l0.00390625 -50.0029c-17.333 -34 -38.333 -72.667 -63 -116c-35.333 -62 -63.333 -115.333 -84 -160s-37.834 -97.834 -51.501 -159.501s-20.5 -133.167 -20.5 -214.5h-103c0 70.667 9.16699 135.334 27.5 194.001s40.166 109.334 65.499 152.001
s57.666 91.334 96.999 146.001c16 22 31.667 44.333 47 67s27.666 43.334 36.999 62.001h-317l-24 -24l-12 -62h-15v165h416z" />
    <glyph glyph-name="eight" unicode="8" horiz-adv-x="544" 
d="M473 311c22 -32 33.001 -69.667 33.001 -113c0 -39.333 -9.5 -75 -28.5 -107s-46.333 -57.167 -82 -75.5s-77.167 -27.5 -124.5 -27.5c-44.667 0 -84.667 8 -120 24s-63.166 38.333 -83.499 67s-30.5 61.667 -30.5 99c0 41.333 12.833 78.166 38.5 110.499
s60.5 56.5 104.5 72.5c-36.667 18 -64.334 42.5 -83.001 73.5s-28 64.833 -28 101.5c0 30 7.83301 58.5 23.5 85.5s38.667 48.833 69 65.5s66.833 25 109.5 25s78.667 -8.16699 108 -24.5s51.166 -37.666 65.499 -63.999s21.5 -54.833 21.5 -85.5c0 -28 -9 -55.5 -27 -82.5
s-43 -48.5 -75 -64.5c50.667 -21.333 87 -48 109 -80zM188.501 650c-21 -24 -31.501 -53.667 -31.501 -89c0 -34.667 12.333 -64 37 -88s66.334 -45.667 125.001 -65c19.333 16 34.5 35.5 45.5 58.5s16.5 46.833 16.5 71.5c0 46 -9.66699 82.167 -29 108.5
s-46.333 39.5 -81 39.5c-34 0 -61.5 -12 -82.5 -36zM377.5 55c27.667 27.333 41.498 63.332 41.498 107.999s-17.167 81.334 -51.5 110.001s-82.833 52.667 -145.5 72c-30.667 -15.333 -55 -36.5 -73 -63.5s-27 -58.833 -27 -95.5c0 -32.667 6.33301 -62 19 -88
s30.334 -46.5 53.001 -61.5s48.334 -22.5 77.001 -22.5c43.333 0 78.833 13.667 106.5 41z" />
    <glyph glyph-name="nine" unicode="9" horiz-adv-x="540" 
d="M143 280c-34 18 -61 44.3311 -81 78.998s-30 76 -30 124c0 43.333 10.667 82.5 32 117.5s50.166 62.333 86.499 82s76.166 29.5 119.499 29.5c42.667 0 81.834 -11.5 117.501 -34.5s64.5 -58.333 86.5 -106s33 -106.5 33 -176.5c0 -91.333 -12.333 -167.666 -37 -228.999
s-56.5 -106.333 -95.5 -135s-80.5 -43 -124.5 -43s-83 14.333 -117 43s-55 67.334 -63 116.001l22 7c7.33301 -36 23.833 -65.167 49.5 -87.5s53.834 -33.5 84.501 -33.5c31.333 0 60.5 11.833 87.5 35.5s49.5 57.5 67.5 101.5s29 95 33 153
c-20.667 -24 -44.5 -41.667 -71.5 -53s-55.5 -17 -85.5 -17c-42 0 -80 9 -114 27zM168 632.498c-26 -35 -39.001 -82.168 -39.001 -141.501c0 -38 6 -72.667 18 -104s28.833 -56.166 50.5 -74.499s45.834 -27.5 72.501 -27.5c42.667 0 76.167 19.5 100.5 58.5
s36.5 88.167 36.5 147.5c0 38.667 -6.16699 72.667 -18.5 102s-29 52 -50 68s-43.833 24 -68.5 24c-42 0 -76 -17.5 -102 -52.5z" />
    <glyph glyph-name="colon" unicode=":" horiz-adv-x="210" 
d="M65.5 406.5c-11 11 -16.5 24.167 -16.5 39.5s5.5 28.5 16.5 39.5s24.167 16.5 39.5 16.5s28.5 -5.5 39.5 -16.5s16.5 -24.167 16.5 -39.5s-5.5 -28.5 -16.5 -39.5s-24.167 -16.5 -39.5 -16.5s-28.5 5.5 -39.5 16.5zM65.5 4c-11 10.667 -16.5 24 -16.5 40
c0 15.333 5.5 28.5 16.5 39.5s24.167 16.5 39.5 16.5s28.5 -5.5 39.5 -16.5s16.5 -24.167 16.5 -39.5c0 -16 -5.5 -29.333 -16.5 -40s-24.167 -16 -39.5 -16s-28.5 5.33301 -39.5 16z" />
    <glyph glyph-name="semicolon" unicode=";" horiz-adv-x="210" 
d="M65.5 406.5c-11 11 -16.5 24.167 -16.5 39.5s5.5 28.5 16.5 39.5s24.167 16.5 39.5 16.5s28.5 -5.5 39.5 -16.5s16.5 -24.167 16.5 -39.5s-5.5 -28.5 -16.5 -39.5s-24.167 -16.5 -39.5 -16.5s-28.5 5.5 -39.5 16.5zM28 -113c15.333 12.667 27.332 23.9971 35.999 33.9971
c10.667 11.333 18.334 21.333 23.001 30s7 17.334 7 26.001c0 10.667 -5.33301 18.334 -16 23.001c-20.667 12.667 -31 28.334 -31 47.001c0 14 4.83301 25.667 14.5 35s21.5 14 35.5 14c16.667 0 30.667 -6 42 -18s17 -27.333 17 -46c0 -26 -8.83301 -52 -26.5 -78
s-48.5 -52.333 -92.5 -79z" />
    <glyph glyph-name="less" unicode="&#x3c;" horiz-adv-x="537" 
d="M472 546l-359 -186l359 -190v-41l-407 215v32l407 210v-40z" />
    <glyph glyph-name="equal" unicode="=" horiz-adv-x="575" 
d="M40 420h495v-34h-495v34zM40 214h495v-34h-495v34z" />
    <glyph glyph-name="greater" unicode="&#x3e;" horiz-adv-x="537" 
d="M65 546l359 -186l-359 -190v-41l407 215v32l-407 210v-40z" />
    <glyph glyph-name="question" unicode="?" horiz-adv-x="435" 
d="M202 233c4.66699 36 11.6719 67.4971 21.0049 94.4971s22.333 57.833 39 92.5c15.333 32 26.666 59 33.999 81s11 46.333 11 73c0 34.667 -9 62.167 -27 82.5s-39.333 30.5 -64 30.5c-28 0 -51.167 -11.167 -69.5 -33.5s-27.5 -49.833 -27.5 -82.5
c0 -19.333 2.83301 -37.666 8.5 -54.999s13.167 -32.666 22.5 -45.999l-9 -13c-36.667 8 -64.334 22 -83.001 42s-28 44.667 -28 74c0 25.333 7.66699 48.5 23 69.5s37.166 37.833 65.499 50.5s60.833 19 97.5 19c37.333 0 70.166 -7.33301 98.499 -22
s50.166 -34.167 65.499 -58.5s23 -50.5 23 -78.5c0 -35.333 -6.16699 -65 -18.5 -89s-31.833 -52.667 -58.5 -86c-27.333 -34.667 -49.5 -66 -66.5 -94s-31.5 -63.667 -43.5 -107h-17c0 20.667 1 39.334 3 56.001zM169.505 7.49707c-11 11 -16.5 24.167 -16.5 39.5
s5.5 28.5 16.5 39.5s24.167 16.5 39.5 16.5s28.5 -5.5 39.5 -16.5s16.5 -24.167 16.5 -39.5s-5.5 -28.5 -16.5 -39.5s-24.167 -16.5 -39.5 -16.5s-28.5 5.5 -39.5 16.5z" />
    <glyph glyph-name="at" unicode="@" horiz-adv-x="756" 
d="M457 315l0.00390625 19.9941c0 72 -22.333 108 -67 108c-15.333 0 -31.5 -5.5 -48.5 -16.5s-33.167 -26.833 -48.5 -47.5l-34 -73h-13v116c46 28.667 95 43 147 43c45.333 0 79.666 -11.667 102.999 -35s35 -58 35 -104v-199c0 -16 2 -27.5 6 -34.5
s12.667 -10.5 26 -10.5c15.333 0 31.833 7.5 49.5 22.5s32.834 37 45.501 66s19 63.833 19 104.5c0 56.667 -11.833 106.834 -35.5 150.501s-55.667 77.5 -96 101.5s-84.5 36 -132.5 36c-54.667 0 -105.834 -13.667 -153.501 -41s-85.667 -65.666 -114 -114.999
s-42.5 -105.666 -42.5 -168.999c0 -64 12.5 -119.833 37.5 -167.5s59 -84.167 102 -109.5s90.833 -38 143.5 -38c44.667 0 83.667 6 117 18s65 30.667 95 56l15 -17c-64 -61.333 -143.667 -92 -239 -92c-62.667 0 -119.834 14.5 -171.501 43.5s-92.667 70 -123 123
s-45.5 114.167 -45.5 183.5c0 70.667 16.833 134.5 50.5 191.5s78.667 101.667 135 134s117.166 48.5 182.499 48.5c66 0 123 -13.667 171 -41s84.833 -64.833 110.5 -112.5s38.5 -101.5 38.5 -161.5c0 -48 -8 -90.667 -24 -128s-38 -66.166 -66 -86.499
s-59.333 -30.5 -94 -30.5c-26.667 0 -46.334 5.83301 -59.001 17.5s-19.667 28.834 -21 51.501c-5.33301 -5.33301 -11.333 -10.333 -18 -15c-6.66699 -5.33301 -11.334 -9.33301 -14.001 -12c-16 -14 -32 -24.667 -48 -32s-34.333 -11 -55 -11
c-25.333 0 -47.666 8.33301 -66.999 25s-29 38.334 -29 65.001c0 22.667 7.33301 42.5 22 59.5s37 34.167 67 51.5c48 26.667 95 47.667 141 63zM457.004 290.994c-49.333 -19.333 -85.333 -38.6689 -108 -58.002c-13.333 -11.333 -23.333 -22.666 -30 -33.999
s-10 -25 -10 -41c0 -18 5.5 -32.333 16.5 -43s25.167 -16 42.5 -16c14 0 27 3.33301 39 10s28.667 19.334 50 38.001v144z" />
    <glyph glyph-name="A" unicode="A" horiz-adv-x="780" 
d="M769 15v-15h-279v15l61 12l25 25l-63 156h-317l-62 -157l24 -24l62 -12v-15h-208v15l61 12l25 25l239 595l-1 2l-24 24l-62 12v15h164l269 -649l24 -24zM501 238l-147 367l-146 -367h293z" />
    <glyph glyph-name="B" unicode="B" horiz-adv-x="621" 
d="M545.5 304c27.667 -30 41.5 -68.334 41.5 -115.001c0 -59.333 -21.833 -105.666 -65.5 -138.999s-101.5 -50 -173.5 -50h-319v15l61 12l25 25v597l-24 24l-62 12v15h281c82 0 145.667 -14.5 191 -43.5s68 -72.833 68 -131.5c0 -34.667 -11.833 -67.667 -35.5 -99
s-57.834 -53.333 -102.501 -66c48.667 -7.33301 86.834 -26 114.501 -56zM210 668.999l0.000976562 -297h108c49.333 0 87.166 15 113.499 45s39.5 66.333 39.5 109s-14.333 77.167 -43 103.5s-69.667 39.5 -123 39.5h-95zM415.501 51.499c23 13.667 41 33 54 58
s19.5 53.5 19.5 85.5c0 40.667 -14.333 75.167 -43 103.5s-70.667 42.5 -126 42.5h-110v-310h129c28 0 53.5 6.83301 76.5 20.5z" />
    <glyph glyph-name="C" unicode="C" horiz-adv-x="682" 
d="M195 36c-51.333 32 -91.334 75.334 -120.001 130.001s-43 115 -43 181c0 67.333 15.333 128.833 46 184.5s73.5 99.667 128.5 132s116.833 48.5 185.5 48.5c44 0 83.833 -3.5 119.5 -10.5s75.167 -18.5 118.5 -34.5v-194h-20l-46 123
c-28.667 31.333 -56.167 53.833 -82.5 67.5s-56.833 20.5 -91.5 20.5c-51.333 0 -96.5 -14.833 -135.5 -44.5s-69 -68.334 -90 -116.001s-31.5 -97.5 -31.5 -149.5c0 -58.667 12.167 -112 36.5 -160s57.333 -85.667 99 -113s87.5 -41 137.5 -41
c45.333 0 87.666 11.667 126.999 35s72 59 98 107l16 -8c-22.667 -63.333 -59.167 -113.5 -109.5 -150.5s-107.166 -55.5 -170.499 -55.5s-120.666 16 -171.999 48z" />
    <glyph glyph-name="D" unicode="D" horiz-adv-x="722" 
d="M517.5 656c55 -29.333 97.501 -70.5 127.501 -123.5s45 -113.833 45 -182.5c0 -69.333 -15.167 -130.333 -45.5 -183s-73.333 -93.667 -129 -123s-119.834 -44 -192.501 -44h-294v15l61 12l25 25v597l-24 24l-62 12v15h296c73.333 0 137.5 -14.667 192.5 -44zM463.501 72
c40.333 27.333 71.5 65.332 93.5 113.999s33 103.334 33 164.001c0 62 -10.833 117.167 -32.5 165.5s-52.667 86 -93 113s-87.166 40.5 -140.499 40.5h-114v-638h113c53.333 0 100.166 13.667 140.499 41z" />
    <glyph glyph-name="E" unicode="E" horiz-adv-x="612" 
d="M585 211l-39 -211h-517v15l61 12l25 25v597l-24 24l-62 12v15h520v-190h-17l-64 159h-258v-294h133l45 116h16v-264h-16l-46 117h-132v-313h255l105 186z" />
    <glyph glyph-name="F" unicode="F" horiz-adv-x="581" 
d="M549 510h-17l-64 159h-258v-294h133l45 116h16v-264h-16l-46 117h-132v-293l24 -24l62 -12v-15h-267v15l61 12l25 25v597l-24 24l-62 12v15h520v-190z" />
    <glyph glyph-name="G" unicode="G" horiz-adv-x="724" 
d="M189.5 36c-49 32 -87.502 75.1689 -115.502 129.502s-42 113.833 -42 178.5c0 68 15.5 130.167 46.5 186.5s74 100.666 129 132.999s116.833 48.5 185.5 48.5c44.667 0 84.334 -3.16699 119.001 -9.5s73.334 -17.5 116.001 -33.5v-192h-20l-46 126
c-28.667 29.333 -56.167 50.166 -82.5 62.499s-55.833 18.5 -88.5 18.5c-48.667 0 -92.667 -14.333 -132 -43s-70 -67.834 -92 -117.501s-33 -104.167 -33 -163.5c0 -55.333 11.833 -106.166 35.5 -152.499s56 -83 97 -110s85.5 -40.5 133.5 -40.5
c51.333 0 97.333 16 138 48v200l-24 24l-62 12v15h254v-15l-54 -11l-22 -22v-308h-14l-61 70c-26 -25.333 -56 -45.333 -90 -60s-71 -22 -111 -22c-60.667 0 -115.5 16 -164.5 48z" />
    <glyph glyph-name="H" unicode="H" horiz-adv-x="793" 
d="M678 648v-597l24 -24l62 -12v-15h-267v15l61 12l25 25v289h-373v-290l24 -24l62 -12v-15h-267v15l61 12l25 25v597l-24 24l-62 12v15h267v-15l-61 -12l-25 -25v-276h373v277l-24 24l-62 12v15h267v-15l-61 -12z" />
    <glyph glyph-name="I" unicode="I" horiz-adv-x="325" 
d="M210 648v-597l24 -24l62 -12v-15h-267v15l61 12l25 25v597l-24 24l-62 12v15h267v-15l-61 -12z" />
    <glyph glyph-name="J" unicode="J" horiz-adv-x="457" 
d="M430 685l-61 -12l-25 -25v-472c0 -58 -15.333 -103.833 -46 -137.5s-72 -50.5 -124 -50.5c-52.667 0 -100.667 14.333 -144 43v172h15l47 -132c13.333 -21.333 26.333 -36.5 39 -45.5s27 -13.5 43 -13.5c50 0 75 40.667 75 122v515l-24 24l-62 12v15h267v-15z" />
    <glyph glyph-name="K" unicode="K" horiz-adv-x="719" 
d="M713 15v-15h-165l-314 336h-24v-285l24 -24l62 -12v-15h-267v15l61 12l25 25v597l-24 24l-62 12v15h267v-15l-61 -12l-25 -25v-281h33l282 282l-24 24l-62 12v15h220v-15l-61 -12l-25 -25l-264 -257l318 -340l24 -24zM661 15z" />
    <glyph glyph-name="L" unicode="L" horiz-adv-x="619" 
d="M597 231l-58 -231h-510v15l61 12l25 25v597l-24 24l-62 12v15h267v-15l-61 -12l-25 -25v-617h238l134 207z" />
    <glyph glyph-name="M" unicode="M" horiz-adv-x="862" 
d="M25 15l61 12l24 25v648h31l296 -435l290 435h25v-649l24 -24l62 -12v-15h-267v15l61 12l25 25v484l-249 -369h-15l-249 367v-483l24 -24l61 -12v-15h-204v15z" />
    <glyph glyph-name="N" unicode="N" horiz-adv-x="729" 
d="M25 15l61 12l24 25v648h25l451 -523v472l-24 24l-62 12v15h205v-15l-61 -12l-25 -25v-648h-24l-451 528v-477l24 -24l61 -12v-15h-204v15z" />
    <glyph glyph-name="O" unicode="O" horiz-adv-x="789" 
d="M207.5 35.5c-55 31.667 -98 75 -129 130s-46.5 116.5 -46.5 184.5s15.5 129.5 46.5 184.5s74 98.333 129 130s117.167 47.5 186.5 47.5s131.666 -15.833 186.999 -47.5s98.5 -75 129.5 -130s46.5 -116.5 46.5 -184.5s-15.5 -129.5 -46.5 -184.5
s-74.167 -98.333 -129.5 -130s-117.666 -47.5 -186.999 -47.5s-131.5 15.833 -186.5 47.5zM525 61.5c40 31 71.667 72.167 95 123.5s35 106.333 35 165s-11.667 113.667 -35 165s-55 92.5 -95 123.5s-83.667 46.5 -131 46.5s-90.833 -15.5 -130.5 -46.5
s-71.167 -72.167 -94.5 -123.5s-35 -106.333 -35 -165s11.5 -113.667 34.5 -165s54.5 -92.5 94.5 -123.5s83.667 -46.5 131 -46.5s91 15.5 131 46.5z" />
    <glyph glyph-name="P" unicode="P" horiz-adv-x="612" 
d="M464.5 677.5c35.667 -15 64.334 -37.168 86.001 -66.501s32.5 -64.333 32.5 -105c0 -50.667 -13.5 -93.667 -40.5 -129s-61.833 -61.666 -104.5 -78.999s-87.334 -26 -134.001 -26h-94v-221l24 -24l62 -12v-15h-267v15l61 12l25 25v597l-24 24l-62 12v15h320
c41.333 0 79.833 -7.5 115.5 -22.5zM426 352.999c36.667 33.333 54.999 80 54.999 140c0 56.667 -14.5 100.167 -43.5 130.5s-69.167 45.5 -120.5 45.5h-107v-366h67c62.667 0 112.334 16.667 149.001 50z" />
    <glyph glyph-name="Q" unicode="Q" horiz-adv-x="789" 
d="M770 66c-10.667 -28.667 -27.498 -51.999 -50.498 -69.999s-48.167 -27 -75.5 -27c-38 0 -74.333 15 -109 45c-44 -17.333 -91 -26 -141 -26c-69.333 0 -131.5 15.833 -186.5 47.5s-98 75 -129 130s-46.5 116.5 -46.5 184.5s15.5 129.5 46.5 184.5s74 98.333 129 130
s117.167 47.5 186.5 47.5s131.666 -15.833 186.999 -47.5s98.5 -75 129.5 -130s46.5 -116.5 46.5 -184.5c0 -63.333 -13.833 -121.333 -41.5 -174s-65.834 -95.334 -114.501 -128.001c24 -22 48.333 -33 73 -33c34 0 62.667 19 86 57zM173.002 176.001
c18 30.667 40.999 55.501 68.999 74.501s57 28.5 87 28.5c29.333 0 55.833 -6.83301 79.5 -20.5s44.334 -30.334 62.001 -50.001s38.167 -45.5 61.5 -77.5l28 -38c29.333 31.333 52.5 69.5 69.5 114.5s25.5 92.5 25.5 142.5c0 58.667 -11.667 113.667 -35 165
s-55 92.5 -95 123.5s-83.667 46.5 -131 46.5s-90.833 -15.5 -130.5 -46.5s-71.167 -72.167 -94.5 -123.5s-35 -106.333 -35 -165c0 -62.667 13 -120.667 39 -174zM274.501 53.002c37 -25.333 76.833 -37.999 119.5 -37.999c38.667 0 75 10.333 109 31
c-14.667 16.667 -30.667 37 -48 61c-29.333 39.333 -54.833 68.666 -76.5 87.999s-46.167 29 -73.5 29c-20.667 0 -42.5 -6.5 -65.5 -19.5s-41.833 -29.5 -56.5 -49.5c24 -42.667 54.5 -76.667 91.5 -102z" />
    <glyph glyph-name="R" unicode="R" horiz-adv-x="740" 
d="M729 15v-14.999h-161l-308 331h-50v-280l24 -24l62 -12v-15h-267v15l61 12l25 25v597l-24 24l-62 12v15h293c46.667 0 85.834 -7.16699 117.501 -21.5s55 -33.333 70 -57s22.5 -49.834 22.5 -78.501c0 -44 -15.833 -83 -47.5 -117s-73.834 -57.667 -126.501 -71l285 -304
l24 -24zM210 362.001l68.001 -0.000976562c22 0 45.167 7.33301 69.5 22s44.666 35 60.999 61s24.5 54.667 24.5 86c0 44.667 -12 78.834 -36 102.501s-58 35.5 -102 35.5h-85v-307z" />
    <glyph glyph-name="S" unicode="S" horiz-adv-x="494" 
d="M42 59l0.00292969 206.002h20l51 -167c17.333 -27.333 38.166 -47.833 62.499 -61.5s48.5 -20.5 72.5 -20.5c38 0 69.5 12.333 94.5 37s37.5 58.667 37.5 102c0 31.333 -12 60.833 -36 88.5s-59.667 50.5 -107 68.5c-66 25.333 -115.833 55.666 -149.5 90.999
s-50.5 79 -50.5 131c0 36 9.16699 67.5 27.5 94.5s43 47.667 74 62s65.167 21.5 102.5 21.5c64.667 0 124.667 -16.333 180 -49v-178h-18l-44 131c-15.333 22.667 -32 39.667 -50 51s-41 17 -69 17c-20 0 -39.667 -4.83301 -59 -14.5s-35 -23.334 -47 -41.001
s-18 -38.167 -18 -61.5c0 -66 43 -115.667 129 -149c54 -20.667 96.667 -41.334 128 -62.001s54.666 -44.667 69.999 -72s23 -60.666 23 -99.999c0 -36 -8.83301 -69 -26.5 -99s-43.334 -53.667 -77.001 -71s-73.5 -26 -119.5 -26c-67.333 0 -134.333 23.667 -201 71z" />
    <glyph glyph-name="T" unicode="T" horiz-adv-x="643" 
d="M613 493h-16l-70 176h-158v-618l24 -24l62 -12v-15h-267v15l61 12l25 25v617h-158l-70 -176h-16v207h583v-207z" />
    <glyph glyph-name="U" unicode="U" horiz-adv-x="731" 
d="M711 685l-61 -11.998l-25 -25v-350c0 -94.667 -20.667 -169.834 -62 -225.501s-106 -83.5 -194 -83.5c-54 0 -100.667 12.667 -140 38s-69.333 61.166 -90 107.499s-31 100.166 -31 161.499v353l-24 24l-62 12v15h267v-15l-61 -12l-25 -25v-349
c0 -73.333 17.5 -132.666 52.5 -177.999s83.167 -68 144.5 -68c38 0 71.667 10 101 30s52 48.5 68 85.5s24 80.167 24 129.5v351l-24 24l-62 12v15h204v-15z" />
    <glyph glyph-name="V" unicode="V" horiz-adv-x="746" 
d="M734 685l-61 -12l-25 -25l-264 -648h-16l-271 649l-24 24l-62 12v15h276v-15l-61 -12l-25 -25l208 -510l202 511l-24 24l-62 12v15h209v-15zM82 685z" />
    <glyph glyph-name="W" unicode="W" horiz-adv-x="1067" 
d="M1055 685l-61 -12l-25 -25l-239 -648h-14l-185 512l-189 -512h-14l-231 649l-24 24l-62 12v15h269v-15l-58 -12l-23 -23l170 -490l142 407l-30 83l-23 23l-58 12v15h265v-15l-58 -12l-23 -23l173 -492l172 492l-23 23l-58 12v15h207v-15zM941 685z" />
    <glyph glyph-name="X" unicode="X" horiz-adv-x="736" 
d="M716 15v-15h-288v15l61 12l25 25l-171 256l-190 -257l24 -24l62 -12v-15h-218v15l61 12l25 25l213 286l-211 311l-24 24l-62 12v15h287v-15l-61 -12l-25 -25l162 -241l176 242l-24 24l-62 12v15h217v-15l-61 -12l-25 -25l-198 -270l221 -327l24 -24zM85 685z" />
    <glyph glyph-name="Y" unicode="Y" horiz-adv-x="738" 
d="M727 685l-61 -12l-25 -25l-224 -376v-221l24 -24l62 -12v-15h-268v15l61 12l25 25v218l-225 379l-24 24l-62 12v15h281v-15l-61 -12l-25 -25l195 -340l197 341l-24 24l-62 12v15h216v-15zM75 685z" />
    <glyph glyph-name="Z" unicode="Z" horiz-adv-x="624" 
d="M33 26l402 643h-262l-112 -197l-20 4l44 224h467v-26l-400 -643h294l124 217l23 -10l-56 -238h-504v26z" />
    <glyph glyph-name="bracketleft" unicode="[" horiz-adv-x="330" 
d="M169 698v-876h131v-22h-223v920h223v-22h-131z" />
    <glyph glyph-name="backslash" unicode="\" horiz-adv-x="437" 
d="M49 736h-39l378 -772h39z" />
    <glyph glyph-name="bracketright" unicode="]" horiz-adv-x="330" 
d="M161 698v-876h-131v-22h223v920h-223v-22h131z" />
    <glyph glyph-name="asciicircum" unicode="^" horiz-adv-x="495" 
d="M235 733h23l197 -343h-19l-188 228l-189 -228h-19z" />
    <glyph glyph-name="underscore" unicode="_" horiz-adv-x="547" 
d="M497 -67v-31h-447v31h447z" />
    <glyph glyph-name="grave" unicode="`" horiz-adv-x="264" 
d="M200 550l-150 147v16h95l69 -154z" />
    <glyph glyph-name="a" unicode="a" horiz-adv-x="508" 
d="M500 71c-11.333 -14.667 -21.002 -26.333 -29.002 -35c-26 -31.333 -53.333 -47 -82 -47c-26 0 -45.667 9.66699 -59 29c-9.33301 12.667 -15 31.334 -17 56.001l-23 -21l-21 -18c-35.333 -31.333 -76.666 -47 -123.999 -47c-31.333 0 -58.833 10.333 -82.5 31
s-35.5 47.667 -35.5 81c0 28.667 9.16699 54 27.5 76s46.166 42.667 83.499 62c30 16 57.833 29.667 83.5 41s56.167 23.333 91.5 36v27c0 89.333 -28 134 -84 134c-38.667 0 -79 -26.667 -121 -80l-41 -91h-16v145c58 34.667 119 52 183 52c56 0 98.333 -14.5 127 -43.5
s43 -71.833 43 -128.5v-216c0 -12.667 0.833008 -22.834 2.5 -30.501s4.83398 -14.167 9.50098 -19.5c7.33301 -7.33301 16 -11 26 -11c8.66699 0 17.334 3.33301 26.001 10c5.33301 4 11.333 10.333 18 19zM250.498 60.001c15 8.66699 35.833 24.667 62.5 48v178
c-58 -24 -103 -48.333 -135 -73c-16.667 -12 -29.167 -25.5 -37.5 -40.5s-12.5 -32.5 -12.5 -52.5c0 -22 6.83301 -39.667 20.5 -53s31.167 -20 52.5 -20c18 0 34.5 4.33301 49.5 13z" />
    <glyph glyph-name="b" unicode="b" horiz-adv-x="588" 
d="M452 471.5c34 -20.333 60.5 -49.168 79.5 -86.501s28.5 -80.666 28.5 -129.999c0 -56 -11.167 -104 -33.5 -144s-52.5 -70.5 -90.5 -91.5s-79.667 -31.5 -125 -31.5c-39.333 0 -77.5 7.66699 -114.5 23s-70.5 35.333 -100.5 60v576l-22 19l-51 7v13l164 56v-306
c41.333 44 91.333 66 150 66c42.667 0 81 -10.167 115 -30.5zM386 49.498c23.333 19 41.6689 46.167 55.002 81.5s20 76.666 20 123.999c0 42 -6 79 -18 111s-28.5 56.833 -49.5 74.5s-44.833 26.5 -71.5 26.5s-52.167 -7.16699 -76.5 -21.5s-43.833 -35.166 -58.5 -62.499
v-230c0 -42 11.667 -74.5 35 -97.5s51.666 -34.5 84.999 -34.5c29.333 0 55.666 9.5 78.999 28.5z" />
    <glyph glyph-name="c" unicode="c" horiz-adv-x="503" 
d="M147.5 19.5c-36.333 21 -65.334 50.5 -87.001 88.5s-32.5 82 -32.5 132c0 53.333 12.333 99.833 37 139.5s57.334 70 98.001 91s84.667 31.5 132 31.5c58 0 108 -15 150 -45v-128h-17l-28 78c-17.333 24 -34.333 41.667 -51 53s-36 17 -58 17
c-31.333 0 -60.166 -9 -86.499 -27s-47.166 -43 -62.499 -75s-23 -68 -23 -108c0 -43.333 8.16699 -81 24.5 -113s38.666 -56.5 66.999 -73.5s60.166 -25.5 95.499 -25.5c30 0 59.167 7.83301 87.5 23.5s51.5 38.5 69.5 68.5l13 -8c-16.667 -44 -43.667 -80.167 -81 -108.5
s-80.333 -42.5 -129 -42.5c-42.667 0 -82.167 10.5 -118.5 31.5z" />
    <glyph glyph-name="d" unicode="d" horiz-adv-x="599" 
d="M576 15v-15h-167v50c-23.333 -20.667 -47.5 -36.167 -72.5 -46.5s-53.5 -15.5 -85.5 -15.5c-39.333 0 -76 9.5 -110 28.5s-61.333 47.167 -82 84.5s-31 82 -31 134s10.667 98.333 32 139s50.5 72.167 87.5 94.5s78.167 33.5 123.5 33.5c55.333 0 101.333 -15.333 138 -46
v190l-23 20l-51 7v13l164 56l-1 -1l2 1v-694l22 -22zM348 45.5c24.667 17 45 41.832 61 74.499v180c0 36 -5.83301 66.667 -17.5 92s-27 44.333 -46 57s-39.167 19 -60.5 19c-30.667 0 -58 -9.83301 -82 -29.5s-42.667 -47.167 -56 -82.5s-20 -75.666 -20 -120.999
c0 -44 6.66699 -82.333 20 -115s30.833 -57.5 52.5 -74.5s45.167 -25.5 70.5 -25.5c27.333 0 53.333 8.5 78 25.5z" />
    <glyph glyph-name="e" unicode="e" horiz-adv-x="513" 
d="M484 135c-21.333 -44 -50.166 -79.498 -86.499 -106.498s-79.833 -40.5 -130.5 -40.5c-42.667 0 -82.167 10.667 -118.5 32s-65.5 51.666 -87.5 90.999s-33 84.333 -33 135c0 48 11.333 91.667 34 131s52.834 70 90.501 92s77.5 33 119.5 33
c53.333 0 97.666 -12.833 132.999 -38.5s59 -60.834 71 -105.501c4 -18 6 -38 6 -60h-358c-1.33301 -16 -2 -28.667 -2 -38c0 -39.333 7.83301 -75 23.5 -107s37.167 -57.167 64.5 -75.5s57.666 -27.5 90.999 -27.5c70.667 0 126.667 31.667 168 95zM184.5 435.002
c-27 -28 -45.5 -64.667 -55.5 -110h236c11.333 0 17 6 17 18c0 39.333 -10.167 71.5 -30.5 96.5s-46.833 37.5 -79.5 37.5c-31.333 0 -60.5 -14 -87.5 -42z" />
    <glyph glyph-name="f" unicode="f" horiz-adv-x="391" 
d="M391 711l-0.000976562 -95.999h-15l-21 51c-2 2.66699 -7.83301 10 -17.5 22s-20.167 21 -31.5 27s-23.333 9 -36 9c-23.333 0 -43.166 -10.333 -59.499 -31s-24.5 -51.334 -24.5 -92.001v-111h112v-29h-112v-413l22 -22l54 -11v-15h-243v15l54 11l22 22v413h-72v29h72
v80c0 58.667 16.5 103 49.5 133s75.167 45 126.5 45c46.667 0 86.667 -12.333 120 -37z" />
    <glyph glyph-name="g" unicode="g" horiz-adv-x="500" 
d="M485 494v-70.0029l-9 -2l-37 13c-13.333 2.66699 -23 4 -29 4c-14 0 -26.667 -3.33301 -38 -10c21.333 -30 32 -64.667 32 -104c0 -34.667 -8.16699 -65.167 -24.5 -91.5s-38.666 -46.666 -66.999 -60.999s-60.5 -21.5 -96.5 -21.5c-14.667 0 -30.334 1.66699 -47.001 5
c-16 -6.66699 -29.333 -14.667 -40 -24s-16 -18.333 -16 -27c0 -9.33301 5.5 -16.5 16.5 -21.5s24.5 -8.16699 40.5 -9.5l143 -14c46.667 -4.66699 81.5 -15.667 104.5 -33s34.5 -42 34.5 -74c0 -26.667 -10.167 -52.667 -30.5 -78s-49 -46.166 -86 -62.499
s-79.5 -24.5 -127.5 -24.5c-57.333 0 -102.5 10 -135.5 30s-49.5 45.333 -49.5 76s14.667 56.334 44 77.001c18 12 37.333 22.667 58 32c-51.333 11.333 -77 35.666 -77 72.999c0 18 7.5 33.833 22.5 47.5s37.167 27.5 66.5 41.5c-33.333 13.333 -59.5 33.833 -78.5 61.5
s-28.5 60.5 -28.5 98.5c0 35.333 8 66.333 24 93s38.167 47.334 66.5 62.001s60.166 22 95.499 22c30 0 57.333 -5.16699 82 -15.5s45.334 -24.833 62.001 -43.5c12 18.667 26.167 33.167 42.5 43.5s33.833 15.5 52.5 15.5zM283.5 220.497
c17.667 29.667 26.5 64.499 26.5 104.499c0 42 -8.83301 78 -26.5 108s-40.167 45 -67.5 45c-26.667 0 -48.834 -15.167 -66.501 -45.5s-26.5 -66.166 -26.5 -107.499c0 -40 8.83301 -74.833 26.5 -104.5s39.834 -44.5 66.501 -44.5c27.333 0 49.833 14.833 67.5 44.5z
M157 -2.00391c-12 -10.667 -23.001 -22.333 -33.001 -35c-13.333 -20 -20 -39.333 -20 -58c0 -27.333 11 -49.833 33 -67.5s50.333 -26.5 85 -26.5c28 0 53.833 5.5 77.5 16.5s42.334 25 56.001 42s20.5 34.5 20.5 52.5c0 16.667 -7.16699 30.5 -21.5 41.5
s-36.5 17.833 -66.5 20.5z" />
    <glyph glyph-name="h" unicode="h" horiz-adv-x="632" 
d="M610 15l0.000976562 -15h-243v15l54 11l22 22v271c0 37.333 -7.33301 66.5 -22 87.5s-35.667 31.5 -63 31.5c-28 0 -58.333 -12.667 -91 -38s-58.334 -56 -77.001 -92v-260l22 -22l54 -11v-15h-243v15l54 11l22 22v599l-22 19l-51 7v13l164 56v-393
c20 44 48.167 80.5 84.5 109.5s75.833 43.5 118.5 43.5c46 0 81 -14.833 105 -44.5s36 -71.167 36 -124.5v-285l22 -22z" />
    <glyph glyph-name="i" unicode="i" horiz-adv-x="288" 
d="M102.5 605.5c-11.667 11.667 -17.5 25.834 -17.5 42.501c0 16 5.83301 29.833 17.5 41.5s25.5 17.5 41.5 17.5c16.667 0 30.834 -5.83301 42.501 -17.5s17.5 -25.5 17.5 -41.5c0 -16.667 -5.83301 -30.834 -17.5 -42.501s-25.834 -17.5 -42.501 -17.5
c-16 0 -29.833 5.83301 -41.5 17.5zM266 15v-15h-243v15l54 11l22 22v354l-22 19l-51 7v13l164 56v-449l22 -22z" />
    <glyph glyph-name="j" unicode="j" horiz-adv-x="244" 
d="M186.5 689.5c11.667 -11.667 17.5 -25.5 17.5 -41.5c0 -16.667 -5.83301 -30.834 -17.5 -42.501s-25.834 -17.5 -42.501 -17.5s-30.667 5.83301 -42 17.5s-17 25.834 -17 42.501c0 16 5.66699 29.833 17 41.5s25.333 17.5 42 17.5s30.834 -5.83301 42.501 -17.5zM186 497
l-1 -1.00098v-480c0 -53.333 -13 -98.666 -39 -135.999s-62.333 -64.666 -109 -81.999l-6 11c23.333 22.667 39.833 47.667 49.5 75s14.5 63.666 14.5 108.999v409l-22 19l-51 7v13l161 55l2 1h1z" />
    <glyph glyph-name="k" unicode="k" horiz-adv-x="611" 
d="M598 15v-15h-264v15l54 11l22 22l-185 196h-35v-196l22 -22l54 -11v-15h-243v15l54 11l22 22v598l-23 20l-51 7v13l164 56v-1l1 1v-470h38l172 170l-22 22l-54 11v15h198v-15l-54 -11l-22 -22l-157 -147l233 -247l22 -22zM553 15z" />
    <glyph glyph-name="l" unicode="l" horiz-adv-x="289" 
d="M266 15v-15h-243v15l54 11l22 22v599l-22 19l-51 7v13l164 56v-694l22 -22z" />
    <glyph glyph-name="m" unicode="m" horiz-adv-x="917" 
d="M895 15v-15.001h-243v15l54 11l22 22v279c0 34.667 -6.66699 61.834 -20 81.501s-31 29.5 -53 29.5c-52.667 0 -102.667 -37 -150 -111v-279l22 -22l54 -11v-15h-244v15l54 11l22 22v279c0 34.667 -6.66699 61.834 -20 81.501s-33 29.5 -59 29.5
c-25.333 0 -51 -10.5 -77 -31.5s-48.333 -47.833 -67 -80.5v-278l22 -22l54 -11v-15h-243v15l54 11l22 22v354l-22 19l-51 7v13l164 56v-130c18.667 39.333 44.667 71.666 78 96.999s68 38 104 38c37.333 0 67.5 -11.667 90.5 -35s36.833 -57.333 41.5 -102
c20.667 41.333 47.5 74.5 80.5 99.5s67.5 37.5 103.5 37.5c42 0 74.333 -14.5 97 -43.5s34 -70.167 34 -123.5v-287l22 -22z" />
    <glyph glyph-name="n" unicode="n" horiz-adv-x="632" 
d="M610 15l0.000976562 -15h-244v15l54 11l22 22v271c0 37.333 -7.5 66.5 -22.5 87.5s-37.5 31.5 -67.5 31.5c-27.333 0 -56.833 -12 -88.5 -36s-56.167 -54.333 -73.5 -91v-263l22 -22l54 -11v-15h-243v15l54 11l22 22v354l-22 19l-51 7v13l164 56v-146
c19.333 44 48.166 80.167 86.499 108.5s76.166 42.5 113.499 42.5c44.667 0 79.834 -15 105.501 -45s38.5 -71.333 38.5 -124v-285l22 -22z" />
    <glyph glyph-name="o" unicode="o" horiz-adv-x="571" 
d="M153.5 21.5c-39 22.333 -69.667 53 -92 92s-33.5 82.833 -33.5 131.5s11.167 92.5 33.5 131.5s53 69.667 92 92s82.833 33.5 131.5 33.5s92.667 -11.167 132 -33.5s70.166 -53 92.499 -92s33.5 -82.833 33.5 -131.5s-11.167 -92.5 -33.5 -131.5
s-53.166 -69.667 -92.499 -92s-83.333 -33.5 -132 -33.5s-92.5 11.167 -131.5 33.5zM364.5 43.5c23.667 19 42.167 45.833 55.5 80.5s20 75 20 121s-6.66699 86.333 -20 121s-31.833 61.5 -55.5 80.5s-50.167 28.5 -79.5 28.5s-55.666 -9.5 -78.999 -28.5
s-41.666 -45.833 -54.999 -80.5s-20 -75 -20 -121s6.66699 -86.333 20 -121s31.666 -61.5 54.999 -80.5s49.666 -28.5 78.999 -28.5s55.833 9.5 79.5 28.5z" />
    <glyph glyph-name="p" unicode="p" horiz-adv-x="583" 
d="M455.5 469c32.333 -22 57.001 -52.668 74.001 -92.001s25.5 -84 25.5 -134c0 -55.333 -10 -102.166 -30 -140.499s-47 -67 -81 -86s-71.667 -28.5 -113 -28.5c-56.667 0 -103.667 18 -141 54v-194l22 -22l54 -11v-15h-243v15l54 11l22 22v554l-22 19l-51 7v13l164 56v-63
c19.333 20.667 42.166 37.167 68.499 49.5s53.5 18.5 81.5 18.5c44.667 0 83.167 -11 115.5 -33zM386.501 46.499c21 17 37.667 42.167 50 75.5s18.5 73.666 18.5 120.999c0 68.667 -12.167 123.334 -36.5 164.001s-59.5 61 -105.5 61c-18.667 0 -37.5 -6.16699 -56.5 -18.5
s-34.833 -31 -47.5 -56s-19 -55.5 -19 -91.5v-210c14.667 -24.667 33 -42.667 55 -54s45.667 -17 71 -17c26 0 49.5 8.5 70.5 25.5z" />
    <glyph glyph-name="q" unicode="q" horiz-adv-x="603" 
d="M503 442l0.00292969 -593.999l22 -22l54 -11v-15h-243v15l54 11l22 22v221c-40.667 -54 -94.334 -81 -161.001 -81c-38 0 -74.167 9.5 -108.5 28.5s-62 47.167 -83 84.5s-31.5 82 -31.5 134s9.83301 98.167 29.5 138.5s47.167 71.833 82.5 94.5s75.666 34 120.999 34
c28.667 0 56.167 -5.83301 82.5 -17.5s49.166 -27.834 68.499 -48.501v54h167v-15l-54 -11zM352.503 50.501c25.667 19.667 45.499 48.167 59.499 85.5v170c0 32 -6.5 60.333 -19.5 85s-29.5 43.667 -49.5 57s-39.333 20 -58 20c-31.333 0 -58.833 -10 -82.5 -30
s-42 -47.667 -55 -83s-19.5 -75.333 -19.5 -120c0 -44 6.83301 -82.167 20.5 -114.5s31.334 -57 53.001 -74s44.167 -25.5 67.5 -25.5c30 0 57.833 9.83301 83.5 29.5z" />
    <glyph glyph-name="r" unicode="r" horiz-adv-x="418" 
d="M398 492v-88l-9 -3l-43 15c-25.333 -1.33301 -52.666 -11 -81.999 -29s-54 -39 -74 -63v-276l22 -22l54 -11v-15h-243v15l54 11l22 22v354l-22 19l-51 7v13l164 56v-147c17.333 38 43.166 72.667 77.499 104s68.5 47 102.5 47z" />
    <glyph glyph-name="s" unicode="s" horiz-adv-x="422" 
d="M127.5 -0.5c-27 7.66699 -55.1621 19.1689 -84.4951 34.502l-4 145h17l40 -99c17.333 -22.667 35.666 -39.334 54.999 -50.001s40.666 -16 63.999 -16c27.333 0 49.833 8.83301 67.5 26.5s26.5 38.167 26.5 61.5c0 27.333 -8.83301 49.5 -26.5 66.5
s-47.834 30.833 -90.501 41.5c-52.667 12.667 -92.334 31 -119.001 55s-40 55.333 -40 94c0 44.667 16.333 79.667 49 105s72 38 118 38c56.667 0 107 -13 151 -39v-135h-16l-36 88c-27.333 40 -60 60 -98 60c-27.333 0 -49.166 -8.5 -65.499 -25.5s-24.5 -37.5 -24.5 -61.5
s8.66699 -42.833 26 -56.5s46.666 -24.834 87.999 -33.501c58.667 -12.667 101.167 -31.167 127.5 -55.5s39.5 -58.833 39.5 -103.5c0 -47.333 -16.833 -84.5 -50.5 -111.5s-75.834 -40.5 -126.501 -40.5c-31.333 0 -60.5 3.83301 -87.5 11.5z" />
    <glyph glyph-name="t" unicode="t" horiz-adv-x="361" 
d="M110 13c-19.333 20.667 -29.002 54.333 -29.002 101v347h-56v16l147 119v-106h159v-29h-159v-309c0 -32 3.33301 -54.833 10 -68.5s21 -20.5 43 -20.5c16.667 0 33 5.66699 49 17c7.33301 6.66699 16.833 15.5 28.5 26.5s20.834 20.5 27.501 28.5l14 -12
c-34 -44 -55.333 -70.333 -64 -79c-34.667 -37.333 -68 -56 -100 -56c-31.333 0 -54.666 8.33301 -69.999 25z" />
    <glyph glyph-name="u" unicode="u" horiz-adv-x="630" 
d="M606 15v-15h-167v138c-18.667 -44.667 -46.334 -80.834 -83.001 -108.501s-74.667 -41.5 -114 -41.5c-46 0 -82 15 -108 45s-39 71.333 -39 124v245l-22 19l-51 7v13l164 56v-326c0 -37.333 7.66699 -66.666 23 -87.999s38 -32 68 -32c26.667 0 55.834 12 87.501 36
s56.5 54 74.5 90v225l-22 19l-51 7v13l164 56v-449l22 -22z" />
    <glyph glyph-name="v" unicode="v" 
d="M589 475l-54 -11l-22 -22l-196 -442h-24l-206 442l-22 22l-54 11v15h248v-15l-54 -11l-22 -22l153 -331l142 331l-22 22l-54 11v15h187v-15zM72 475z" />
    <glyph glyph-name="w" unicode="w" horiz-adv-x="840" 
d="M828 475l-54 -11l-22 -22l-177 -442h-16l-137 333l-134 -333h-17l-183 442l-22 22l-54 11v15h242v-15l-50 -10l-21 -22l126 -317l97 248l-29 69l-22 23l-45 9v15h239v-15l-54 -11l-22 -22l122 -314l122 314l-22 22l-54 11v15h187v-15zM74 475z" />
    <glyph glyph-name="x" unicode="x" horiz-adv-x="564" 
d="M550 15v-15h-248v15l50 10l21 22l-111 163l-130 -162l22 -22l54 -11v-15h-193v15l54 11l22 22l151 185l-146 209l-22 22l-54 11v15h248v-15l-50 -10l-21 -22l101 -149l121 148l-22 22l-54 11v15h193v-15l-54 -11l-22 -22l-142 -172l156 -222l22 -22zM73 475z" />
    <glyph glyph-name="y" unicode="y" 
d="M589 475l-54 -11l-22 -22l-287 -619l-26 -23h-135v19l58 21l117 106l42 77l-195 419l-22 22l-54 11v15h249v-15l-54 -11l-22 -22l147 -319l146 319l-22 22l-54 11v15h188v-15zM492 475z" />
    <glyph glyph-name="z" unicode="z" horiz-adv-x="498" 
d="M475 158l-51 -158h-382v22l281 439h-179l-103 -140l-16 3l42 166h369v-23l-280 -438h192l115 138z" />
    <glyph glyph-name="braceleft" unicode="{" horiz-adv-x="324" 
d="M171 645c-32.667 -30 -49 -73.6641 -49 -130.997c0 -30.667 4.83301 -55.834 14.5 -75.501s22.834 -40.167 39.501 -61.5c10 -11.333 17.333 -21.333 22 -30s7 -17.667 7 -27c0 -28.667 -21 -48 -63 -58c42 -10 63 -29.333 63 -58c0 -9.33301 -2.33301 -18.333 -7 -27
s-12 -18.667 -22 -30c-16.667 -21.333 -29.834 -41.833 -39.501 -61.5s-14.5 -44.834 -14.5 -75.501c0 -59.333 16.167 -103.5 48.5 -132.5s78.5 -43.5 138.5 -43.5v-21c-86.667 0 -154.667 16.5 -204 49.5s-74 79.5 -74 139.5c0 42 12 76.833 36 104.5
s53.333 53.167 88 76.5c13.333 8.66699 20 18.667 20 30c0 13.333 -11.167 23.5 -33.5 30.5s-51.166 10.5 -86.499 10.5v16c35.333 0 64.166 3.5 86.499 10.5s33.5 17.167 33.5 30.5c0 11.333 -6.66699 21.333 -20 30c-34.667 23.333 -64 48.833 -88 76.5
s-36 62.5 -36 104.5c0 61.333 24.5 108.166 73.5 140.499s117.167 48.5 204.5 48.5v-21c-59.333 0 -105.333 -15 -138 -45z" />
    <glyph glyph-name="bar" unicode="|" horiz-adv-x="190" 
d="M79 700h32v-900h-32v900z" />
    <glyph glyph-name="braceright" unicode="}" horiz-adv-x="324" 
d="M153 645c32.667 -30 49 -73.6641 49 -130.997c0 -30.667 -4.83301 -55.834 -14.5 -75.501s-22.834 -40.167 -39.501 -61.5c-10 -11.333 -17.333 -21.333 -22 -30s-7 -17.667 -7 -27c0 -28.667 21 -48 63 -58c-42 -10 -63 -29.333 -63 -58
c0 -9.33301 2.33301 -18.333 7 -27s12 -18.667 22 -30c16.667 -21.333 29.834 -41.833 39.501 -61.5s14.5 -44.834 14.5 -75.501c0 -59.333 -16.167 -103.5 -48.5 -132.5s-78.5 -43.5 -138.5 -43.5v-21c86.667 0 154.667 16.5 204 49.5s74 79.5 74 139.5
c0 42 -12 76.833 -36 104.5s-53.333 53.167 -88 76.5c-13.333 8.66699 -20 18.667 -20 30c0 13.333 11.167 23.5 33.5 30.5s51.166 10.5 86.499 10.5v16c-35.333 0 -64.166 3.5 -86.499 10.5s-33.5 17.167 -33.5 30.5c0 11.333 6.66699 21.333 20 30
c34.667 23.333 64 48.833 88 76.5s36 62.5 36 104.5c0 61.333 -24.5 108.166 -73.5 140.499s-117.167 48.5 -204.5 48.5v-21c59.333 0 105.333 -15 138 -45z" />
    <glyph glyph-name="asciitilde" unicode="~" horiz-adv-x="531" 
d="M78 339.5c21.333 27 50.333 40.498 87 40.498c21.333 0 40.666 -4.16699 57.999 -12.5s38.333 -20.5 63 -36.5c22 -14 40 -24.5 54 -31.5s29 -10.5 45 -10.5c23.333 0 42.166 7.83301 56.499 23.5s24.5 34.834 30.5 57.501l20 -5
c-4.66699 -41.333 -17.667 -75.666 -39 -102.999s-50.333 -41 -87 -41c-20.667 0 -39.667 4 -57 12s-38.333 19.667 -63 35c-21.333 14 -40.166 24.833 -56.499 32.5s-33.166 11.5 -50.499 11.5c-20 0 -36.833 -8 -50.5 -24s-23.5 -35 -29.5 -57l-20 3
c4.66699 43.333 17.667 78.5 39 105.5z" />
    <glyph glyph-name="uni00A0" unicode="&#xa0;" horiz-adv-x="225" 
d="M0 0z" />
    <glyph glyph-name="exclamdown" unicode="&#xa1;" horiz-adv-x="201" 
d="M140.5 492.5c11 -11 16.5 -24.5 16.5 -40.5c0 -15.333 -5.5 -28.5 -16.5 -39.5s-24.167 -16.5 -39.5 -16.5c-16 0 -29.5 5.5 -40.5 16.5s-16.5 24.167 -16.5 39.5c0 16 5.5 29.5 16.5 40.5s24.5 16.5 40.5 16.5c15.333 0 28.5 -5.5 39.5 -16.5zM111 290l27 -208l12 -282
h-99l12 282l27 208h21z" />
    <glyph glyph-name="cent" unicode="&#xa2;" horiz-adv-x="503" 
d="M410 145c-29.333 -26.667 -63.6689 -43.6699 -103.002 -51.0029v-94h-32v90h-9c-42.667 0 -82.167 10.5 -118.5 31.5s-65.333 50.5 -87 88.5s-32.5 82 -32.5 132c0 50.667 11.167 95.334 33.5 134.001s52.333 68.834 90 90.501s78.834 33.834 123.501 36.501v97h32v-96
c52.667 -2 98.667 -17 138 -45v-128h-17l-28 78c-15.333 21.333 -30.166 37.5 -44.499 48.5s-30.5 17.833 -48.5 20.5v-421c30 0 59 7.83301 87 23.5s51 38.5 69 68.5l13 -8c-14.667 -37.333 -36.667 -69.333 -66 -96zM162.497 225.497c29 -37 66.5 -59.167 112.5 -66.5v419
c-28.667 -2.66699 -55 -13.5 -79 -32.5s-42.833 -43.833 -56.5 -74.5s-20.5 -64.667 -20.5 -102c0 -58.667 14.5 -106.5 43.5 -143.5z" />
    <glyph glyph-name="sterling" unicode="&#xa3;" horiz-adv-x="564" 
d="M523 140c-6 -46.667 -21.5 -83.5 -46.5 -110.5s-57.167 -40.5 -96.5 -40.5c-21.333 0 -40 1.33301 -56 4s-35.333 7 -58 13c-34.667 10 -64 15 -88 15c-20 0 -37.667 -1.5 -53 -4.5s-37 -8.5 -65 -16.5l-20 34c30.667 25.333 54.667 46.666 72 63.999
s31.166 36.666 41.499 57.999s15.5 45.333 15.5 72c0 13.333 -3 26.333 -9 39h-100v31h82l-22 31c-23.333 32.667 -41.166 61.5 -53.499 86.5s-18.5 53.833 -18.5 86.5c0 38.667 9.33301 74 28 106s44.5 57.333 77.5 76s70.833 28 113.5 28
c62.667 0 123.667 -14.333 183 -43v-194h-19l-41 129c-18.667 28 -38.167 48.5 -58.5 61.5s-42.833 19.5 -67.5 19.5c-21.333 0 -41 -6.16699 -59 -18.5s-32.333 -29.833 -43 -52.5s-16 -48 -16 -76c0 -23.333 4.16699 -45.333 12.5 -66s21.166 -46.334 38.499 -77.001
c12 -21.333 21.5 -39.166 28.5 -53.499s12.167 -28.833 15.5 -43.5h157v-31h-152v-6c0 -34 -7 -64.167 -21 -90.5s-29.5 -47.666 -46.5 -63.999s-37.5 -33.5 -61.5 -51.5c24.667 10 46.667 17.333 66 22s41 7 65 7c13.333 0 36 -2.66699 68 -8
c33.333 -5.33301 57.333 -8 72 -8c31.333 0 56.833 5.33301 76.5 16s33.834 30.334 42.501 59.001z" />
    <glyph glyph-name="currency" unicode="&#xa4;" horiz-adv-x="583" 
d="M475 349c-8.66699 -22 -20.668 -42.001 -36.001 -60.001l101 -101l-22 -21l-101 102c-17.333 -14.667 -36.666 -26.167 -57.999 -34.5s-43.666 -12.5 -66.999 -12.5s-45.833 4 -67.5 12s-41.167 19.333 -58.5 34l-102 -101l-21 22l100 100c-16 18 -28.333 38 -37 60
s-13 45 -13 69c0 23.333 4.16699 45.833 12.5 67.5s20.166 41.167 35.499 58.5l-98 98l22 22l98 -98c18 15.333 38 27.166 60 35.499s44.667 12.5 68 12.5c48.667 0 91.667 -16 129 -48l98 98l22 -22l-99 -99c14.667 -17.333 26.167 -36.666 34.5 -57.999
s12.5 -43.666 12.5 -66.999c0 -24 -4.33301 -47 -13 -69zM372.999 276.999c25.333 14.667 45.5 34.5 60.5 59.5s22.5 52.167 22.5 81.5s-7.5 56.5 -22.5 81.5s-35.167 44.833 -60.5 59.5s-52.666 22 -81.999 22s-56.666 -7.33301 -81.999 -22s-45.5 -34.5 -60.5 -59.5
s-22.5 -52.167 -22.5 -81.5s7.5 -56.5 22.5 -81.5s35.167 -44.833 60.5 -59.5s52.666 -22 81.999 -22s56.666 7.33301 81.999 22z" />
    <glyph glyph-name="yen" unicode="&#xa5;" horiz-adv-x="709" 
d="M690 685l-61 -12l-25 -25l-189 -318h151v-30h-165v-95h165v-30h-165v-124l24 -24l62 -12v-15h-265v15l61 12l25 25v123h-170v30h170v95h-170v30h155l-189 319l-24 24l-62 12v15h279v-15l-61 -12l-25 -25l173 -298l174 299l-24 24l-62 12v15h218v-15zM83 685z" />
    <glyph glyph-name="brokenbar" unicode="&#xa6;" horiz-adv-x="190" 
d="M79 700h32v-299h-32v299zM79 99h32v-299h-32v299z" />
    <glyph glyph-name="section" unicode="&#xa7;" horiz-adv-x="493" 
d="M465 59c0 -34.667 -8.16992 -65.666 -24.5029 -92.999s-40.166 -48.833 -71.499 -64.5s-68.333 -23.5 -111 -23.5c-37.333 0 -73.833 7.5 -109.5 22.5s-66.5 35.833 -92.5 62.5v161h19l50 -134c15.333 -25.333 35 -45.833 59 -61.5s50.667 -23.5 80 -23.5
c32.667 0 60.667 10.667 84 32s35 48.333 35 81c0 32 -12.333 58.5 -37 79.5s-59.667 38.833 -105 53.5c-66 20.667 -115.667 44 -149 70s-50 58.667 -50 98c0 21.333 4.66699 40 14 56s21.333 29.333 36 40c-36.667 31.333 -55 71 -55 119c0 34 8.16699 64.5 24.5 91.5
s40 48.167 71 63.5s67.167 23 108.5 23c32 0 62.333 -3.83301 91 -11.5s58.667 -18.834 90 -33.501v-173h-20l-47 128c-16.667 21.333 -33.667 37.333 -51 48s-40 16 -68 16c-31.333 0 -58.666 -10.5 -81.999 -31.5s-35 -48.167 -35 -81.5c0 -32.667 12.5 -59.667 37.5 -81
s61.5 -39.666 109.5 -54.999c64.667 -20.667 113.334 -44 146.001 -70s49 -58.333 49 -97c0 -20.667 -4.33301 -39.167 -13 -55.5s-20 -29.5 -34 -39.5c34 -28.667 51 -67.334 51 -116.001zM327.997 223.001c19.333 -7.33301 37.001 -15.999 53.001 -25.999
c6 11.333 9 24 9 38c0 20.667 -10.333 39 -31 55s-53.334 31.333 -98.001 46c-62.667 20.667 -108.667 40 -138 58c-8 -10.667 -12 -24.667 -12 -42c0 -20 10.667 -37.833 32 -53.5s55 -30.834 101 -45.501c36.667 -12.667 64.667 -22.667 84 -30z" />
    <glyph glyph-name="dieresis" unicode="&#xa8;" horiz-adv-x="405" 
d="M66 593c-10.667 10.667 -16 23.334 -16 38.001c0 15.333 5.33301 28.333 16 39s23.334 16 38.001 16s27.334 -5.33301 38.001 -16s16 -23.667 16 -39c0 -14.667 -5.33301 -27.334 -16 -38.001s-23.334 -16 -38.001 -16s-27.334 5.33301 -38.001 16zM267 593
c-10.667 10.667 -16 23.334 -16 38.001s5.33301 27.5 16 38.5s23.334 16.5 38.001 16.5s27.334 -5.33301 38.001 -16s16 -23.667 16 -39c0 -14.667 -5.33301 -27.334 -16 -38.001s-23.334 -16 -38.001 -16s-27.334 5.33301 -38.001 16z" />
    <glyph glyph-name="copyright" unicode="&#xa9;" horiz-adv-x="500" 
d="M147 337c-30.667 18 -54.5 42.333 -71.5 73s-25.5 64.334 -25.5 101.001s8.5 70.334 25.5 101.001s40.833 55 71.5 73s65 27 103 27s72.333 -9 103 -27s54.5 -42.333 71.5 -73s25.5 -64.334 25.5 -101.001s-8.5 -70.334 -25.5 -101.001s-40.833 -55 -71.5 -73
s-65 -27 -103 -27s-72.333 9 -103 27zM341.5 355.5c27 15.667 48.167 37.167 63.5 64.5s23 57.666 23 90.999s-7.66699 63.666 -23 90.999s-36.5 48.833 -63.5 64.5s-57.5 23.5 -91.5 23.5s-64.5 -7.83301 -91.5 -23.5s-48.167 -37.167 -63.5 -64.5s-23 -57.666 -23 -90.999
s7.66699 -63.666 23 -90.999s36.5 -48.833 63.5 -64.5s57.5 -23.5 91.5 -23.5s64.5 7.83301 91.5 23.5zM164.5 425.5c-21.667 21 -32.501 47.834 -32.501 80.501c0 35.333 12.5 64.5 37.5 87.5s55.167 34.5 90.5 34.5c14.667 0 28.5 -1.5 41.5 -4.5
s22.5 -7.16699 28.5 -12.5v-51h-6l-17 30c-17.333 18.667 -35.666 28 -54.999 28c-22.667 0 -41.334 -8.66699 -56.001 -26s-22 -41 -22 -71c0 -29.333 8.5 -53.5 25.5 -72.5s37.167 -28.5 60.5 -28.5c15.333 0 28.333 3.33301 39 10s21.334 17.667 32.001 33l7 -3
c-9.33301 -20.667 -22.5 -36.834 -39.5 -48.501s-36.167 -17.5 -57.5 -17.5c-29.333 0 -54.833 10.5 -76.5 31.5z" />
    <glyph glyph-name="ordfeminine" unicode="&#xaa;" horiz-adv-x="390" 
d="M381 384c-2.66699 -3.33301 -6.00098 -7.6709 -10.001 -13.0039s-7.66699 -9.66602 -11 -12.999c-20 -23.333 -40.333 -35 -61 -35c-19.333 0 -34 7 -44 21c-6.66699 8.66699 -11 23 -13 43c-8 -8 -19.333 -18 -34 -30c-26 -23.333 -57 -35 -93 -35
c-22.667 0 -43 7.83301 -61 23.5s-27 35.834 -27 60.501c0 21.333 7 40.333 21 57s34.667 32.334 62 47.001c24.667 13.333 46.167 24 64.5 32s40.833 16.333 67.5 25v20c0 67.333 -21 101 -63 101c-28.667 0 -59.334 -20 -92.001 -60l-30 -68h-12v109
c44 26 89.667 39 137 39c42 0 73.833 -11 95.5 -33s32.5 -54.333 32.5 -97v-162c0 -10.667 0.5 -18.667 1.5 -24s3.16699 -9.66602 6.5 -12.999c6.66699 -5.33301 13.334 -8 20.001 -8c8.66699 0 15.334 2.33301 20.001 7l14 15zM195.499 376.995
c11.667 6.66699 27.167 18.667 46.5 36v134c-46.667 -20 -80.667 -38.667 -102 -56c-24.667 -18 -37 -41.333 -37 -70c0 -16 5.16699 -29 15.5 -39s23.5 -15 39.5 -15c13.333 0 25.833 3.33301 37.5 10z" />
    <glyph glyph-name="guillemotleft" unicode="&#xab;" horiz-adv-x="521" 
d="M158 305l133 -182l-14 -15l-239 188v20l239 185l14 -14zM358 305l133 -182l-14 -15l-239 188v20l239 185l14 -14z" />
    <glyph glyph-name="logicalnot" unicode="&#xac;" horiz-adv-x="494" 
d="M61 345h372v-154h-32v122h-340v32z" />
    <glyph glyph-name="uni00AD" unicode="&#xad;" horiz-adv-x="333" 
d="M282.2 316v-32h-232.293v32h232.293z" />
    <glyph glyph-name="registered" unicode="&#xae;" horiz-adv-x="500" 
d="M147 337c-30.667 18 -54.5 42.333 -71.5 73s-25.5 64.334 -25.5 101.001s8.5 70.334 25.5 101.001s40.833 55 71.5 73s65 27 103 27s72.333 -9 103 -27s54.5 -42.333 71.5 -73s25.5 -64.334 25.5 -101.001s-8.5 -70.334 -25.5 -101.001s-40.833 -55 -71.5 -73
s-65 -27 -103 -27s-72.333 9 -103 27zM341.5 355.5c27 15.667 48.167 37.167 63.5 64.5s23 57.666 23 90.999s-7.66699 63.666 -23 90.999s-36.5 48.833 -63.5 64.5s-57.5 23.5 -91.5 23.5s-64.5 -7.83301 -91.5 -23.5s-48.167 -37.167 -63.5 -64.5s-23 -57.666 -23 -90.999
s7.66699 -63.666 23 -90.999s36.5 -48.833 63.5 -64.5s57.5 -23.5 91.5 -23.5s64.5 7.83301 91.5 23.5zM146 403l20.001 3.99902l7 9v192l-7 8l-20 4v4h95c20.667 0 36.667 -4.66699 48 -14s17 -21.333 17 -36c0 -15.333 -4.83301 -27.166 -14.5 -35.499
s-23.834 -16.5 -42.501 -24.5l93 -99l7 -7l21 -5v-4h-51l-99 107h-17v-91l7 -7l20 -5v-4h-84v4zM226.001 514.999c9.33301 0 20.001 5 32.001 15s18 23.333 18 40c0 14 -3.83301 25.167 -11.5 33.5s-17.834 12.5 -30.501 12.5c-8.66699 0 -19 -1.33301 -31 -4v-97h23z" />
    <glyph glyph-name="macron" unicode="&#xaf;" horiz-adv-x="371" 
d="M321 645v-35h-271v35h271z" />
    <glyph glyph-name="degree" unicode="&#xb0;" horiz-adv-x="317" 
d="M80.5 523c-21.667 22 -32.5 48.333 -32.5 79s10.833 56.667 32.5 78s47.5 32 77.5 32c30.667 0 56.834 -10.667 78.501 -32s32.5 -47.333 32.5 -78s-10.833 -57 -32.5 -79s-47.834 -33 -78.501 -33c-30 0 -55.833 11 -77.5 33zM211.5 547
c15 15.333 22.5 33.666 22.5 54.999c0 20.667 -7.5 38.334 -22.5 53.001s-32.833 22 -53.5 22s-38.334 -7.33301 -53.001 -22s-22 -32.334 -22 -53.001c0 -21.333 7.33301 -39.666 22 -54.999s32.334 -23 53.001 -23s38.5 7.66699 53.5 23z" />
    <glyph glyph-name="plusminus" unicode="&#xb1;" horiz-adv-x="559" 
d="M262 412h-210v34h210v209h35v-209h209v-34h-209v-211h-35v211zM519 34v-34h-479v34h479z" />
    <glyph glyph-name="uni00B2" unicode="&#xb2;" horiz-adv-x="400" 
d="M353 349l-0.00292969 -118.998h-324v14l149 173c26.667 30 44.834 58.167 54.501 84.5s14.5 54.166 14.5 83.499c0 28.667 -7.16699 53 -21.5 73s-33.166 30 -56.499 30c-24.667 0 -44.834 -8.83301 -60.501 -26.5s-23.5 -41.5 -23.5 -71.5c0 -20 3.5 -37.667 10.5 -53
s15.833 -28.333 26.5 -39l-8 -9c-26 4.66699 -47.333 16 -64 34s-25 39.667 -25 65c0 19.333 5.33301 38.166 16 56.499s26.834 33.5 48.501 45.5s47.5 18 77.5 18c47.333 0 84.333 -13 111 -39s40 -60 40 -102c0 -54.667 -27 -109.667 -81 -165
c-49.333 -51.333 -104.666 -101.333 -165.999 -150l246 37l17 17l9 43h10z" />
    <glyph glyph-name="uni00B3" unicode="&#xb3;" horiz-adv-x="373" 
d="M292.5 481c31 -22.667 46.501 -57.666 46.501 -104.999c0 -45.333 -15.333 -82.333 -46 -111s-70.334 -43 -119.001 -43c-34 0 -64 9 -90 27s-44.667 43 -56 75l13 9c12 -22 27.667 -38.5 47 -49.5s41 -16.5 65 -16.5c34.667 0 63.167 10.5 85.5 31.5
s33.5 49.833 33.5 86.5c0 39.333 -12.5 68.166 -37.5 86.499s-55.167 27.5 -90.5 27.5h-36v13l125 139h-151l-16 -16l-7 -37h-11v102h278v-14l-150 -169c46.667 -1.33301 85.5 -13.333 116.5 -36z" />
    <glyph glyph-name="acute" unicode="&#xb4;" horiz-adv-x="264" 
d="M119 713h95v-16l-150 -147l-14 8z" />
    <glyph glyph-name="uni00B5" unicode="&#xb5;" horiz-adv-x="628" 
d="M604 15v-15.001h-164v140c-18.667 -45.333 -46.667 -82 -84 -110s-75.333 -42 -114 -42c-41.333 0 -74.333 12.333 -99 37l40 -210l-15 -15h-70v599l-25 22l-51 7v13l164 56v-326c0 -37.333 7.66699 -66.666 23 -87.999s38 -32 68 -32c26.667 0 56 12.167 88 36.5
s57 54.833 75 91.5v220l-25 22l-51 7v13l164 56v-449l22 -22z" />
    <glyph glyph-name="paragraph" unicode="&#xb6;" horiz-adv-x="457" 
d="M294 -200l-42 0.000976562v526h-15c-27.333 0 -55.666 7.33301 -84.999 22s-53.833 36.167 -73.5 64.5s-29.5 62.166 -29.5 101.499c0 38.667 9.83301 72 29.5 100s44.167 49.333 73.5 64s57.666 22 84.999 22h57v-900zM387 700.001v-900h-41v900h41z" />
    <glyph glyph-name="periodcentered" unicode="&#xb7;" horiz-adv-x="210" 
d="M65.5 307c-11 10.667 -16.5 24 -16.5 40c0 15.333 5.5 28.5 16.5 39.5s24.167 16.5 39.5 16.5s28.5 -5.5 39.5 -16.5s16.5 -24.167 16.5 -39.5c0 -16 -5.5 -29.333 -16.5 -40s-24.167 -16 -39.5 -16s-28.5 5.33301 -39.5 16z" />
    <glyph glyph-name="cedilla" unicode="&#xb8;" horiz-adv-x="274" 
d="M196 -77.5c14.667 -11 21.999 -28.5 21.999 -52.5c0 -24.667 -8.5 -44.5 -25.5 -59.5s-36.167 -22.5 -57.5 -22.5c-18 0 -34.5 5.16699 -49.5 15.5s-25.5 24.833 -31.5 43.5l12 8c13.333 -26.667 33 -40 59 -40c12.667 0 23.5 5 32.5 15s13.5 22.667 13.5 38
c0 13.333 -4.5 24.5 -13.5 33.5s-19.5 13.5 -31.5 13.5c-6.66699 0 -12.667 -2 -18 -6s-10.333 -8.5 -15 -13.5s-7.66699 -8.5 -9 -10.5l-11 10l63 134h68l-86 -96c10 4 20.333 6 31 6c16.667 0 32.334 -5.5 47.001 -16.5z" />
    <glyph glyph-name="uni00B9" unicode="&#xb9;" horiz-adv-x="291" 
d="M262 242v-12h-215v12l46 9l29 22v353l-90 -12l-5 13l148 73h12v-430l22 -19z" />
    <glyph glyph-name="ordmasculine" unicode="&#xba;" horiz-adv-x="442" 
d="M122 346c-29.333 16.667 -52.333 39.834 -69 69.501s-25 62.5 -25 98.5s8.33301 68.833 25 98.5s39.667 52.834 69 69.501s62.333 25 99 25s69.667 -8.33301 99 -25s52.333 -39.834 69 -69.501s25 -62.5 25 -98.5s-8.33301 -68.833 -25 -98.5
s-39.667 -52.834 -69 -69.501s-62.333 -25 -99 -25s-69.667 8.33301 -99 25zM304 388.5c22 31.667 33 73.5 33 125.5s-11 93.833 -33 125.5s-49.667 47.5 -83 47.5s-61 -15.833 -83 -47.5s-33 -73.5 -33 -125.5s11 -93.833 33 -125.5s49.667 -47.5 83 -47.5
s61 15.833 83 47.5z" />
    <glyph glyph-name="guillemotright" unicode="&#xbb;" horiz-adv-x="521" 
d="M363 305l-133 -182l14 -15l239 188v20l-239 185l-14 -14zM163 305l-133 -182l14 -15l239 188v20l-239 185l-14 -14z" />
    <glyph glyph-name="onequarter" unicode="&#xbc;" horiz-adv-x="926" 
d="M262 242v-12h-215v12l46 9l29 22v353l-90 -12l-5 13l148 73h12v-430l22 -19zM620 700h42l-327 -700h-46zM818.479 35.6973l16.7988 -16.7988l43.3975 -8.39941v-10.499h-172.889v10.499l37.7979 7.7002l15.3994 15.3984v76.9941h-218.385v13.2998l179.188 366.074
h73.4941v-12.5986c-23.3311 -47.5967 -45.1465 -85.9775 -65.4453 -115.143c-20.2979 -29.165 -43.5127 -59.8457 -69.6445 -92.043c-19.5986 -24.2656 -35.5811 -45.0312 -47.9473 -62.2959c-12.3662 -17.2656 -24.6152 -37.5645 -36.7471 -60.8955h186.187v79.0938
l29.3984 27.998l18.8984 52.4961h10.499v-159.588h88.8936v-36.3984h-88.8936v-74.8945z" />
    <glyph glyph-name="onehalf" unicode="&#xbd;" horiz-adv-x="1014" 
d="M262 242v-12h-215v12l46 9l29 22v353l-90 -12l-5 13l148 73h12v-430l22 -19zM629 700h42l-327 -700h-46zM967 139l-0.00292969 -118.998h-324v14l149 173c26.667 30 44.834 58.167 54.501 84.5s14.5 54.166 14.5 83.499c0 28.667 -7.16699 53 -21.5 73
s-33.166 30 -56.499 30c-24.667 0 -44.834 -8.83301 -60.501 -26.5s-23.5 -41.5 -23.5 -71.5c0 -20 3.5 -37.667 10.5 -53s15.833 -28.333 26.5 -39l-8 -9c-26 4.66699 -47.333 16 -64 34s-25 39.667 -25 65c0 19.333 5.33301 38.166 16 56.499s26.834 33.5 48.501 45.5
s47.5 18 77.5 18c47.333 0 84.333 -13 111 -39s40 -60 40 -102c0 -54.667 -27 -109.667 -81 -165c-49.333 -51.333 -104.666 -101.333 -165.999 -150l246 37l17 17l9 43h10z" />
    <glyph glyph-name="threequarters" unicode="&#xbe;" horiz-adv-x="955" 
d="M292.5 481c31 -22.667 46.501 -57.666 46.501 -104.999c0 -45.333 -15.333 -82.333 -46 -111s-70.334 -43 -119.001 -43c-34 0 -64 9 -90 27s-44.667 43 -56 75l13 9c12 -22 27.667 -38.5 47 -49.5s41 -16.5 65 -16.5c34.667 0 63.167 10.5 85.5 31.5
s33.5 49.833 33.5 86.5c0 39.333 -12.5 68.166 -37.5 86.499s-55.167 27.5 -90.5 27.5h-36v13l125 139h-151l-16 -16l-7 -37h-11v102h278v-14l-150 -169c46.667 -1.33301 85.5 -13.333 116.5 -36zM647.001 700.001h42l-327 -700h-46zM847.48 35.6982l16.7988 -16.7988
l43.3975 -8.39941v-10.499h-172.889v10.499l37.7979 7.7002l15.3994 15.3984v76.9941h-218.385v13.2998l179.188 366.074h73.4941v-12.5986c-23.3311 -47.5967 -45.1465 -85.9775 -65.4453 -115.143c-20.2979 -29.165 -43.5127 -59.8457 -69.6445 -92.043
c-19.5986 -24.2656 -35.5811 -45.0312 -47.9473 -62.2959c-12.3662 -17.2656 -24.6152 -37.5645 -36.7471 -60.8955h186.187v79.0938l29.3984 27.998l18.8984 52.4961h10.499v-159.588h88.8936v-36.3984h-88.8936v-74.8945z" />
    <glyph glyph-name="questiondown" unicode="&#xbf;" horiz-adv-x="435" 
d="M233 267c-4.66699 -36 -11.6719 -67.4971 -21.0049 -94.4971s-22.333 -57.833 -39 -92.5c-15.333 -32 -26.666 -59 -33.999 -81s-11 -46.333 -11 -73c0 -34.667 9 -62.167 27 -82.5s39.333 -30.5 64 -30.5c28 0 51.167 11.167 69.5 33.5s27.5 49.833 27.5 82.5
c0 19.333 -2.83301 37.666 -8.5 54.999s-13.167 32.666 -22.5 45.999l9 13c36.667 -8 64.334 -22 83.001 -42s28 -44.667 28 -74c0 -25.333 -7.66699 -48.5 -23 -69.5s-37.166 -37.833 -65.499 -50.5s-60.833 -19 -97.5 -19c-37.333 0 -70.166 7.33301 -98.499 22
s-50.166 34.167 -65.499 58.5s-23 50.5 -23 78.5c0 35.333 6.16699 65 18.5 89s31.833 52.667 58.5 86c27.333 34.667 49.5 66 66.5 94s31.5 63.667 43.5 107h17c0 -20.667 -1 -39.334 -3 -56.001zM265.495 492.503c11 -11 16.5 -24.167 16.5 -39.5s-5.5 -28.5 -16.5 -39.5
s-24.167 -16.5 -39.5 -16.5s-28.5 5.5 -39.5 16.5s-16.5 24.167 -16.5 39.5s5.5 28.5 16.5 39.5s24.167 16.5 39.5 16.5s28.5 -5.5 39.5 -16.5z" />
    <glyph glyph-name="Agrave" unicode="&#xc0;" horiz-adv-x="780" 
d="M769 15v-15h-279v15l61 12l25 25l-63 156h-317l-62 -157l24 -24l62 -12v-15h-208v15l61 12l25 25l239 595l-1 2l-24 24l-62 12v15h164l269 -649l24 -24zM501 238l-147 367l-146 -367h293zM352 761l-150 147v16h95l69 -154z" />
    <glyph glyph-name="Aacute" unicode="&#xc1;" horiz-adv-x="780" 
d="M769 15v-15h-279v15l61 12l25 25l-63 156h-317l-62 -157l24 -24l62 -12v-15h-208v15l61 12l25 25l239 595l-1 2l-24 24l-62 12v15h164l269 -649l24 -24zM501 238l-147 367l-146 -367h293zM422 924h95v-16l-150 -147l-14 8z" />
    <glyph glyph-name="Acircumflex" unicode="&#xc2;" horiz-adv-x="780" 
d="M769 15v-15h-279v15l61 12l25 25l-63 156h-317l-62 -157l24 -24l62 -12v-15h-208v15l61 12l25 25l239 595l-1 2l-24 24l-62 12v15h164l269 -649l24 -24zM501 238l-147 367l-146 -367h293zM352 924h14l143 -146l-10 -10l-140 74l-141 -74l-10 10z" />
    <glyph glyph-name="Atilde" unicode="&#xc3;" horiz-adv-x="780" 
d="M769 15v-15h-279v15l61 12l25 25l-63 156h-317l-62 -157l24 -24l62 -12v-15h-208v15l61 12l25 25l239 595l-1 2l-24 24l-62 12v15h164l269 -649l24 -24zM501 238l-147 367l-146 -367h293zM373.5 779c-11 6 -22.8311 14.666 -35.498 25.999
c-10 9.33301 -19.167 16.5 -27.5 21.5s-18.166 7.5 -29.499 7.5c-12.667 0 -25.167 -4.66699 -37.5 -14s-23.5 -22.666 -33.5 -39.999l-14 5c8.66699 35.333 21.667 62.333 39 81s38.666 28 63.999 28c16.667 0 30.5 -3 41.5 -9s22.833 -14.667 35.5 -26
c10.667 -9.33301 20 -16.333 28 -21s17.667 -7 29 -7c13.333 0 25.666 4.66699 36.999 14s22.666 22.333 33.999 39l15 -5c-8.66699 -35.333 -21.667 -62.333 -39 -81s-39 -28 -65 -28c-16.667 0 -30.5 3 -41.5 9z" />
    <glyph glyph-name="Adieresis" unicode="&#xc4;" horiz-adv-x="780" 
d="M769 15v-15h-279v15l61 12l25 25l-63 156h-317l-62 -157l24 -24l62 -12v-15h-208v15l61 12l25 25l239 595l-1 2l-24 24l-62 12v15h164l269 -649l24 -24zM501 238l-147 367l-146 -367h293zM220 790c-10.667 10.667 -16 23.334 -16 38.001c0 15.333 5.33301 28.333 16 39
s23.334 16 38.001 16s27.334 -5.33301 38.001 -16s16 -23.667 16 -39c0 -14.667 -5.33301 -27.334 -16 -38.001s-23.334 -16 -38.001 -16s-27.334 5.33301 -38.001 16zM421 790c-10.667 10.667 -16 23.334 -16 38.001s5.33301 27.5 16 38.5s23.334 16.5 38.001 16.5
s27.334 -5.33301 38.001 -16s16 -23.667 16 -39c0 -14.667 -5.33301 -27.334 -16 -38.001s-23.334 -16 -38.001 -16s-27.334 5.33301 -38.001 16z" />
    <glyph glyph-name="Aring" unicode="&#xc5;" horiz-adv-x="780" 
d="M769 15v-15h-279v15l61 12l25 25l-63 156h-317l-62 -157l24 -24l62 -12v-15h-208v15l61 12l25 25l239 595l-1 2l-24 24l-62 12v15h164l269 -649l24 -24zM501 238l-147 367l-146 -367h293zM302 784.5c-16 16.333 -24 35.5 -24 57.5c0 22.667 8 41.834 24 57.501
s35 23.5 57 23.5s41 -7.83301 57 -23.5s24 -34.834 24 -57.501c0 -22 -8 -41.167 -24 -57.5s-35 -24.5 -57 -24.5s-41 8.16699 -57 24.5zM394 806.5c10 10.333 15 22.166 15 35.499c0 14 -5 25.833 -15 35.5s-21.667 14.5 -35 14.5s-25 -4.83301 -35 -14.5
s-15 -21.5 -15 -35.5c0 -13.333 5 -25.166 15 -35.499s21.667 -15.5 35 -15.5s25 5.16699 35 15.5z" />
    <glyph glyph-name="AE" unicode="&#xc6;" horiz-adv-x="1002" 
d="M975 211l-39 -211h-517v15l61 12l25 25v126h-276l-84 -127l24 -24l62 -12v-15h-211v15l61 12l25 25l392 604l-17 17l-62 12v15h520v-190h-17l-64 159h-258v-294h133l45 116h16v-264h-16l-46 117h-132v-313h255l105 186zM505 208v390l-257 -390h257z" />
    <glyph glyph-name="Ccedilla" unicode="&#xc7;" horiz-adv-x="682" 
d="M195 36c-51.333 32 -91.334 75.334 -120.001 130.001s-43 115 -43 181c0 67.333 15.333 128.833 46 184.5s73.5 99.667 128.5 132s116.833 48.5 185.5 48.5c44 0 83.833 -3.5 119.5 -10.5s75.167 -18.5 118.5 -34.5v-194h-20l-46 123
c-28.667 31.333 -56.167 53.833 -82.5 67.5s-56.833 20.5 -91.5 20.5c-51.333 0 -96.5 -14.833 -135.5 -44.5s-69 -68.334 -90 -116.001s-31.5 -97.5 -31.5 -149.5c0 -58.667 12.167 -112 36.5 -160s57.333 -85.667 99 -113s87.5 -41 137.5 -41
c45.333 0 87.666 11.667 126.999 35s72 59 98 107l16 -8c-22.667 -63.333 -59.167 -113.5 -109.5 -150.5s-107.166 -55.5 -170.499 -55.5s-120.666 16 -171.999 48zM425.999 -77.499c14.667 -11 21.999 -28.5 21.999 -52.5c0 -24.667 -8.5 -44.5 -25.5 -59.5
s-36.167 -22.5 -57.5 -22.5c-18 0 -34.5 5.16699 -49.5 15.5s-25.5 24.833 -31.5 43.5l12 8c13.333 -26.667 33 -40 59 -40c12.667 0 23.5 5 32.5 15s13.5 22.667 13.5 38c0 13.333 -4.5 24.5 -13.5 33.5s-19.5 13.5 -31.5 13.5c-6.66699 0 -12.667 -2 -18 -6
s-10.333 -8.5 -15 -13.5s-7.66699 -8.5 -9 -10.5l-11 10l63 134h68l-86 -96c10 4 20.333 6 31 6c16.667 0 32.334 -5.5 47.001 -16.5z" />
    <glyph glyph-name="Egrave" unicode="&#xc8;" horiz-adv-x="612" 
d="M585 211l-39 -211h-517v15l61 12l25 25v597l-24 24l-62 12v15h520v-190h-17l-64 159h-258v-294h133l45 116h16v-264h-16l-46 117h-132v-313h255l105 186zM328 761l-150 147v16h95l69 -154z" />
    <glyph glyph-name="Eacute" unicode="&#xc9;" horiz-adv-x="612" 
d="M585 211l-39 -211h-517v15l61 12l25 25v597l-24 24l-62 12v15h520v-190h-17l-64 159h-258v-294h133l45 116h16v-264h-16l-46 117h-132v-313h255l105 186zM398 924h95v-16l-150 -147l-14 8z" />
    <glyph glyph-name="Ecircumflex" unicode="&#xca;" horiz-adv-x="612" 
d="M585 211l-39 -211h-517v15l61 12l25 25v597l-24 24l-62 12v15h520v-190h-17l-64 159h-258v-294h133l45 116h16v-264h-16l-46 117h-132v-313h255l105 186zM328 924h14l143 -146l-10 -10l-140 74l-141 -74l-10 10z" />
    <glyph glyph-name="Edieresis" unicode="&#xcb;" horiz-adv-x="612" 
d="M585 211l-39 -211h-517v15l61 12l25 25v597l-24 24l-62 12v15h520v-190h-17l-64 159h-258v-294h133l45 116h16v-264h-16l-46 117h-132v-313h255l105 186zM196 790c-10.667 10.667 -16 23.334 -16 38.001c0 15.333 5.33301 28.333 16 39s23.334 16 38.001 16
s27.334 -5.33301 38.001 -16s16 -23.667 16 -39c0 -14.667 -5.33301 -27.334 -16 -38.001s-23.334 -16 -38.001 -16s-27.334 5.33301 -38.001 16zM397 790c-10.667 10.667 -16 23.334 -16 38.001s5.33301 27.5 16 38.5s23.334 16.5 38.001 16.5s27.334 -5.33301 38.001 -16
s16 -23.667 16 -39c0 -14.667 -5.33301 -27.334 -16 -38.001s-23.334 -16 -38.001 -16s-27.334 5.33301 -38.001 16z" />
    <glyph glyph-name="Igrave" unicode="&#xcc;" horiz-adv-x="325" 
d="M210 648v-597l24 -24l62 -12v-15h-267v15l61 12l25 25v597l-24 24l-62 12v15h267v-15l-61 -12zM155 761l-150 147v16h95l69 -154z" />
    <glyph glyph-name="Iacute" unicode="&#xcd;" horiz-adv-x="325" 
d="M210 648v-597l24 -24l62 -12v-15h-267v15l61 12l25 25v597l-24 24l-62 12v15h267v-15l-61 -12zM225 924h95v-16l-150 -147l-14 8z" />
    <glyph glyph-name="Icircumflex" unicode="&#xce;" horiz-adv-x="325" 
d="M210 648v-597l24 -24l62 -12v-15h-267v15l61 12l25 25v597l-24 24l-62 12v15h267v-15l-61 -12zM155 924h14l143 -146l-10 -10l-140 74l-141 -74l-10 10z" />
    <glyph glyph-name="Idieresis" unicode="&#xcf;" horiz-adv-x="325" 
d="M210 648v-597l24 -24l62 -12v-15h-267v15l61 12l25 25v597l-24 24l-62 12v15h267v-15l-61 -12zM23 790c-10.667 10.667 -16 23.334 -16 38.001c0 15.333 5.33301 28.333 16 39s23.334 16 38.001 16s27.334 -5.33301 38.001 -16s16 -23.667 16 -39
c0 -14.667 -5.33301 -27.334 -16 -38.001s-23.334 -16 -38.001 -16s-27.334 5.33301 -38.001 16zM224 790c-10.667 10.667 -16 23.334 -16 38.001s5.33301 27.5 16 38.5s23.334 16.5 38.001 16.5s27.334 -5.33301 38.001 -16s16 -23.667 16 -39
c0 -14.667 -5.33301 -27.334 -16 -38.001s-23.334 -16 -38.001 -16s-27.334 5.33301 -38.001 16z" />
    <glyph glyph-name="Eth" unicode="&#xd0;" horiz-adv-x="722" 
d="M517.5 656c55 -29.333 97.501 -70.5 127.501 -123.5s45 -113.833 45 -182.5c0 -69.333 -15.167 -130.333 -45.5 -183s-73.333 -93.667 -129 -123s-119.834 -44 -192.501 -44h-294v15l61 12l25 25v283h-66v30h66v284l-24 24l-62 12v15h296
c73.333 0 137.5 -14.667 192.5 -44zM463.501 72c40.333 27.333 71.5 65.332 93.5 113.999s33 103.334 33 164.001c0 62 -10.833 117.167 -32.5 165.5s-52.667 86 -93 113s-87.166 40.5 -140.499 40.5h-114v-304h212v-30h-212v-304h113c53.333 0 100.166 13.667 140.499 41z
" />
    <glyph glyph-name="Ntilde" unicode="&#xd1;" horiz-adv-x="729" 
d="M25 15l61 12l24 25v648h25l451 -523v472l-24 24l-62 12v15h205v-15l-61 -12l-25 -25v-648h-24l-451 528v-477l24 -24l61 -12v-15h-204v15zM385.5 779c-11 6 -22.8311 14.666 -35.498 25.999c-10 9.33301 -19.167 16.5 -27.5 21.5s-18.166 7.5 -29.499 7.5
c-12.667 0 -25.167 -4.66699 -37.5 -14s-23.5 -22.666 -33.5 -39.999l-14 5c8.66699 35.333 21.667 62.333 39 81s38.666 28 63.999 28c16.667 0 30.5 -3 41.5 -9s22.833 -14.667 35.5 -26c10.667 -9.33301 20 -16.333 28 -21s17.667 -7 29 -7
c13.333 0 25.666 4.66699 36.999 14s22.666 22.333 33.999 39l15 -5c-8.66699 -35.333 -21.667 -62.333 -39 -81s-39 -28 -65 -28c-16.667 0 -30.5 3 -41.5 9z" />
    <glyph glyph-name="Ograve" unicode="&#xd2;" horiz-adv-x="789" 
d="M207.5 35.5c-55 31.667 -98 75 -129 130s-46.5 116.5 -46.5 184.5s15.5 129.5 46.5 184.5s74 98.333 129 130s117.167 47.5 186.5 47.5s131.666 -15.833 186.999 -47.5s98.5 -75 129.5 -130s46.5 -116.5 46.5 -184.5s-15.5 -129.5 -46.5 -184.5
s-74.167 -98.333 -129.5 -130s-117.666 -47.5 -186.999 -47.5s-131.5 15.833 -186.5 47.5zM525 61.5c40 31 71.667 72.167 95 123.5s35 106.333 35 165s-11.667 113.667 -35 165s-55 92.5 -95 123.5s-83.667 46.5 -131 46.5s-90.833 -15.5 -130.5 -46.5
s-71.167 -72.167 -94.5 -123.5s-35 -106.333 -35 -165s11.5 -113.667 34.5 -165s54.5 -92.5 94.5 -123.5s83.667 -46.5 131 -46.5s91 15.5 131 46.5zM388 761l-150 147v16h95l69 -154z" />
    <glyph glyph-name="Oacute" unicode="&#xd3;" horiz-adv-x="789" 
d="M207.5 35.5c-55 31.667 -98 75 -129 130s-46.5 116.5 -46.5 184.5s15.5 129.5 46.5 184.5s74 98.333 129 130s117.167 47.5 186.5 47.5s131.666 -15.833 186.999 -47.5s98.5 -75 129.5 -130s46.5 -116.5 46.5 -184.5s-15.5 -129.5 -46.5 -184.5
s-74.167 -98.333 -129.5 -130s-117.666 -47.5 -186.999 -47.5s-131.5 15.833 -186.5 47.5zM525 61.5c40 31 71.667 72.167 95 123.5s35 106.333 35 165s-11.667 113.667 -35 165s-55 92.5 -95 123.5s-83.667 46.5 -131 46.5s-90.833 -15.5 -130.5 -46.5
s-71.167 -72.167 -94.5 -123.5s-35 -106.333 -35 -165s11.5 -113.667 34.5 -165s54.5 -92.5 94.5 -123.5s83.667 -46.5 131 -46.5s91 15.5 131 46.5zM458 924h95v-16l-150 -147l-14 8z" />
    <glyph glyph-name="Ocircumflex" unicode="&#xd4;" horiz-adv-x="789" 
d="M207.5 35.5c-55 31.667 -98 75 -129 130s-46.5 116.5 -46.5 184.5s15.5 129.5 46.5 184.5s74 98.333 129 130s117.167 47.5 186.5 47.5s131.666 -15.833 186.999 -47.5s98.5 -75 129.5 -130s46.5 -116.5 46.5 -184.5s-15.5 -129.5 -46.5 -184.5
s-74.167 -98.333 -129.5 -130s-117.666 -47.5 -186.999 -47.5s-131.5 15.833 -186.5 47.5zM525 61.5c40 31 71.667 72.167 95 123.5s35 106.333 35 165s-11.667 113.667 -35 165s-55 92.5 -95 123.5s-83.667 46.5 -131 46.5s-90.833 -15.5 -130.5 -46.5
s-71.167 -72.167 -94.5 -123.5s-35 -106.333 -35 -165s11.5 -113.667 34.5 -165s54.5 -92.5 94.5 -123.5s83.667 -46.5 131 -46.5s91 15.5 131 46.5zM388 924h14l143 -146l-10 -10l-140 74l-141 -74l-10 10z" />
    <glyph glyph-name="Otilde" unicode="&#xd5;" horiz-adv-x="789" 
d="M207.5 35.5c-55 31.667 -98 75 -129 130s-46.5 116.5 -46.5 184.5s15.5 129.5 46.5 184.5s74 98.333 129 130s117.167 47.5 186.5 47.5s131.666 -15.833 186.999 -47.5s98.5 -75 129.5 -130s46.5 -116.5 46.5 -184.5s-15.5 -129.5 -46.5 -184.5
s-74.167 -98.333 -129.5 -130s-117.666 -47.5 -186.999 -47.5s-131.5 15.833 -186.5 47.5zM525 61.5c40 31 71.667 72.167 95 123.5s35 106.333 35 165s-11.667 113.667 -35 165s-55 92.5 -95 123.5s-83.667 46.5 -131 46.5s-90.833 -15.5 -130.5 -46.5
s-71.167 -72.167 -94.5 -123.5s-35 -106.333 -35 -165s11.5 -113.667 34.5 -165s54.5 -92.5 94.5 -123.5s83.667 -46.5 131 -46.5s91 15.5 131 46.5zM409.5 779c-11 6 -22.8311 14.666 -35.498 25.999c-10 9.33301 -19.167 16.5 -27.5 21.5s-18.166 7.5 -29.499 7.5
c-12.667 0 -25.167 -4.66699 -37.5 -14s-23.5 -22.666 -33.5 -39.999l-14 5c8.66699 35.333 21.667 62.333 39 81s38.666 28 63.999 28c16.667 0 30.5 -3 41.5 -9s22.833 -14.667 35.5 -26c10.667 -9.33301 20 -16.333 28 -21s17.667 -7 29 -7
c13.333 0 25.666 4.66699 36.999 14s22.666 22.333 33.999 39l15 -5c-8.66699 -35.333 -21.667 -62.333 -39 -81s-39 -28 -65 -28c-16.667 0 -30.5 3 -41.5 9z" />
    <glyph glyph-name="Odieresis" unicode="&#xd6;" horiz-adv-x="789" 
d="M207.5 35.5c-55 31.667 -98 75 -129 130s-46.5 116.5 -46.5 184.5s15.5 129.5 46.5 184.5s74 98.333 129 130s117.167 47.5 186.5 47.5s131.666 -15.833 186.999 -47.5s98.5 -75 129.5 -130s46.5 -116.5 46.5 -184.5s-15.5 -129.5 -46.5 -184.5
s-74.167 -98.333 -129.5 -130s-117.666 -47.5 -186.999 -47.5s-131.5 15.833 -186.5 47.5zM525 61.5c40 31 71.667 72.167 95 123.5s35 106.333 35 165s-11.667 113.667 -35 165s-55 92.5 -95 123.5s-83.667 46.5 -131 46.5s-90.833 -15.5 -130.5 -46.5
s-71.167 -72.167 -94.5 -123.5s-35 -106.333 -35 -165s11.5 -113.667 34.5 -165s54.5 -92.5 94.5 -123.5s83.667 -46.5 131 -46.5s91 15.5 131 46.5zM256 790c-10.667 10.667 -16 23.334 -16 38.001c0 15.333 5.33301 28.333 16 39s23.334 16 38.001 16
s27.334 -5.33301 38.001 -16s16 -23.667 16 -39c0 -14.667 -5.33301 -27.334 -16 -38.001s-23.334 -16 -38.001 -16s-27.334 5.33301 -38.001 16zM457 790c-10.667 10.667 -16 23.334 -16 38.001s5.33301 27.5 16 38.5s23.334 16.5 38.001 16.5s27.334 -5.33301 38.001 -16
s16 -23.667 16 -39c0 -14.667 -5.33301 -27.334 -16 -38.001s-23.334 -16 -38.001 -16s-27.334 5.33301 -38.001 16z" />
    <glyph glyph-name="multiply" unicode="&#xd7;" horiz-adv-x="436" 
d="M371 122l-153 153l-153 -153l-25 25l153 154l-152 152l25 25l152 -152l152 152l25 -25l-152 -152l153 -154z" />
    <glyph glyph-name="Oslash" unicode="&#xd8;" horiz-adv-x="789" 
d="M219 30c-58 30 -103.668 73.333 -137.001 130s-50 120 -50 190c0 68 15.5 129.5 46.5 184.5s74 98.333 129 130s117.167 47.5 186.5 47.5c50.667 0 98.667 -9 144 -27l26 51h39l-33 -66c58 -30 103.667 -73.333 137 -130s50 -120 50 -190
c0 -68 -15.5 -129.5 -46.5 -184.5s-74.167 -98.333 -129.5 -130s-117.666 -47.5 -186.999 -47.5c-50 0 -97.667 9 -143 27l-26 -51h-39zM517.999 644c-38.667 27.333 -80 41 -124 41c-47.333 0 -90.833 -15.5 -130.5 -46.5s-71.167 -72.167 -94.5 -123.5
s-35 -106.333 -35 -165c0 -53.333 9.83301 -103.833 29.5 -151.5s46.167 -87.167 79.5 -118.5zM524.999 61.5c40 31 71.667 72.167 95 123.5s35 106.333 35 165c0 52.667 -9.83301 103 -29.5 151s-46.167 87.667 -79.5 119l-275 -564c38 -27.333 79 -41 123 -41
c47.333 0 91 15.5 131 46.5z" />
    <glyph glyph-name="Ugrave" unicode="&#xd9;" horiz-adv-x="731" 
d="M711 685l-61 -11.998l-25 -25v-350c0 -94.667 -20.667 -169.834 -62 -225.501s-106 -83.5 -194 -83.5c-54 0 -100.667 12.667 -140 38s-69.333 61.166 -90 107.499s-31 100.166 -31 161.499v353l-24 24l-62 12v15h267v-15l-61 -12l-25 -25v-349
c0 -73.333 17.5 -132.666 52.5 -177.999s83.167 -68 144.5 -68c38 0 71.667 10 101 30s52 48.5 68 85.5s24 80.167 24 129.5v351l-24 24l-62 12v15h204v-15zM391 761.002l-150 147v16h95l69 -154z" />
    <glyph glyph-name="Uacute" unicode="&#xda;" horiz-adv-x="731" 
d="M711 685l-61 -11.998l-25 -25v-350c0 -94.667 -20.667 -169.834 -62 -225.501s-106 -83.5 -194 -83.5c-54 0 -100.667 12.667 -140 38s-69.333 61.166 -90 107.499s-31 100.166 -31 161.499v353l-24 24l-62 12v15h267v-15l-61 -12l-25 -25v-349
c0 -73.333 17.5 -132.666 52.5 -177.999s83.167 -68 144.5 -68c38 0 71.667 10 101 30s52 48.5 68 85.5s24 80.167 24 129.5v351l-24 24l-62 12v15h204v-15zM461 924.002h95v-16l-150 -147l-14 8z" />
    <glyph glyph-name="Ucircumflex" unicode="&#xdb;" horiz-adv-x="731" 
d="M711 685l-61 -11.998l-25 -25v-350c0 -94.667 -20.667 -169.834 -62 -225.501s-106 -83.5 -194 -83.5c-54 0 -100.667 12.667 -140 38s-69.333 61.166 -90 107.499s-31 100.166 -31 161.499v353l-24 24l-62 12v15h267v-15l-61 -12l-25 -25v-349
c0 -73.333 17.5 -132.666 52.5 -177.999s83.167 -68 144.5 -68c38 0 71.667 10 101 30s52 48.5 68 85.5s24 80.167 24 129.5v351l-24 24l-62 12v15h204v-15zM391 924.002h14l143 -146l-10 -10l-140 74l-141 -74l-10 10z" />
    <glyph glyph-name="Udieresis" unicode="&#xdc;" horiz-adv-x="731" 
d="M711 685l-61 -11.998l-25 -25v-350c0 -94.667 -20.667 -169.834 -62 -225.501s-106 -83.5 -194 -83.5c-54 0 -100.667 12.667 -140 38s-69.333 61.166 -90 107.499s-31 100.166 -31 161.499v353l-24 24l-62 12v15h267v-15l-61 -12l-25 -25v-349
c0 -73.333 17.5 -132.666 52.5 -177.999s83.167 -68 144.5 -68c38 0 71.667 10 101 30s52 48.5 68 85.5s24 80.167 24 129.5v351l-24 24l-62 12v15h204v-15zM259 790.002c-10.667 10.667 -16 23.334 -16 38.001c0 15.333 5.33301 28.333 16 39s23.334 16 38.001 16
s27.334 -5.33301 38.001 -16s16 -23.667 16 -39c0 -14.667 -5.33301 -27.334 -16 -38.001s-23.334 -16 -38.001 -16s-27.334 5.33301 -38.001 16zM460 790.002c-10.667 10.667 -16 23.334 -16 38.001s5.33301 27.5 16 38.5s23.334 16.5 38.001 16.5
s27.334 -5.33301 38.001 -16s16 -23.667 16 -39c0 -14.667 -5.33301 -27.334 -16 -38.001s-23.334 -16 -38.001 -16s-27.334 5.33301 -38.001 16z" />
    <glyph glyph-name="Yacute" unicode="&#xdd;" horiz-adv-x="738" 
d="M727 685l-61 -12l-25 -25l-224 -376v-221l24 -24l62 -12v-15h-268v15l61 12l25 25v218l-225 379l-24 24l-62 12v15h281v-15l-61 -12l-25 -25l195 -340l197 341l-24 24l-62 12v15h216v-15zM467 924h95v-16l-150 -147l-14 8z" />
    <glyph glyph-name="Thorn" unicode="&#xde;" horiz-adv-x="609" 
d="M463 540.5c35.333 -15.667 63.5 -38.1689 84.5 -67.502s31.5 -63.666 31.5 -102.999c0 -49.333 -13.5 -91.666 -40.5 -126.999s-61.833 -62 -104.5 -80s-87 -27 -133 -27h-93v-85l24 -24l62 -12v-15h-265v15l61 12l25 25v597l-24 24l-62 12v15h265v-15l-61 -12l-25 -25
v-84h138c42.667 0 81.667 -7.83301 117 -23.5zM423.5 216.498c37.667 33 56.5 79.833 56.5 140.5c0 56.667 -14.5 100.167 -43.5 130.5s-69.833 45.5 -122.5 45.5h-106v-366h60c66 0 117.833 16.5 155.5 49.5z" />
    <glyph glyph-name="germandbls" unicode="&#xdf;" horiz-adv-x="602" 
d="M526.5 267.5c28.333 -30.333 42.4971 -66.168 42.4971 -107.501c0 -34.667 -8 -65.167 -24 -91.5s-37.167 -46.333 -63.5 -60s-54.166 -20.5 -83.499 -20.5c-36 0 -66.167 6.5 -90.5 19.5s-44.833 30.833 -61.5 53.5l17 14c27.333 -31.333 62.333 -47 105 -47
c18.667 0 36.5 4.83301 53.5 14.5s30.833 23.167 41.5 40.5s16 36.666 16 57.999c0 31.333 -8.5 57.166 -25.5 77.499s-44.167 36.166 -81.5 47.499c-33.333 10.667 -59.5 25.5 -78.5 44.5s-28.5 40.5 -28.5 64.5c0 19.333 7.16699 37.333 21.5 54s34.833 30.667 61.5 42
c24 10.667 41.5 24.334 52.5 41.001s16.5 36.667 16.5 60c0 32 -9 58.667 -27 80s-44 32 -78 32c-36 0 -65.5 -16.667 -88.5 -50s-34.5 -81.666 -34.5 -144.999v-489h-167v15l54 11l22 22v434c0 48.667 9.83301 90.334 29.5 125.001s45.834 60.834 78.501 78.501
s68 26.5 106 26.5c36.667 0 69.334 -6.66699 98.001 -20s50.834 -31 66.501 -53s23.5 -45.667 23.5 -71c0 -26.667 -10.5 -49.5 -31.5 -68.5s-50.5 -36.167 -88.5 -51.5c-20.667 -8.66699 -36.167 -17.334 -46.5 -26.001s-15.5 -19.334 -15.5 -32.001
c0 -15.333 7.66699 -27.166 23 -35.499s37.666 -16.166 66.999 -23.499c50.667 -12 90.167 -33.167 118.5 -63.5z" />
    <glyph glyph-name="agrave" unicode="&#xe0;" horiz-adv-x="508" 
d="M500 71c-11.333 -14.667 -21.002 -26.333 -29.002 -35c-26 -31.333 -53.333 -47 -82 -47c-26 0 -45.667 9.66699 -59 29c-9.33301 12.667 -15 31.334 -17 56.001l-23 -21l-21 -18c-35.333 -31.333 -76.666 -47 -123.999 -47c-31.333 0 -58.833 10.333 -82.5 31
s-35.5 47.667 -35.5 81c0 28.667 9.16699 54 27.5 76s46.166 42.667 83.499 62c30 16 57.833 29.667 83.5 41s56.167 23.333 91.5 36v27c0 89.333 -28 134 -84 134c-38.667 0 -79 -26.667 -121 -80l-41 -91h-16v145c58 34.667 119 52 183 52c56 0 98.333 -14.5 127 -43.5
s43 -71.833 43 -128.5v-216c0 -12.667 0.833008 -22.834 2.5 -30.501s4.83398 -14.167 9.50098 -19.5c7.33301 -7.33301 16 -11 26 -11c8.66699 0 17.334 3.33301 26.001 10c5.33301 4 11.333 10.333 18 19zM250.498 60.001c15 8.66699 35.833 24.667 62.5 48v178
c-58 -24 -103 -48.333 -135 -73c-16.667 -12 -29.167 -25.5 -37.5 -40.5s-12.5 -32.5 -12.5 -52.5c0 -22 6.83301 -39.667 20.5 -53s31.167 -20 52.5 -20c18 0 34.5 4.33301 49.5 13zM224.998 550.001l-150 147v16h95l69 -154z" />
    <glyph glyph-name="aacute" unicode="&#xe1;" horiz-adv-x="508" 
d="M500 71c-11.333 -14.667 -21.002 -26.333 -29.002 -35c-26 -31.333 -53.333 -47 -82 -47c-26 0 -45.667 9.66699 -59 29c-9.33301 12.667 -15 31.334 -17 56.001l-23 -21l-21 -18c-35.333 -31.333 -76.666 -47 -123.999 -47c-31.333 0 -58.833 10.333 -82.5 31
s-35.5 47.667 -35.5 81c0 28.667 9.16699 54 27.5 76s46.166 42.667 83.499 62c30 16 57.833 29.667 83.5 41s56.167 23.333 91.5 36v27c0 89.333 -28 134 -84 134c-38.667 0 -79 -26.667 -121 -80l-41 -91h-16v145c58 34.667 119 52 183 52c56 0 98.333 -14.5 127 -43.5
s43 -71.833 43 -128.5v-216c0 -12.667 0.833008 -22.834 2.5 -30.501s4.83398 -14.167 9.50098 -19.5c7.33301 -7.33301 16 -11 26 -11c8.66699 0 17.334 3.33301 26.001 10c5.33301 4 11.333 10.333 18 19zM250.498 60.001c15 8.66699 35.833 24.667 62.5 48v178
c-58 -24 -103 -48.333 -135 -73c-16.667 -12 -29.167 -25.5 -37.5 -40.5s-12.5 -32.5 -12.5 -52.5c0 -22 6.83301 -39.667 20.5 -53s31.167 -20 52.5 -20c18 0 34.5 4.33301 49.5 13zM295.998 713.001h95v-16l-150 -147l-14 8z" />
    <glyph glyph-name="acircumflex" unicode="&#xe2;" horiz-adv-x="508" 
d="M500 71c-11.333 -14.667 -21.002 -26.333 -29.002 -35c-26 -31.333 -53.333 -47 -82 -47c-26 0 -45.667 9.66699 -59 29c-9.33301 12.667 -15 31.334 -17 56.001l-23 -21l-21 -18c-35.333 -31.333 -76.666 -47 -123.999 -47c-31.333 0 -58.833 10.333 -82.5 31
s-35.5 47.667 -35.5 81c0 28.667 9.16699 54 27.5 76s46.166 42.667 83.499 62c30 16 57.833 29.667 83.5 41s56.167 23.333 91.5 36v27c0 89.333 -28 134 -84 134c-38.667 0 -79 -26.667 -121 -80l-41 -91h-16v145c58 34.667 119 52 183 52c56 0 98.333 -14.5 127 -43.5
s43 -71.833 43 -128.5v-216c0 -12.667 0.833008 -22.834 2.5 -30.501s4.83398 -14.167 9.50098 -19.5c7.33301 -7.33301 16 -11 26 -11c8.66699 0 17.334 3.33301 26.001 10c5.33301 4 11.333 10.333 18 19zM250.498 60.001c15 8.66699 35.833 24.667 62.5 48v178
c-58 -24 -103 -48.333 -135 -73c-16.667 -12 -29.167 -25.5 -37.5 -40.5s-12.5 -32.5 -12.5 -52.5c0 -22 6.83301 -39.667 20.5 -53s31.167 -20 52.5 -20c18 0 34.5 4.33301 49.5 13zM225.998 714.001h14l143 -146l-10 -10l-140 74l-141 -74l-10 10z" />
    <glyph glyph-name="atilde" unicode="&#xe3;" horiz-adv-x="508" 
d="M500 71c-11.333 -14.667 -21.002 -26.333 -29.002 -35c-26 -31.333 -53.333 -47 -82 -47c-26 0 -45.667 9.66699 -59 29c-9.33301 12.667 -15 31.334 -17 56.001l-23 -21l-21 -18c-35.333 -31.333 -76.666 -47 -123.999 -47c-31.333 0 -58.833 10.333 -82.5 31
s-35.5 47.667 -35.5 81c0 28.667 9.16699 54 27.5 76s46.166 42.667 83.499 62c30 16 57.833 29.667 83.5 41s56.167 23.333 91.5 36v27c0 89.333 -28 134 -84 134c-38.667 0 -79 -26.667 -121 -80l-41 -91h-16v145c58 34.667 119 52 183 52c56 0 98.333 -14.5 127 -43.5
s43 -71.833 43 -128.5v-216c0 -12.667 0.833008 -22.834 2.5 -30.501s4.83398 -14.167 9.50098 -19.5c7.33301 -7.33301 16 -11 26 -11c8.66699 0 17.334 3.33301 26.001 10c5.33301 4 11.333 10.333 18 19zM250.498 60.001c15 8.66699 35.833 24.667 62.5 48v178
c-58 -24 -103 -48.333 -135 -73c-16.667 -12 -29.167 -25.5 -37.5 -40.5s-12.5 -32.5 -12.5 -52.5c0 -22 6.83301 -39.667 20.5 -53s31.167 -20 52.5 -20c18 0 34.5 4.33301 49.5 13zM249.498 569.001c-11 6 -22.8311 14.666 -35.498 25.999
c-10 9.33301 -19.167 16.5 -27.5 21.5s-18.166 7.5 -29.499 7.5c-12.667 0 -25.167 -4.66699 -37.5 -14s-23.5 -22.666 -33.5 -39.999l-14 5c8.66699 35.333 21.667 62.333 39 81s38.666 28 63.999 28c16.667 0 30.5 -3 41.5 -9s22.833 -14.667 35.5 -26
c10.667 -9.33301 20 -16.333 28 -21s17.667 -7 29 -7c13.333 0 25.666 4.66699 36.999 14s22.666 22.333 33.999 39l15 -5c-8.66699 -35.333 -21.667 -62.333 -39 -81s-39 -28 -65 -28c-16.667 0 -30.5 3 -41.5 9z" />
    <glyph glyph-name="adieresis" unicode="&#xe4;" horiz-adv-x="508" 
d="M500 71c-11.333 -14.667 -21.002 -26.333 -29.002 -35c-26 -31.333 -53.333 -47 -82 -47c-26 0 -45.667 9.66699 -59 29c-9.33301 12.667 -15 31.334 -17 56.001l-23 -21l-21 -18c-35.333 -31.333 -76.666 -47 -123.999 -47c-31.333 0 -58.833 10.333 -82.5 31
s-35.5 47.667 -35.5 81c0 28.667 9.16699 54 27.5 76s46.166 42.667 83.499 62c30 16 57.833 29.667 83.5 41s56.167 23.333 91.5 36v27c0 89.333 -28 134 -84 134c-38.667 0 -79 -26.667 -121 -80l-41 -91h-16v145c58 34.667 119 52 183 52c56 0 98.333 -14.5 127 -43.5
s43 -71.833 43 -128.5v-216c0 -12.667 0.833008 -22.834 2.5 -30.501s4.83398 -14.167 9.50098 -19.5c7.33301 -7.33301 16 -11 26 -11c8.66699 0 17.334 3.33301 26.001 10c5.33301 4 11.333 10.333 18 19zM250.498 60.001c15 8.66699 35.833 24.667 62.5 48v178
c-58 -24 -103 -48.333 -135 -73c-16.667 -12 -29.167 -25.5 -37.5 -40.5s-12.5 -32.5 -12.5 -52.5c0 -22 6.83301 -39.667 20.5 -53s31.167 -20 52.5 -20c18 0 34.5 4.33301 49.5 13zM93.998 593.001c-10.667 10.667 -16 23.334 -16 38.001c0 15.333 5.33301 28.333 16 39
s23.334 16 38.001 16s27.334 -5.33301 38.001 -16s16 -23.667 16 -39c0 -14.667 -5.33301 -27.334 -16 -38.001s-23.334 -16 -38.001 -16s-27.334 5.33301 -38.001 16zM294.998 593.001c-10.667 10.667 -16 23.334 -16 38.001s5.33301 27.5 16 38.5s23.334 16.5 38.001 16.5
s27.334 -5.33301 38.001 -16s16 -23.667 16 -39c0 -14.667 -5.33301 -27.334 -16 -38.001s-23.334 -16 -38.001 -16s-27.334 5.33301 -38.001 16z" />
    <glyph glyph-name="aring" unicode="&#xe5;" horiz-adv-x="508" 
d="M500 71c-11.333 -14.667 -21.002 -26.333 -29.002 -35c-26 -31.333 -53.333 -47 -82 -47c-26 0 -45.667 9.66699 -59 29c-9.33301 12.667 -15 31.334 -17 56.001l-23 -21l-21 -18c-35.333 -31.333 -76.666 -47 -123.999 -47c-31.333 0 -58.833 10.333 -82.5 31
s-35.5 47.667 -35.5 81c0 28.667 9.16699 54 27.5 76s46.166 42.667 83.499 62c30 16 57.833 29.667 83.5 41s56.167 23.333 91.5 36v27c0 89.333 -28 134 -84 134c-38.667 0 -79 -26.667 -121 -80l-41 -91h-16v145c58 34.667 119 52 183 52c56 0 98.333 -14.5 127 -43.5
s43 -71.833 43 -128.5v-216c0 -12.667 0.833008 -22.834 2.5 -30.501s4.83398 -14.167 9.50098 -19.5c7.33301 -7.33301 16 -11 26 -11c8.66699 0 17.334 3.33301 26.001 10c5.33301 4 11.333 10.333 18 19zM250.498 60.001c15 8.66699 35.833 24.667 62.5 48v178
c-58 -24 -103 -48.333 -135 -73c-16.667 -12 -29.167 -25.5 -37.5 -40.5s-12.5 -32.5 -12.5 -52.5c0 -22 6.83301 -39.667 20.5 -53s31.167 -20 52.5 -20c18 0 34.5 4.33301 49.5 13zM175.998 574.501c-16 16.333 -24 35.5 -24 57.5c0 22.667 8 41.834 24 57.501
s35 23.5 57 23.5s41 -7.83301 57 -23.5s24 -34.834 24 -57.501c0 -22 -8 -41.167 -24 -57.5s-35 -24.5 -57 -24.5s-41 8.16699 -57 24.5zM267.998 596.501c10 10.333 15 22.166 15 35.499c0 14 -5 25.833 -15 35.5s-21.667 14.5 -35 14.5s-25 -4.83301 -35 -14.5
s-15 -21.5 -15 -35.5c0 -13.333 5 -25.166 15 -35.499s21.667 -15.5 35 -15.5s25 5.16699 35 15.5z" />
    <glyph glyph-name="ae" unicode="&#xe6;" horiz-adv-x="797" 
d="M768 135c-20.667 -44 -49.166 -79.5029 -85.499 -106.503s-80.166 -40.5 -131.499 -40.5c-42.667 0 -82.5 11 -119.5 33s-65.5 52 -85.5 90c-24 -35.333 -53.667 -64.666 -89 -87.999s-72.333 -35 -111 -35c-34 0 -62.333 9.83301 -85 29.5s-34 46.834 -34 81.501
c0 52.667 32.333 96.667 97 132c30.667 16.667 59.667 31 87 43s61 24.333 101 37v32c0 48 -6 82.333 -18 103s-31.667 31 -59 31c-19.333 0 -39 -6.66699 -59 -20s-38.667 -32.666 -56 -57.999l-48 -100h-15v145c24 18.667 51.5 33.167 82.5 43.5s62.5 15.5 94.5 15.5
c34 0 63.667 -6.66699 89 -20s45 -33 59 -59c23.333 24.667 50.166 43.834 80.499 57.501s61.833 20.5 94.5 20.5c53.333 0 97.5 -12.833 132.5 -38.5s58.5 -60.834 70.5 -105.501c4.66699 -20.667 7 -40.667 7 -60h-359c-1.33301 -16 -2 -28.667 -2 -38
c0 -39.333 7.83301 -75 23.5 -107s37.167 -57.167 64.5 -75.5s57.666 -27.5 90.999 -27.5c70.667 0 126.667 31.667 168 95zM469.501 434.997c-27 -28 -45.5 -64.667 -55.5 -110h235c11.333 0 17 6 17 18c0 39.333 -10.167 71.5 -30.5 96.5s-46.5 37.5 -78.5 37.5
c-31.333 0 -60.5 -14 -87.5 -42zM312.001 285.997c-50.667 -21.333 -90.999 -43.333 -120.999 -66c-42.667 -31.333 -64 -67 -64 -107c0 -20.667 7.16699 -38 21.5 -52s31.833 -21 52.5 -21c15.333 0 31.666 5.83301 48.999 17.5s32 28.167 44 49.5s18 45 18 71v108z" />
    <glyph glyph-name="ccedilla" unicode="&#xe7;" horiz-adv-x="503" 
d="M147.5 19.5c-36.333 21 -65.334 50.5 -87.001 88.5s-32.5 82 -32.5 132c0 53.333 12.333 99.833 37 139.5s57.334 70 98.001 91s84.667 31.5 132 31.5c58 0 108 -15 150 -45v-128h-17l-28 78c-17.333 24 -34.333 41.667 -51 53s-36 17 -58 17
c-31.333 0 -60.166 -9 -86.499 -27s-47.166 -43 -62.499 -75s-23 -68 -23 -108c0 -43.333 8.16699 -81 24.5 -113s38.666 -56.5 66.999 -73.5s60.166 -25.5 95.499 -25.5c30 0 59.167 7.83301 87.5 23.5s51.5 38.5 69.5 68.5l13 -8c-16.667 -44 -43.667 -80.167 -81 -108.5
s-80.333 -42.5 -129 -42.5c-42.667 0 -82.167 10.5 -118.5 31.5zM326.999 -77.5c14.667 -11 21.999 -28.5 21.999 -52.5c0 -24.667 -8.5 -44.5 -25.5 -59.5s-36.167 -22.5 -57.5 -22.5c-18 0 -34.5 5.16699 -49.5 15.5s-25.5 24.833 -31.5 43.5l12 8
c13.333 -26.667 33 -40 59 -40c12.667 0 23.5 5 32.5 15s13.5 22.667 13.5 38c0 13.333 -4.5 24.5 -13.5 33.5s-19.5 13.5 -31.5 13.5c-6.66699 0 -12.667 -2 -18 -6s-10.333 -8.5 -15 -13.5s-7.66699 -8.5 -9 -10.5l-11 10l63 134h68l-86 -96c10 4 20.333 6 31 6
c16.667 0 32.334 -5.5 47.001 -16.5z" />
    <glyph glyph-name="egrave" unicode="&#xe8;" horiz-adv-x="513" 
d="M484 135c-21.333 -44 -50.166 -79.498 -86.499 -106.498s-79.833 -40.5 -130.5 -40.5c-42.667 0 -82.167 10.667 -118.5 32s-65.5 51.666 -87.5 90.999s-33 84.333 -33 135c0 48 11.333 91.667 34 131s52.834 70 90.501 92s77.5 33 119.5 33
c53.333 0 97.666 -12.833 132.999 -38.5s59 -60.834 71 -105.501c4 -18 6 -38 6 -60h-358c-1.33301 -16 -2 -28.667 -2 -38c0 -39.333 7.83301 -75 23.5 -107s37.167 -57.167 64.5 -75.5s57.666 -27.5 90.999 -27.5c70.667 0 126.667 31.667 168 95zM184.5 435.002
c-27 -28 -45.5 -64.667 -55.5 -110h236c11.333 0 17 6 17 18c0 39.333 -10.167 71.5 -30.5 96.5s-46.833 37.5 -79.5 37.5c-31.333 0 -60.5 -14 -87.5 -42zM264 550.002l-150 147v16h95l69 -154z" />
    <glyph glyph-name="eacute" unicode="&#xe9;" horiz-adv-x="513" 
d="M484 135c-21.333 -44 -50.166 -79.498 -86.499 -106.498s-79.833 -40.5 -130.5 -40.5c-42.667 0 -82.167 10.667 -118.5 32s-65.5 51.666 -87.5 90.999s-33 84.333 -33 135c0 48 11.333 91.667 34 131s52.834 70 90.501 92s77.5 33 119.5 33
c53.333 0 97.666 -12.833 132.999 -38.5s59 -60.834 71 -105.501c4 -18 6 -38 6 -60h-358c-1.33301 -16 -2 -28.667 -2 -38c0 -39.333 7.83301 -75 23.5 -107s37.167 -57.167 64.5 -75.5s57.666 -27.5 90.999 -27.5c70.667 0 126.667 31.667 168 95zM184.5 435.002
c-27 -28 -45.5 -64.667 -55.5 -110h236c11.333 0 17 6 17 18c0 39.333 -10.167 71.5 -30.5 96.5s-46.833 37.5 -79.5 37.5c-31.333 0 -60.5 -14 -87.5 -42zM335 713.002h95v-16l-150 -147l-14 8z" />
    <glyph glyph-name="ecircumflex" unicode="&#xea;" horiz-adv-x="513" 
d="M484 135c-21.333 -44 -50.166 -79.498 -86.499 -106.498s-79.833 -40.5 -130.5 -40.5c-42.667 0 -82.167 10.667 -118.5 32s-65.5 51.666 -87.5 90.999s-33 84.333 -33 135c0 48 11.333 91.667 34 131s52.834 70 90.501 92s77.5 33 119.5 33
c53.333 0 97.666 -12.833 132.999 -38.5s59 -60.834 71 -105.501c4 -18 6 -38 6 -60h-358c-1.33301 -16 -2 -28.667 -2 -38c0 -39.333 7.83301 -75 23.5 -107s37.167 -57.167 64.5 -75.5s57.666 -27.5 90.999 -27.5c70.667 0 126.667 31.667 168 95zM184.5 435.002
c-27 -28 -45.5 -64.667 -55.5 -110h236c11.333 0 17 6 17 18c0 39.333 -10.167 71.5 -30.5 96.5s-46.833 37.5 -79.5 37.5c-31.333 0 -60.5 -14 -87.5 -42zM265 714.002h14l143 -146l-10 -10l-140 74l-141 -74l-10 10z" />
    <glyph glyph-name="edieresis" unicode="&#xeb;" horiz-adv-x="513" 
d="M484 135c-21.333 -44 -50.166 -79.498 -86.499 -106.498s-79.833 -40.5 -130.5 -40.5c-42.667 0 -82.167 10.667 -118.5 32s-65.5 51.666 -87.5 90.999s-33 84.333 -33 135c0 48 11.333 91.667 34 131s52.834 70 90.501 92s77.5 33 119.5 33
c53.333 0 97.666 -12.833 132.999 -38.5s59 -60.834 71 -105.501c4 -18 6 -38 6 -60h-358c-1.33301 -16 -2 -28.667 -2 -38c0 -39.333 7.83301 -75 23.5 -107s37.167 -57.167 64.5 -75.5s57.666 -27.5 90.999 -27.5c70.667 0 126.667 31.667 168 95zM184.5 435.002
c-27 -28 -45.5 -64.667 -55.5 -110h236c11.333 0 17 6 17 18c0 39.333 -10.167 71.5 -30.5 96.5s-46.833 37.5 -79.5 37.5c-31.333 0 -60.5 -14 -87.5 -42zM133 593.002c-10.667 10.667 -16 23.334 -16 38.001c0 15.333 5.33301 28.333 16 39s23.334 16 38.001 16
s27.334 -5.33301 38.001 -16s16 -23.667 16 -39c0 -14.667 -5.33301 -27.334 -16 -38.001s-23.334 -16 -38.001 -16s-27.334 5.33301 -38.001 16zM334 593.002c-10.667 10.667 -16 23.334 -16 38.001s5.33301 27.5 16 38.5s23.334 16.5 38.001 16.5
s27.334 -5.33301 38.001 -16s16 -23.667 16 -39c0 -14.667 -5.33301 -27.334 -16 -38.001s-23.334 -16 -38.001 -16s-27.334 5.33301 -38.001 16z" />
    <glyph glyph-name="igrave" unicode="&#xec;" horiz-adv-x="288" 
d="M266 15v-15h-243v15l54 11l22 22v354l-22 19l-51 7v13l164 56v-449l22 -22zM137 551l-150 147v16h95l69 -154z" />
    <glyph glyph-name="iacute" unicode="&#xed;" horiz-adv-x="288" 
d="M266 15v-15h-243v15l54 11l22 22v354l-22 19l-51 7v13l164 56v-449l22 -22zM208 714h95v-16l-150 -147l-14 8z" />
    <glyph glyph-name="icircumflex" unicode="&#xee;" horiz-adv-x="288" 
d="M266 15v-15h-243v15l54 11l22 22v354l-22 19l-51 7v13l164 56v-449l22 -22zM138 715h14l143 -146l-10 -10l-140 74l-141 -74l-10 10z" />
    <glyph glyph-name="idieresis" unicode="&#xef;" horiz-adv-x="288" 
d="M266 15v-15h-243v15l54 11l22 22v354l-22 19l-51 7v13l164 56v-449l22 -22zM6 594c-10.667 10.667 -16 23.334 -16 38.001c0 15.333 5.33301 28.333 16 39s23.334 16 38.001 16s27.334 -5.33301 38.001 -16s16 -23.667 16 -39c0 -14.667 -5.33301 -27.334 -16 -38.001
s-23.334 -16 -38.001 -16s-27.334 5.33301 -38.001 16zM207 594c-10.667 10.667 -16 23.334 -16 38.001s5.33301 27.5 16 38.5s23.334 16.5 38.001 16.5s27.334 -5.33301 38.001 -16s16 -23.667 16 -39c0 -14.667 -5.33301 -27.334 -16 -38.001s-23.334 -16 -38.001 -16
s-27.334 5.33301 -38.001 16z" />
    <glyph glyph-name="eth" unicode="&#xf0;" horiz-adv-x="535" 
d="M449.5 498c35 -59.333 52.4971 -132.667 52.4971 -220c0 -98.667 -22.667 -171.667 -68 -219s-104.333 -71 -177 -71c-41.333 0 -79.5 9.33301 -114.5 28s-62.833 46 -83.5 82s-31 79 -31 129c0 51.333 9.83301 95 29.5 131s46.334 63.167 80.001 81.5
s71.5 27.5 113.5 27.5c27.333 0 53.333 -3.83301 78 -11.5s44.334 -17.5 59.001 -29.5c-8.66699 30 -23.167 60.333 -43.5 91s-44.5 59 -72.5 85l-69 -69l-20 21l67 67c-39.333 32.667 -80.666 57 -123.999 73l8 18c56.667 -12 107 -30.667 151 -56l74 74l20 -21l-68 -68
c57.333 -36 103.5 -83.667 138.5 -143zM332.997 37.499c22 15 39.332 37.168 51.999 66.501s19 64.333 19 105c0 68 -12.5 122.667 -37.5 164s-58.167 62 -99.5 62c-27.333 0 -51.666 -9 -72.999 -27s-38.166 -43.333 -50.499 -76s-18.5 -70.334 -18.5 -113.001
c0 -43.333 6.16699 -80.5 18.5 -111.5s28.666 -54.167 48.999 -69.5s42.833 -23 67.5 -23c26.667 0 51 7.5 73 22.5z" />
    <glyph glyph-name="ntilde" unicode="&#xf1;" horiz-adv-x="632" 
d="M610 15l0.000976562 -15h-244v15l54 11l22 22v271c0 37.333 -7.5 66.5 -22.5 87.5s-37.5 31.5 -67.5 31.5c-27.333 0 -56.833 -12 -88.5 -36s-56.167 -54.333 -73.5 -91v-263l22 -22l54 -11v-15h-243v15l54 11l22 22v354l-22 19l-51 7v13l164 56v-146
c19.333 44 48.166 80.167 86.499 108.5s76.166 42.5 113.499 42.5c44.667 0 79.834 -15 105.501 -45s38.5 -71.333 38.5 -124v-285l22 -22zM314.501 570c-11 6 -22.8311 14.666 -35.498 25.999c-10 9.33301 -19.167 16.5 -27.5 21.5s-18.166 7.5 -29.499 7.5
c-12.667 0 -25.167 -4.66699 -37.5 -14s-23.5 -22.666 -33.5 -39.999l-14 5c8.66699 35.333 21.667 62.333 39 81s38.666 28 63.999 28c16.667 0 30.5 -3 41.5 -9s22.833 -14.667 35.5 -26c10.667 -9.33301 20 -16.333 28 -21s17.667 -7 29 -7
c13.333 0 25.666 4.66699 36.999 14s22.666 22.333 33.999 39l15 -5c-8.66699 -35.333 -21.667 -62.333 -39 -81s-39 -28 -65 -28c-16.667 0 -30.5 3 -41.5 9z" />
    <glyph glyph-name="ograve" unicode="&#xf2;" horiz-adv-x="571" 
d="M153.5 21.5c-39 22.333 -69.667 53 -92 92s-33.5 82.833 -33.5 131.5s11.167 92.5 33.5 131.5s53 69.667 92 92s82.833 33.5 131.5 33.5s92.667 -11.167 132 -33.5s70.166 -53 92.499 -92s33.5 -82.833 33.5 -131.5s-11.167 -92.5 -33.5 -131.5
s-53.166 -69.667 -92.499 -92s-83.333 -33.5 -132 -33.5s-92.5 11.167 -131.5 33.5zM364.5 43.5c23.667 19 42.167 45.833 55.5 80.5s20 75 20 121s-6.66699 86.333 -20 121s-31.833 61.5 -55.5 80.5s-50.167 28.5 -79.5 28.5s-55.666 -9.5 -78.999 -28.5
s-41.666 -45.833 -54.999 -80.5s-20 -75 -20 -121s6.66699 -86.333 20 -121s31.666 -61.5 54.999 -80.5s49.666 -28.5 78.999 -28.5s55.833 9.5 79.5 28.5zM277 550l-150 147v16h95l69 -154z" />
    <glyph glyph-name="oacute" unicode="&#xf3;" horiz-adv-x="571" 
d="M153.5 21.5c-39 22.333 -69.667 53 -92 92s-33.5 82.833 -33.5 131.5s11.167 92.5 33.5 131.5s53 69.667 92 92s82.833 33.5 131.5 33.5s92.667 -11.167 132 -33.5s70.166 -53 92.499 -92s33.5 -82.833 33.5 -131.5s-11.167 -92.5 -33.5 -131.5
s-53.166 -69.667 -92.499 -92s-83.333 -33.5 -132 -33.5s-92.5 11.167 -131.5 33.5zM364.5 43.5c23.667 19 42.167 45.833 55.5 80.5s20 75 20 121s-6.66699 86.333 -20 121s-31.833 61.5 -55.5 80.5s-50.167 28.5 -79.5 28.5s-55.666 -9.5 -78.999 -28.5
s-41.666 -45.833 -54.999 -80.5s-20 -75 -20 -121s6.66699 -86.333 20 -121s31.666 -61.5 54.999 -80.5s49.666 -28.5 78.999 -28.5s55.833 9.5 79.5 28.5zM348 713h95v-16l-150 -147l-14 8z" />
    <glyph glyph-name="ocircumflex" unicode="&#xf4;" horiz-adv-x="571" 
d="M153.5 21.5c-39 22.333 -69.667 53 -92 92s-33.5 82.833 -33.5 131.5s11.167 92.5 33.5 131.5s53 69.667 92 92s82.833 33.5 131.5 33.5s92.667 -11.167 132 -33.5s70.166 -53 92.499 -92s33.5 -82.833 33.5 -131.5s-11.167 -92.5 -33.5 -131.5
s-53.166 -69.667 -92.499 -92s-83.333 -33.5 -132 -33.5s-92.5 11.167 -131.5 33.5zM364.5 43.5c23.667 19 42.167 45.833 55.5 80.5s20 75 20 121s-6.66699 86.333 -20 121s-31.833 61.5 -55.5 80.5s-50.167 28.5 -79.5 28.5s-55.666 -9.5 -78.999 -28.5
s-41.666 -45.833 -54.999 -80.5s-20 -75 -20 -121s6.66699 -86.333 20 -121s31.666 -61.5 54.999 -80.5s49.666 -28.5 78.999 -28.5s55.833 9.5 79.5 28.5zM278 714h14l143 -146l-10 -10l-140 74l-141 -74l-10 10z" />
    <glyph glyph-name="otilde" unicode="&#xf5;" horiz-adv-x="571" 
d="M153.5 21.5c-39 22.333 -69.667 53 -92 92s-33.5 82.833 -33.5 131.5s11.167 92.5 33.5 131.5s53 69.667 92 92s82.833 33.5 131.5 33.5s92.667 -11.167 132 -33.5s70.166 -53 92.499 -92s33.5 -82.833 33.5 -131.5s-11.167 -92.5 -33.5 -131.5
s-53.166 -69.667 -92.499 -92s-83.333 -33.5 -132 -33.5s-92.5 11.167 -131.5 33.5zM364.5 43.5c23.667 19 42.167 45.833 55.5 80.5s20 75 20 121s-6.66699 86.333 -20 121s-31.833 61.5 -55.5 80.5s-50.167 28.5 -79.5 28.5s-55.666 -9.5 -78.999 -28.5
s-41.666 -45.833 -54.999 -80.5s-20 -75 -20 -121s6.66699 -86.333 20 -121s31.666 -61.5 54.999 -80.5s49.666 -28.5 78.999 -28.5s55.833 9.5 79.5 28.5zM301.5 569c-11 6 -22.8311 14.666 -35.498 25.999c-10 9.33301 -19.167 16.5 -27.5 21.5s-18.166 7.5 -29.499 7.5
c-12.667 0 -25.167 -4.66699 -37.5 -14s-23.5 -22.666 -33.5 -39.999l-14 5c8.66699 35.333 21.667 62.333 39 81s38.666 28 63.999 28c16.667 0 30.5 -3 41.5 -9s22.833 -14.667 35.5 -26c10.667 -9.33301 20 -16.333 28 -21s17.667 -7 29 -7
c13.333 0 25.666 4.66699 36.999 14s22.666 22.333 33.999 39l15 -5c-8.66699 -35.333 -21.667 -62.333 -39 -81s-39 -28 -65 -28c-16.667 0 -30.5 3 -41.5 9z" />
    <glyph glyph-name="odieresis" unicode="&#xf6;" horiz-adv-x="571" 
d="M153.5 21.5c-39 22.333 -69.667 53 -92 92s-33.5 82.833 -33.5 131.5s11.167 92.5 33.5 131.5s53 69.667 92 92s82.833 33.5 131.5 33.5s92.667 -11.167 132 -33.5s70.166 -53 92.499 -92s33.5 -82.833 33.5 -131.5s-11.167 -92.5 -33.5 -131.5
s-53.166 -69.667 -92.499 -92s-83.333 -33.5 -132 -33.5s-92.5 11.167 -131.5 33.5zM364.5 43.5c23.667 19 42.167 45.833 55.5 80.5s20 75 20 121s-6.66699 86.333 -20 121s-31.833 61.5 -55.5 80.5s-50.167 28.5 -79.5 28.5s-55.666 -9.5 -78.999 -28.5
s-41.666 -45.833 -54.999 -80.5s-20 -75 -20 -121s6.66699 -86.333 20 -121s31.666 -61.5 54.999 -80.5s49.666 -28.5 78.999 -28.5s55.833 9.5 79.5 28.5zM146 593c-10.667 10.667 -16 23.334 -16 38.001c0 15.333 5.33301 28.333 16 39s23.334 16 38.001 16
s27.334 -5.33301 38.001 -16s16 -23.667 16 -39c0 -14.667 -5.33301 -27.334 -16 -38.001s-23.334 -16 -38.001 -16s-27.334 5.33301 -38.001 16zM347 593c-10.667 10.667 -16 23.334 -16 38.001s5.33301 27.5 16 38.5s23.334 16.5 38.001 16.5s27.334 -5.33301 38.001 -16
s16 -23.667 16 -39c0 -14.667 -5.33301 -27.334 -16 -38.001s-23.334 -16 -38.001 -16s-27.334 5.33301 -38.001 16z" />
    <glyph glyph-name="divide" unicode="&#xf7;" horiz-adv-x="518" 
d="M219 439.5c-10.667 11 -16 24.5 -16 40.5c0 15.333 5.33301 28.333 16 39s24 16 40 16c15.333 0 28.5 -5.5 39.5 -16.5s16.5 -24.167 16.5 -39.5c0 -16 -5.5 -29.333 -16.5 -40s-24.167 -16 -39.5 -16c-16 0 -29.333 5.5 -40 16.5zM40 317h438v-34h-438v34zM219 81.5
c-10.667 11 -16 24.167 -16 39.5s5.33301 28.5 16 39.5s24 16.5 40 16.5c15.333 0 28.5 -5.5 39.5 -16.5s16.5 -24.167 16.5 -39.5s-5.5 -28.5 -16.5 -39.5s-24.167 -16.5 -39.5 -16.5c-16 0 -29.333 5.5 -40 16.5z" />
    <glyph glyph-name="oslash" unicode="&#xf8;" horiz-adv-x="571" 
d="M506.5 381.5c24.333 -40.333 36.499 -85.833 36.499 -136.5c0 -48.667 -11.167 -92.5 -33.5 -131.5s-53.166 -69.667 -92.499 -92s-83.333 -33.5 -132 -33.5c-30 0 -59 4.66699 -87 14l-31 -69h-40l37 83c-42 21.333 -75.167 52.166 -99.5 92.499
s-36.5 85.833 -36.5 136.5c0 48.667 11.167 92.5 33.5 131.5s53 69.667 92 92s82.833 33.5 131.5 33.5c30 0 59.667 -4.66699 89 -14l30 68h40l-37 -82c42 -21.333 75.167 -52.166 99.5 -92.499zM145.499 141.5c9.66699 -31 22.8311 -56.833 39.498 -77.5l173 388
c-22.667 15.333 -47 23 -73 23c-29.333 0 -55.666 -9.5 -78.999 -28.5s-41.666 -45.833 -54.999 -80.5s-20 -75 -20 -121c0 -38 4.83301 -72.5 14.5 -103.5zM364.496 43.5c23.667 19 42.168 45.833 55.501 80.5s20 75 20 121c0 38 -4.83301 72.5 -14.5 103.5
s-22.834 56.5 -39.501 76.5l-172 -387c21.333 -15.333 45 -23 71 -23c29.333 0 55.833 9.5 79.5 28.5z" />
    <glyph glyph-name="ugrave" unicode="&#xf9;" horiz-adv-x="630" 
d="M606 15v-15h-167v138c-18.667 -44.667 -46.334 -80.834 -83.001 -108.501s-74.667 -41.5 -114 -41.5c-46 0 -82 15 -108 45s-39 71.333 -39 124v245l-22 19l-51 7v13l164 56v-326c0 -37.333 7.66699 -66.666 23 -87.999s38 -32 68 -32c26.667 0 55.834 12 87.501 36
s56.5 54 74.5 90v225l-22 19l-51 7v13l164 56v-449l22 -22zM304 550l-150 147v16h95l69 -154z" />
    <glyph glyph-name="uacute" unicode="&#xfa;" horiz-adv-x="630" 
d="M606 15v-15h-167v138c-18.667 -44.667 -46.334 -80.834 -83.001 -108.501s-74.667 -41.5 -114 -41.5c-46 0 -82 15 -108 45s-39 71.333 -39 124v245l-22 19l-51 7v13l164 56v-326c0 -37.333 7.66699 -66.666 23 -87.999s38 -32 68 -32c26.667 0 55.834 12 87.501 36
s56.5 54 74.5 90v225l-22 19l-51 7v13l164 56v-449l22 -22zM375 713h95v-16l-150 -147l-14 8z" />
    <glyph glyph-name="ucircumflex" unicode="&#xfb;" horiz-adv-x="630" 
d="M606 15v-15h-167v138c-18.667 -44.667 -46.334 -80.834 -83.001 -108.501s-74.667 -41.5 -114 -41.5c-46 0 -82 15 -108 45s-39 71.333 -39 124v245l-22 19l-51 7v13l164 56v-326c0 -37.333 7.66699 -66.666 23 -87.999s38 -32 68 -32c26.667 0 55.834 12 87.501 36
s56.5 54 74.5 90v225l-22 19l-51 7v13l164 56v-449l22 -22zM305 714h14l143 -146l-10 -10l-140 74l-141 -74l-10 10z" />
    <glyph glyph-name="udieresis" unicode="&#xfc;" horiz-adv-x="630" 
d="M606 15v-15h-167v138c-18.667 -44.667 -46.334 -80.834 -83.001 -108.501s-74.667 -41.5 -114 -41.5c-46 0 -82 15 -108 45s-39 71.333 -39 124v245l-22 19l-51 7v13l164 56v-326c0 -37.333 7.66699 -66.666 23 -87.999s38 -32 68 -32c26.667 0 55.834 12 87.501 36
s56.5 54 74.5 90v225l-22 19l-51 7v13l164 56v-449l22 -22zM173 593c-10.667 10.667 -16 23.334 -16 38.001c0 15.333 5.33301 28.333 16 39s23.334 16 38.001 16s27.334 -5.33301 38.001 -16s16 -23.667 16 -39c0 -14.667 -5.33301 -27.334 -16 -38.001
s-23.334 -16 -38.001 -16s-27.334 5.33301 -38.001 16zM374 593c-10.667 10.667 -16 23.334 -16 38.001s5.33301 27.5 16 38.5s23.334 16.5 38.001 16.5s27.334 -5.33301 38.001 -16s16 -23.667 16 -39c0 -14.667 -5.33301 -27.334 -16 -38.001s-23.334 -16 -38.001 -16
s-27.334 5.33301 -38.001 16z" />
    <glyph glyph-name="yacute" unicode="&#xfd;" 
d="M589 475l-54 -11l-22 -22l-287 -619l-26 -23h-135v19l58 21l117 106l42 77l-195 419l-22 22l-54 11v15h249v-15l-54 -11l-22 -22l147 -319l146 319l-22 22l-54 11v15h188v-15zM393 713h95v-16l-150 -147l-14 8z" />
    <glyph glyph-name="thorn" unicode="&#xfe;" horiz-adv-x="583" 
d="M455.5 469c32.333 -22 57.001 -52.668 74.001 -92.001s25.5 -84 25.5 -134c0 -55.333 -10 -102.166 -30 -140.499s-47 -67 -81 -86s-71.667 -28.5 -113 -28.5c-56.667 0 -103.667 18 -141 54v-194l22 -22l54 -11v-15h-243v15l54 11l22 22v798l-23 20l-51 7v13l164 56
l-1 -1l2 1v-308c19.333 20.667 42.166 37.167 68.499 49.5s53.5 18.5 81.5 18.5c44.667 0 83.167 -11 115.5 -33zM386.501 46.499c21 17 37.667 42.168 50 75.501s18.5 73.666 18.5 120.999c0 68 -12 122.5 -36 163.5s-58 61.5 -102 61.5
c-17.333 0 -35.833 -5.33301 -55.5 -16s-36.5 -28.5 -50.5 -53.5s-21 -57.167 -21 -96.5v-210c14.667 -24.667 33 -42.667 55 -54s45.667 -17 71 -17c26 0 49.5 8.5 70.5 25.5z" />
    <glyph glyph-name="ydieresis" unicode="&#xff;" 
d="M589 475l-54 -11l-22 -22l-287 -619l-26 -23h-135v19l58 21l117 106l42 77l-195 419l-22 22l-54 11v15h249v-15l-54 -11l-22 -22l147 -319l146 319l-22 22l-54 11v15h188v-15zM191 593c-10.667 10.667 -16 23.334 -16 38.001c0 15.333 5.33301 28.333 16 39
s23.334 16 38.001 16s27.334 -5.33301 38.001 -16s16 -23.667 16 -39c0 -14.667 -5.33301 -27.334 -16 -38.001s-23.334 -16 -38.001 -16s-27.334 5.33301 -38.001 16zM392 593c-10.667 10.667 -16 23.334 -16 38.001s5.33301 27.5 16 38.5s23.334 16.5 38.001 16.5
s27.334 -5.33301 38.001 -16s16 -23.667 16 -39c0 -14.667 -5.33301 -27.334 -16 -38.001s-23.334 -16 -38.001 -16s-27.334 5.33301 -38.001 16z" />
    <glyph glyph-name="dotlessi" unicode="&#x131;" horiz-adv-x="288" 
d="M266 15v-15h-243v15l54 11l22 22v354l-22 19l-51 7v13l164 56v-449l22 -22z" />
    <glyph glyph-name="Lslash" unicode="&#x141;" horiz-adv-x="617" 
d="M597 231l-58 -231h-510v15l61 12l25 25v249l-95 -55v38l95 55v310l-24 24l-62 12v15h267v-15l-61 -12l-25 -25v-254l200 115v-38l-200 -115v-325h238l134 207z" />
    <glyph glyph-name="lslash" unicode="&#x142;" horiz-adv-x="289" 
d="M190 48l22 -22l54 -11v-15h-243v15l54 11l22 22v278l-91 -53v39l91 53v282l-22 19l-51 7v13l164 56v-325l90 52v-38l-90 -52v-331z" />
    <glyph glyph-name="OE" unicode="&#x152;" horiz-adv-x="992" 
d="M965 211l-39 -211h-532c-68.667 0 -130.5 15 -185.5 45s-98.167 71.5 -129.5 124.5s-47 113.167 -47 180.5s15.667 127.5 47 180.5s74.5 94.5 129.5 124.5s116.833 45 185.5 45h535v-190h-17l-64 159h-258v-294h133l45 116h16v-264h-16l-46 117h-132v-313h255l105 186z
M487 44l8 8v596c-32 16.667 -65.667 25 -101 25c-48.667 0 -93.334 -14.5 -134.001 -43.5s-72.834 -68.167 -96.501 -117.5s-35.5 -103.333 -35.5 -162s11.833 -112.667 35.5 -162s55.834 -88.5 96.501 -117.5s85.334 -43.5 134.001 -43.5c38.667 0 69.667 5.66699 93 17z
" />
    <glyph glyph-name="oe" unicode="&#x153;" horiz-adv-x="934" 
d="M905 135c-21.333 -44 -49.998 -79.501 -85.998 -106.501s-79.667 -40.5 -131 -40.5c-38.667 0 -75 9 -109 27s-62.333 43 -85 75c-23.333 -32 -53 -57 -89 -75s-76 -27 -120 -27c-48.667 0 -92.5 11.167 -131.5 33.5s-69.667 53 -92 92s-33.5 82.833 -33.5 131.5
s11.167 92.5 33.5 131.5s53 69.667 92 92s82.833 33.5 131.5 33.5c44.667 0 85.167 -9.16699 121.5 -27.5s66.166 -44.166 89.499 -77.499c23.333 32.667 52.333 58.334 87 77.001s71.334 28 110.001 28c53.333 0 97.666 -12.833 132.999 -38.5s59 -60.834 71 -105.501
c4 -18 6 -38 6 -60h-358c-1.33301 -16 -2 -28.667 -2 -38c0 -39.333 7.83301 -75 23.5 -107s37.167 -57.167 64.5 -75.5s57.666 -27.5 90.999 -27.5c70.667 0 126.667 31.667 168 95zM605.502 434.999c-27 -28 -45.5 -64.667 -55.5 -110h236c11.333 0 17 6 17 18
c0 39.333 -10.167 71.5 -30.5 96.5s-46.833 37.5 -79.5 37.5c-31.333 0 -60.5 -14 -87.5 -42zM364.502 43.499c23.667 19 42.167 45.833 55.5 80.5s20 75 20 121s-6.66699 86.333 -20 121s-31.833 61.5 -55.5 80.5s-50.167 28.5 -79.5 28.5s-55.666 -9.5 -78.999 -28.5
s-41.666 -45.833 -54.999 -80.5s-20 -75 -20 -121s6.66699 -86.333 20 -121s31.666 -61.5 54.999 -80.5s49.666 -28.5 78.999 -28.5s55.833 9.5 79.5 28.5z" />
    <glyph glyph-name="Scaron" unicode="&#x160;" horiz-adv-x="494" 
d="M42 59l0.00292969 206.002h20l51 -167c17.333 -27.333 38.166 -47.833 62.499 -61.5s48.5 -20.5 72.5 -20.5c38 0 69.5 12.333 94.5 37s37.5 58.667 37.5 102c0 31.333 -12 60.833 -36 88.5s-59.667 50.5 -107 68.5c-66 25.333 -115.833 55.666 -149.5 90.999
s-50.5 79 -50.5 131c0 36 9.16699 67.5 27.5 94.5s43 47.667 74 62s65.167 21.5 102.5 21.5c64.667 0 124.667 -16.333 180 -49v-178h-18l-44 131c-15.333 22.667 -32 39.667 -50 51s-41 17 -69 17c-20 0 -39.667 -4.83301 -59 -14.5s-35 -23.334 -47 -41.001
s-18 -38.167 -18 -61.5c0 -66 43 -115.667 129 -149c54 -20.667 96.667 -41.334 128 -62.001s54.666 -44.667 69.999 -72s23 -60.666 23 -99.999c0 -36 -8.83301 -69 -26.5 -99s-43.334 -53.667 -77.001 -71s-73.5 -26 -119.5 -26c-67.333 0 -134.333 23.667 -201 71z
M86.0029 914.002l10 11l141 -75l140 75l10 -11l-143 -146h-14z" />
    <glyph glyph-name="scaron" unicode="&#x161;" horiz-adv-x="422" 
d="M127.5 -0.5c-27 7.66699 -55.1621 19.1689 -84.4951 34.502l-4 145h17l40 -99c17.333 -22.667 35.666 -39.334 54.999 -50.001s40.666 -16 63.999 -16c27.333 0 49.833 8.83301 67.5 26.5s26.5 38.167 26.5 61.5c0 27.333 -8.83301 49.5 -26.5 66.5
s-47.834 30.833 -90.501 41.5c-52.667 12.667 -92.334 31 -119.001 55s-40 55.333 -40 94c0 44.667 16.333 79.667 49 105s72 38 118 38c56.667 0 107 -13 151 -39v-135h-16l-36 88c-27.333 40 -60 60 -98 60c-27.333 0 -49.166 -8.5 -65.499 -25.5s-24.5 -37.5 -24.5 -61.5
s8.66699 -42.833 26 -56.5s46.666 -24.834 87.999 -33.501c58.667 -12.667 101.167 -31.167 127.5 -55.5s39.5 -58.833 39.5 -103.5c0 -47.333 -16.833 -84.5 -50.5 -111.5s-75.834 -40.5 -126.501 -40.5c-31.333 0 -60.5 3.83301 -87.5 11.5zM49.0049 704.002l10 11
l141 -75l140 75l10 -11l-143 -146h-14z" />
    <glyph glyph-name="Ydieresis" unicode="&#x178;" horiz-adv-x="738" 
d="M727 685l-61 -12l-25 -25l-224 -376v-221l24 -24l62 -12v-15h-268v15l61 12l25 25v218l-225 379l-24 24l-62 12v15h281v-15l-61 -12l-25 -25l195 -340l197 341l-24 24l-62 12v15h216v-15zM265 790c-10.667 10.667 -16 23.334 -16 38.001c0 15.333 5.33301 28.333 16 39
s23.334 16 38.001 16s27.334 -5.33301 38.001 -16s16 -23.667 16 -39c0 -14.667 -5.33301 -27.334 -16 -38.001s-23.334 -16 -38.001 -16s-27.334 5.33301 -38.001 16zM466 790c-10.667 10.667 -16 23.334 -16 38.001s5.33301 27.5 16 38.5s23.334 16.5 38.001 16.5
s27.334 -5.33301 38.001 -16s16 -23.667 16 -39c0 -14.667 -5.33301 -27.334 -16 -38.001s-23.334 -16 -38.001 -16s-27.334 5.33301 -38.001 16z" />
    <glyph glyph-name="Zcaron" unicode="&#x17d;" horiz-adv-x="624" 
d="M33 26l402 643h-262l-112 -197l-20 4l44 224h467v-26l-400 -643h294l124 217l23 -10l-56 -238h-504v26zM161 914l10 11l141 -75l140 75l10 -11l-143 -146h-14z" />
    <glyph glyph-name="zcaron" unicode="&#x17e;" horiz-adv-x="498" 
d="M475 158l-51 -158h-382v22l281 439h-179l-103 -140l-16 3l42 166h369v-23l-280 -438h192l115 138zM94 705l10 11l141 -75l140 75l10 -11l-143 -146h-14z" />
    <glyph glyph-name="florin" unicode="&#x192;" horiz-adv-x="529" 
d="M529 711l-0.000976562 -96h-15l-21 51c-2.66699 3.33301 -8.66699 11.333 -18 24c-10 12 -20.5 21.167 -31.5 27.5s-22.833 9.5 -35.5 9.5c-22.667 0 -42.334 -12 -59.001 -36s-25 -57 -25 -99v-102h112v-30h-112v-486c0 -59.333 -16.667 -105.166 -50 -137.499
s-75.666 -48.5 -126.999 -48.5c-46 0 -85.667 12.333 -119 37v96h14l21 -51l20 -24c10 -12 20.333 -21.167 31 -27.5s22.334 -9.5 35.001 -9.5c22.667 0 42.334 12 59.001 36s25 57 25 99v516h-70v30h70v72c0 59.333 16.667 105.166 50 137.499s75.666 48.5 126.999 48.5
c46 0 85.667 -12.333 119 -37z" />
    <glyph glyph-name="circumflex" unicode="&#x2c6;" horiz-adv-x="401" 
d="M194 714h14l143 -146l-10 -10l-140 74l-141 -74l-10 10z" />
    <glyph glyph-name="caron" unicode="&#x2c7;" horiz-adv-x="401" 
d="M50 704l10 11l141 -75l140 75l10 -11l-143 -146h-14z" />
    <glyph glyph-name="uni02C9" unicode="&#x2c9;" horiz-adv-x="353" 
d="M303 670v-32h-253v32h253z" />
    <glyph glyph-name="breve" unicode="&#x2d8;" horiz-adv-x="372" 
d="M89.5 591.5c-26.333 19.667 -39.501 45.5 -39.501 77.5c0 16 3.33301 33 10 51h14c0.666992 -29.333 11 -51.333 31 -66s47 -22 81 -22s60.833 7.33301 80.5 22s29.834 36.667 30.501 66h15c6.66699 -18 10 -35 10 -51c0 -31.333 -13.333 -57 -40 -77
s-58.667 -30 -96 -30c-38 0 -70.167 9.83301 -96.5 29.5z" />
    <glyph glyph-name="dotaccent" unicode="&#x2d9;" horiz-adv-x="204" 
d="M65 592.5c-10 10.333 -15 22.833 -15 37.5c0 14 5 26.167 15 36.5s22.333 15.5 37 15.5s27 -5.16699 37 -15.5s15 -22.5 15 -36.5c0 -14.667 -5 -27.167 -15 -37.5s-22.333 -15.5 -37 -15.5s-27 5.16699 -37 15.5z" />
    <glyph glyph-name="ring" unicode="&#x2da;" horiz-adv-x="262" 
d="M74 575.5c-16 16.333 -24 35.5 -24 57.5c0 22.667 8 41.834 24 57.501s35 23.5 57 23.5s41 -7.83301 57 -23.5s24 -34.834 24 -57.501c0 -22 -8 -41.167 -24 -57.5s-35 -24.5 -57 -24.5s-41 8.16699 -57 24.5zM166 597.5c10 10.333 15 22.166 15 35.499
c0 14 -5 25.833 -15 35.5s-21.667 14.5 -35 14.5s-25 -4.83301 -35 -14.5s-15 -21.5 -15 -35.5c0 -13.333 5 -25.166 15 -35.499s21.667 -15.5 35 -15.5s25 5.16699 35 15.5z" />
    <glyph glyph-name="ogonek" unicode="&#x2db;" horiz-adv-x="275" 
d="M78.5 -185c-19 18 -28.502 41.335 -28.502 70.002c0 27.333 10 52.166 30 74.499s49.667 39.166 89 50.499l16 -10c-23.333 -13.333 -41.166 -28.333 -53.499 -45s-18.5 -33.334 -18.5 -50.001c0 -15.333 4.5 -27.166 13.5 -35.499s21.167 -12.5 36.5 -12.5
c24 0 44.667 5.66699 62 17v-68c-21.333 -12 -45.666 -18 -72.999 -18c-30 0 -54.5 9 -73.5 27z" />
    <glyph glyph-name="tilde" unicode="&#x2dc;" horiz-adv-x="426" 
d="M227.5 569c-11 6 -22.8311 14.666 -35.498 25.999c-10 9.33301 -19.167 16.5 -27.5 21.5s-18.166 7.5 -29.499 7.5c-12.667 0 -25.167 -4.66699 -37.5 -14s-23.5 -22.666 -33.5 -39.999l-14 5c8.66699 35.333 21.667 62.333 39 81s38.666 28 63.999 28
c16.667 0 30.5 -3 41.5 -9s22.833 -14.667 35.5 -26c10.667 -9.33301 20 -16.333 28 -21s17.667 -7 29 -7c13.333 0 25.666 4.66699 36.999 14s22.666 22.333 33.999 39l15 -5c-8.66699 -35.333 -21.667 -62.333 -39 -81s-39 -28 -65 -28c-16.667 0 -30.5 3 -41.5 9z" />
    <glyph glyph-name="hungarumlaut" unicode="&#x2dd;" horiz-adv-x="455" 
d="M148 736h88v-16l-168 -165h-18zM316 736h89v-16l-169 -165h-18z" />
    <glyph glyph-name="gravecomb" unicode="&#x300;" horiz-adv-x="0" 
d="M-64 550l-150 147v16h95l69 -154z" />
    <glyph glyph-name="acutecomb" unicode="&#x301;" horiz-adv-x="0" 
d="M-145 713h95v-16l-150 -147l-14 8z" />
    <glyph glyph-name="uni0302" unicode="&#x302;" horiz-adv-x="0" 
d="M-207 714h14l143 -146l-10 -10l-140 74l-141 -74l-10 10z" />
    <glyph glyph-name="tildecomb" unicode="&#x303;" horiz-adv-x="0" 
d="M-199.5 569c-11 6 -22.8311 14.666 -35.498 25.999c-10 9.33301 -19.167 16.5 -27.5 21.5s-18.166 7.5 -29.499 7.5c-12.667 0 -25.167 -4.66699 -37.5 -14s-23.5 -22.666 -33.5 -39.999l-14 5c8.66699 35.333 21.667 62.333 39 81s38.666 28 63.999 28
c16.667 0 30.5 -3 41.5 -9s22.833 -14.667 35.5 -26c10.667 -9.33301 20 -16.333 28 -21s17.667 -7 29 -7c13.333 0 25.666 4.66699 36.999 14s22.666 22.333 33.999 39l15 -5c-8.66699 -35.333 -21.667 -62.333 -39 -81s-39 -28 -65 -28c-16.667 0 -30.5 3 -41.5 9z" />
    <glyph glyph-name="uni0304" unicode="&#x304;" horiz-adv-x="0" 
d="M-50 645v-35h-271v35h271z" />
    <glyph glyph-name="uni0306" unicode="&#x306;" horiz-adv-x="0" 
d="M-282.5 591.5c-26.333 19.667 -39.501 45.5 -39.501 77.5c0 16 3.33301 33 10 51h14c0.666992 -29.333 11 -51.333 31 -66s47 -22 81 -22s60.833 7.33301 80.5 22s29.834 36.667 30.501 66h15c6.66699 -18 10 -35 10 -51c0 -31.333 -13.333 -57 -40 -77
s-58.667 -30 -96 -30c-38 0 -70.167 9.83301 -96.5 29.5z" />
    <glyph glyph-name="uni0307" unicode="&#x307;" horiz-adv-x="0" 
d="M-139 592.5c-10 10.333 -15 22.833 -15 37.5c0 14 5 26.167 15 36.5s22.333 15.5 37 15.5s27 -5.16699 37 -15.5s15 -22.5 15 -36.5c0 -14.667 -5 -27.167 -15 -37.5s-22.333 -15.5 -37 -15.5s-27 5.16699 -37 15.5z" />
    <glyph glyph-name="uni0308" unicode="&#x308;" horiz-adv-x="0" 
d="M-343 593c-10.667 10.667 -16 23.334 -16 38.001c0 15.333 5.33301 28.333 16 39s23.334 16 38.001 16s27.334 -5.33301 38.001 -16s16 -23.667 16 -39c0 -14.667 -5.33301 -27.334 -16 -38.001s-23.334 -16 -38.001 -16s-27.334 5.33301 -38.001 16zM-142 593
c-10.667 10.667 -16 23.334 -16 38.001s5.33301 27.5 16 38.5s23.334 16.5 38.001 16.5s27.334 -5.33301 38.001 -16s16 -23.667 16 -39c0 -14.667 -5.33301 -27.334 -16 -38.001s-23.334 -16 -38.001 -16s-27.334 5.33301 -38.001 16z" />
    <glyph glyph-name="uni030A" unicode="&#x30a;" horiz-adv-x="0" 
d="M-188 574.5c-16 16.333 -24 35.5 -24 57.5c0 22.667 8 41.834 24 57.501s35 23.5 57 23.5s41 -7.83301 57 -23.5s24 -34.834 24 -57.501c0 -22 -8 -41.167 -24 -57.5s-35 -24.5 -57 -24.5s-41 8.16699 -57 24.5zM-96 596.5c10 10.333 15 22.166 15 35.499
c0 14 -5 25.833 -15 35.5s-21.667 14.5 -35 14.5s-25 -4.83301 -35 -14.5s-15 -21.5 -15 -35.5c0 -13.333 5 -25.166 15 -35.499s21.667 -15.5 35 -15.5s25 5.16699 35 15.5z" />
    <glyph glyph-name="uni030B" unicode="&#x30b;" horiz-adv-x="0" 
d="M-307 736h88v-16l-168 -165h-18zM-139 736h89v-16l-169 -165h-18z" />
    <glyph glyph-name="uni030C" unicode="&#x30c;" horiz-adv-x="0" 
d="M-351 704l10 11l141 -75l140 75l10 -11l-143 -146h-14z" />
    <glyph glyph-name="uni0327" unicode="&#x327;" horiz-adv-x="0" 
d="M-78 -77.5c14.667 -11 21.999 -28.5 21.999 -52.5c0 -24.667 -8.5 -44.5 -25.5 -59.5s-36.167 -22.5 -57.5 -22.5c-18 0 -34.5 5.16699 -49.5 15.5s-25.5 24.833 -31.5 43.5l12 8c13.333 -26.667 33 -40 59 -40c12.667 0 23.5 5 32.5 15s13.5 22.667 13.5 38
c0 13.333 -4.5 24.5 -13.5 33.5s-19.5 13.5 -31.5 13.5c-6.66699 0 -12.667 -2 -18 -6s-10.333 -8.5 -15 -13.5s-7.66699 -8.5 -9 -10.5l-11 10l63 134h68l-86 -96c10 4 20.333 6 31 6c16.667 0 32.334 -5.5 47.001 -16.5z" />
    <glyph glyph-name="uni0328" unicode="&#x328;" horiz-adv-x="0" 
d="M-196.5 -185c-19 18 -28.502 41.335 -28.502 70.002c0 27.333 10 52.166 30 74.499s49.667 39.166 89 50.499l16 -10c-23.333 -13.333 -41.166 -28.333 -53.499 -45s-18.5 -33.334 -18.5 -50.001c0 -15.333 4.5 -27.166 13.5 -35.499s21.167 -12.5 36.5 -12.5
c24 0 44.667 5.66699 62 17v-68c-21.333 -12 -45.666 -18 -72.999 -18c-30 0 -54.5 9 -73.5 27z" />
    <glyph glyph-name="pi" unicode="&#x3c0;" horiz-adv-x="638" 
d="M621 55c-12.667 -18.667 -30.165 -34.5 -52.498 -47.5s-46.5 -19.5 -72.5 -19.5c-38.667 0 -70.5 13.333 -95.5 40s-37.5 66.667 -37.5 120v276h-99c-3.33301 -111.333 -16.5 -201.833 -39.5 -271.5s-59.5 -124.167 -109.5 -163.5l-53 68
c48.667 41.333 87.5 91 116.5 149s46.167 130.667 51.5 218h-117l-22 -22l-11 -54h-15v142h539v-66h-154v-275c0 -31.333 7.66699 -57.166 23 -77.499s36.666 -30.5 63.999 -30.5c13.333 0 25.666 2.16699 36.999 6.5s23 11.166 35 20.499z" />
    <glyph glyph-name="uni1E9E" unicode="&#x1e9e;" horiz-adv-x="633" 
d="M546 344.5c39.333 -33.667 58.999 -83.498 58.999 -149.498c0 -41.333 -8.5 -77.666 -25.5 -108.999s-40.167 -55.5 -69.5 -72.5s-61.666 -25.5 -96.999 -25.5c-29.333 0 -56.166 5.5 -80.499 16.5s-45.166 27.167 -62.499 48.5l15 16c15.333 -14 30.5 -24 45.5 -30
s31.167 -9 48.5 -9c39.333 0 71.166 15.667 95.499 47s36.5 73.666 36.5 126.999c0 55.333 -16.167 97.666 -48.5 126.999s-73.5 44 -123.5 44h-44v15l153 279h-130c-35.333 0 -65.333 -14.833 -90 -44.5s-37 -75.167 -37 -136.5v-488h-168v15l54 11l22 22v436
c0 144 73.667 216 221 216h224v-19l-149 -282c61.333 -2.66699 111.666 -20.834 150.999 -54.501z" />
    <glyph glyph-name="endash" unicode="&#x2013;" horiz-adv-x="657" 
d="M607 316v-32h-557v32h557z" />
    <glyph glyph-name="emdash" unicode="&#x2014;" horiz-adv-x="939" 
d="M889 316v-32h-839v32h839z" />
    <glyph glyph-name="quoteleft" unicode="&#x2018;" horiz-adv-x="210" 
d="M60.5 521.5c-11.667 12.333 -17.499 27.834 -17.499 46.501c0 54.667 39.667 107 119 157l10 -13c-14 -12 -26 -23 -36 -33c-20 -20.667 -30 -39.667 -30 -57c0 -9.33301 5 -17 15 -23c8 -3.33301 15.167 -8.83301 21.5 -16.5s9.5 -17.834 9.5 -30.501
c0 -14 -4.66699 -25.667 -14 -35s-21 -14 -35 -14c-16.667 0 -30.834 6.16699 -42.501 18.5z" />
    <glyph glyph-name="quoteright" unicode="&#x2019;" horiz-adv-x="210" 
d="M37 515c18.667 16.667 31 28 37 34c20 20.667 30 39.334 30 56.001c0 6 -1.16699 10.667 -3.5 14s-6.5 6.66602 -12.5 9.99902c-8 3.33301 -15.167 8.83301 -21.5 16.5s-9.5 17.5 -9.5 29.5c0 14.667 4.83301 26.667 14.5 36s21.5 14 35.5 14
c16.667 0 30.667 -6.16699 42 -18.5s17 -27.833 17 -46.5c0 -56 -39.667 -108.333 -119 -157z" />
    <glyph glyph-name="quotesinglbase" unicode="&#x201a;" horiz-adv-x="210" 
d="M37 -113c18.667 16.667 31 28 37 34c20 20.667 30 39.334 30 56.001c0 6 -1.16699 10.667 -3.5 14s-6.5 6.66602 -12.5 9.99902c-8 3.33301 -15.167 8.83301 -21.5 16.5s-9.5 17.5 -9.5 29.5c0 14.667 4.83301 26.667 14.5 36s21.5 14 35.5 14
c16.667 0 30.667 -6.16699 42 -18.5s17 -27.833 17 -46.5c0 -56 -39.667 -108.333 -119 -157z" />
    <glyph glyph-name="quotedblleft" unicode="&#x201c;" horiz-adv-x="369" 
d="M60.5 521.5c-11.667 12.333 -17.499 27.834 -17.499 46.501c0 54.667 39.667 107 119 157l10 -13c-14 -12 -26 -23 -36 -33c-20 -20.667 -30 -39.667 -30 -57c0 -9.33301 5 -17 15 -23c8 -3.33301 15.167 -8.83301 21.5 -16.5s9.5 -17.834 9.5 -30.501
c0 -14 -4.66699 -25.667 -14 -35s-21 -14 -35 -14c-16.667 0 -30.834 6.16699 -42.501 18.5zM219.501 521.501c-11.667 12.333 -17.499 27.834 -17.499 46.501c0 54.667 39.667 107 119 157l10 -13c-14 -12 -26 -23 -36 -33c-20 -20.667 -30 -39.667 -30 -57
c0 -9.33301 5 -17 15 -23c8 -3.33301 15.167 -8.83301 21.5 -16.5s9.5 -17.834 9.5 -30.501c0 -14 -4.66699 -25.667 -14 -35s-21 -14 -35 -14c-16.667 0 -30.834 6.16699 -42.501 18.5z" />
    <glyph glyph-name="quotedblright" unicode="&#x201d;" horiz-adv-x="369" 
d="M37 515c18.667 16.667 31 28 37 34c20 20.667 30 39.334 30 56.001c0 6 -1.16699 10.667 -3.5 14s-6.5 6.66602 -12.5 9.99902c-8 3.33301 -15.167 8.83301 -21.5 16.5s-9.5 17.5 -9.5 29.5c0 14.667 4.83301 26.667 14.5 36s21.5 14 35.5 14
c16.667 0 30.667 -6.16699 42 -18.5s17 -27.833 17 -46.5c0 -56 -39.667 -108.333 -119 -157zM196 515c18.667 16.667 31 28 37 34c20 20.667 30 39.334 30 56.001c0 6 -1.16699 10.667 -3.5 14s-6.5 6.66602 -12.5 9.99902c-8 3.33301 -15.167 8.83301 -21.5 16.5
s-9.5 17.5 -9.5 29.5c0 14.667 4.83301 26.667 14.5 36s21.5 14 35.5 14c16.667 0 30.667 -6.16699 42 -18.5s17 -27.833 17 -46.5c0 -56 -39.667 -108.333 -119 -157z" />
    <glyph glyph-name="quotedblbase" unicode="&#x201e;" horiz-adv-x="369" 
d="M37 -113c18.667 16.667 31 28 37 34c20 20.667 30 39.334 30 56.001c0 6 -1.16699 10.667 -3.5 14s-6.5 6.66602 -12.5 9.99902c-8 3.33301 -15.167 8.83301 -21.5 16.5s-9.5 17.5 -9.5 29.5c0 14.667 4.83301 26.667 14.5 36s21.5 14 35.5 14
c16.667 0 30.667 -6.16699 42 -18.5s17 -27.833 17 -46.5c0 -56 -39.667 -108.333 -119 -157zM196 -113c18.667 16.667 31 28 37 34c20 20.667 30 39.334 30 56.001c0 6 -1.16699 10.667 -3.5 14s-6.5 6.66602 -12.5 9.99902c-8 3.33301 -15.167 8.83301 -21.5 16.5
s-9.5 17.5 -9.5 29.5c0 14.667 4.83301 26.667 14.5 36s21.5 14 35.5 14c16.667 0 30.667 -6.16699 42 -18.5s17 -27.833 17 -46.5c0 -56 -39.667 -108.333 -119 -157z" />
    <glyph glyph-name="dagger" unicode="&#x2020;" horiz-adv-x="348" 
d="M311 486l-123 33l40 -90l-43 -357h-22l-43 357l40 90l-123 -33v90l125 -35l-46 159h116l-46 -159l125 35v-90z" />
    <glyph glyph-name="daggerdbl" unicode="&#x2021;" horiz-adv-x="348" 
d="M311 486l-124 34l41 -120v-28l-41 -120l124 34v-90l-125 36l46 -160h-116l46 160l-125 -36v90l124 -34l-41 120v28l41 120l-124 -34v90l125 -35l-46 159h116l-46 -159l125 35v-90z" />
    <glyph glyph-name="bullet" unicode="&#x2022;" horiz-adv-x="265" 
d="M73.5 291.5c-16.333 16.333 -24.5 35.833 -24.5 58.5c0 23.333 8.16699 43 24.5 59s35.833 24 58.5 24c23.333 0 43.166 -8.16699 59.499 -24.5s24.5 -35.833 24.5 -58.5s-8.16699 -42.167 -24.5 -58.5s-36.166 -24.5 -59.499 -24.5
c-22.667 0 -42.167 8.16699 -58.5 24.5z" />
    <glyph glyph-name="ellipsis" unicode="&#x2026;" horiz-adv-x="542" 
d="M397.5 4c-11 10.667 -16.5 24 -16.5 40c0 15.333 5.5 28.5 16.5 39.5s24.167 16.5 39.5 16.5s28.5 -5.5 39.5 -16.5s16.5 -24.167 16.5 -39.5c0 -16 -5.5 -29.333 -16.5 -40s-24.167 -16 -39.5 -16s-28.5 5.33301 -39.5 16zM231.5 4c-11 10.667 -16.5 24 -16.5 40
c0 15.333 5.5 28.5 16.5 39.5s24.167 16.5 39.5 16.5s28.5 -5.5 39.5 -16.5s16.5 -24.167 16.5 -39.5c0 -16 -5.5 -29.333 -16.5 -40s-24.167 -16 -39.5 -16s-28.5 5.33301 -39.5 16zM65.5 4c-11 10.667 -16.5 24 -16.5 40c0 15.333 5.5 28.5 16.5 39.5
s24.167 16.5 39.5 16.5s28.5 -5.5 39.5 -16.5s16.5 -24.167 16.5 -39.5c0 -16 -5.5 -29.333 -16.5 -40s-24.167 -16 -39.5 -16s-28.5 5.33301 -39.5 16z" />
    <glyph glyph-name="perthousand" unicode="&#x2030;" horiz-adv-x="993" 
d="M109.5 419.5c-23 14.333 -41.167 33.5 -54.5 57.5s-20 50 -20 78s6.66699 54 20 78s31.5 43.167 54.5 57.5s47.833 21.5 74.5 21.5c27.333 0 52.5 -7 75.5 -21s41.167 -33.167 54.5 -57.5s20 -50.5 20 -78.5s-6.66699 -54.167 -20 -78.5s-31.5 -43.5 -54.5 -57.5
s-48.167 -21 -75.5 -21c-26.667 0 -51.5 7.16699 -74.5 21.5zM524 700h45l-456 -700h-37zM238 457.5c14.667 26.333 22 58.833 22 97.5c0 39.333 -7.33301 72.166 -22 98.499s-32.667 39.5 -54 39.5c-22 0 -40 -13.167 -54 -39.5s-21 -59.166 -21 -98.499
c0 -38.667 7 -71.167 21 -97.5s32 -39.5 54 -39.5c21.333 0 39.333 13.167 54 39.5zM386 9c-22.667 14 -40.667 33.167 -54 57.5s-20 50.5 -20 78.5s6.66699 54.167 20 78.5s31.333 43.5 54 57.5s47.667 21 75 21s52.333 -7 75 -21s40.667 -33.167 54 -57.5
s20 -50.5 20 -78.5s-6.66699 -54.167 -20 -78.5s-31.333 -43.5 -54 -57.5s-47.667 -21 -75 -21s-52.333 7 -75 21zM733 9c-22.667 14 -40.667 33.167 -54 57.5s-20 50.5 -20 78.5s6.66699 54.167 20 78.5s31.333 43.5 54 57.5s47.667 21 75 21s52.333 -7 75 -21
s40.667 -33.167 54 -57.5s20 -50.5 20 -78.5s-6.66699 -54.167 -20 -78.5s-31.333 -43.5 -54 -57.5s-47.667 -21 -75 -21s-52.333 7 -75 21zM515 47.5c14.667 26.333 22 58.833 22 97.5c0 39.333 -7.33301 72.166 -22 98.499s-32.667 39.5 -54 39.5
c-22 0 -40.167 -13.167 -54.5 -39.5s-21.5 -59.166 -21.5 -98.499c0 -38.667 7.16699 -71.167 21.5 -97.5s32.5 -39.5 54.5 -39.5c21.333 0 39.333 13.167 54 39.5zM862 47.5c14.667 26.333 22 58.833 22 97.5c0 39.333 -7.33301 72.166 -22 98.499s-32.667 39.5 -54 39.5
c-22 0 -40 -13.167 -54 -39.5s-21 -59.166 -21 -98.499c0 -38.667 7 -71.167 21 -97.5s32 -39.5 54 -39.5c21.333 0 39.333 13.167 54 39.5z" />
    <glyph glyph-name="guilsinglleft" unicode="&#x2039;" horiz-adv-x="321" 
d="M158 305l133 -182l-14 -15l-239 188v20l239 185l14 -14z" />
    <glyph glyph-name="guilsinglright" unicode="&#x203a;" horiz-adv-x="321" 
d="M163 305l-133 -182l14 -15l239 188v20l-239 185l-14 -14z" />
    <glyph glyph-name="fraction" unicode="&#x2044;" horiz-adv-x="371" 
d="M338 700h42l-327 -700h-46z" />
    <glyph glyph-name="Euro" unicode="&#x20ac;" horiz-adv-x="699" 
d="M342.5 652c-31.667 -19.333 -58.999 -47.5029 -81.999 -84.5029s-38.833 -81.167 -47.5 -132.5h326l-13 -30h-317c-2 -18 -3 -36.333 -3 -55s1 -37 3 -55h274l-13 -30h-257c8.66699 -51.333 24.5 -95.666 47.5 -132.999s50.167 -65.5 81.5 -84.5s64 -28.5 98 -28.5
c37.333 0 67.166 5.66699 89.499 17s44.833 30 67.5 56l28 86l20 -1v-150c-26.667 -14 -55.5 -24 -86.5 -30s-67.5 -9 -109.5 -9c-50.667 0 -100 10.167 -148 30.5s-89.5 51.333 -124.5 93s-58.5 92.834 -70.5 153.501h-71l12 30h54c-2 18 -3 36.333 -3 55s1 37 3 55h-66
l12 30h59c12 60.667 35.5 111.834 70.5 153.501s76.5 72.667 124.5 93s97.333 30.5 148 30.5c42 0 78.5 -3.16699 109.5 -9.5s59.833 -16.833 86.5 -31.5v-180h-21l-27 117c-25.333 25.333 -48.833 43.833 -70.5 55.5s-50.5 17.5 -86.5 17.5
c-33.333 0 -65.833 -9.66699 -97.5 -29z" />
    <glyph glyph-name="uni2113" unicode="&#x2113;" horiz-adv-x="413" 
d="M322 59c12 22 18 58.665 18 109.998h27c0 -120.667 -36 -181 -108 -181c-24 0 -46 6.83301 -66 20.5s-37 38.834 -51 75.501c-31.333 -12 -66.333 -22.333 -105 -31l-5 24c36.667 8.66699 70 21.334 100 38.001c-18.667 64.667 -28 153.667 -28 267
c0 108 12 189.833 36 245.5s58.667 83.5 104 83.5c38.667 0 69.334 -16.5 92.001 -49.5s34 -82.833 34 -149.5c0 -104 -13.833 -187.167 -41.5 -249.5s-67.834 -110.5 -120.501 -144.5c13.333 -61.333 36.333 -92 69 -92c18 0 33 11 45 33zM214.5 648.498
c-7 -25 -12.166 -65.835 -15.499 -122.502s-5 -134 -5 -232c0 -47.333 2 -87.666 6 -120.999c31.333 38 54.166 88.333 68.499 151s21.5 141.334 21.5 236.001c0 84 -15.333 126 -46 126c-12.667 0 -22.5 -12.5 -29.5 -37.5z" />
    <glyph glyph-name="trademark" unicode="&#x2122;" horiz-adv-x="605" 
d="M90 441l23 4l9 10v234h-59l-27 -67h-6v78h221v-78h-6l-27 67h-60v-235l9 -8l24 -5v-6h-101v6zM273 441l23 4l9 10v245h12l112 -164l110 164h10v-246l9 -8l23 -5v-6h-101v6l23 4l10 10v183l-95 -140h-5l-95 140v-184l9 -8l23 -5v-6h-77v6z" />
    <glyph glyph-name="uni2126" unicode="&#x2126;" horiz-adv-x="721" 
d="M689 165l-0.00195312 -165.002h-267l-1 43c12.667 8.66699 25.667 19.334 39 32.001l-3 4h7c76.667 74.667 115 180 115 316c0 49.333 -8.83301 96.333 -26.5 141s-43.167 80.667 -76.5 108s-72 41 -116 41c-43.333 0 -81.666 -13.667 -114.999 -41
s-58.833 -63.333 -76.5 -108s-26.5 -91.667 -26.5 -141c0 -136 38.333 -241.333 115 -316h7l-3 -4c10 -10 23 -20.667 39 -32l-1 -43h-267v165h15l12 -61l25 -25h136c-120 74 -180 178.333 -180 313c0 57.333 12.833 110.5 38.5 159.5s62.834 88 111.501 117
s105.334 43.5 170.001 43.5c65.333 0 122.166 -14.5 170.499 -43.5s85.5 -68 111.5 -117s39 -102.167 39 -159.5c0 -133.333 -60 -237.666 -180 -312.999h137l24 24l12 62h15z" />
    <glyph glyph-name="estimated" unicode="&#x212e;" horiz-adv-x="830" 
d="M165 335v-194.998c29.333 -38 65.5 -67.667 108.5 -89s90.167 -32 141.5 -32c70 0 132 20.167 186 60.5s92.667 92.166 116 155.499l40 -2c-15.333 -48 -39.333 -90.5 -72 -127.5s-72.167 -65.833 -118.5 -86.5s-96.833 -31 -151.5 -31
c-68.667 0 -130.5 16.167 -185.5 48.5s-97.833 76.166 -128.5 131.499s-46 116 -46 182s15.333 126.667 46 182s73.5 99.166 128.5 131.499s116.833 48.5 185.5 48.5s130.5 -16.167 185.5 -48.5s97.833 -76.166 128.5 -131.499s46 -116 46 -182v-15h-610zM273.5 649.002
c-43 -21.333 -79.168 -51 -108.501 -89v-188h496v194c-29.333 36 -65.166 64.167 -107.499 84.5s-88.5 30.5 -138.5 30.5c-51.333 0 -98.5 -10.667 -141.5 -32z" />
    <glyph glyph-name="arrowleft" unicode="&#x2190;" horiz-adv-x="976" 
d="M50 362v-24l333 -221l14 19l-223 195h752v38h-752l223 195l-14 19z" />
    <glyph glyph-name="arrowup" unicode="&#x2191;" horiz-adv-x="567" 
d="M497 441l-195 223v-752h-38v752l-195 -223l-19 14l221 333h24l221 -333z" />
    <glyph glyph-name="arrowright" unicode="&#x2192;" horiz-adv-x="976" 
d="M926 362v-24l-333 -221l-14 19l223 195h-752v38h752l-223 195l14 19z" />
    <glyph glyph-name="arrowdown" unicode="&#x2193;" horiz-adv-x="567" 
d="M516 245l-221 -333h-24l-221 333l19 14l195 -223v752h38v-752l195 223z" />
    <glyph glyph-name="uni2196" unicode="&#x2196;" horiz-adv-x="740" 
d="M49 654l79 -392l23 4l-19 295l532 -532l27 27l-532 532l295 -19l4 23l-392 79z" />
    <glyph glyph-name="uni2197" unicode="&#x2197;" horiz-adv-x="740" 
d="M691 654l-79 -392l-23 4l19 295l-532 -532l-27 27l532 532l-295 -19l-4 23l392 79z" />
    <glyph glyph-name="uni2198" unicode="&#x2198;" horiz-adv-x="740" 
d="M691 46l-17 -17l-392 79l4 24l295 -20l-532 532l27 27l532 -532l-20 295l24 4z" />
    <glyph glyph-name="uni2199" unicode="&#x2199;" horiz-adv-x="740" 
d="M49 46l79 392l23 -4l-19 -295l532 532l27 -27l-532 -532l295 19l4 -23l-392 -79z" />
    <glyph glyph-name="partialdiff" unicode="&#x2202;" horiz-adv-x="529" 
d="M142.5 16c-35 18.667 -62.835 46 -83.502 82s-31 79 -31 129c0 51.333 9.83301 95 29.5 131s46.334 63.167 80.001 81.5s71.5 27.5 113.5 27.5c27.333 0 53.333 -3.83301 78 -11.5s44.334 -17.5 59.001 -29.5c-10 34.667 -28 70 -54 106s-57.167 68.333 -93.5 97
s-74.5 50.334 -114.5 65.001l8 18c59.333 -12.667 116.5 -34.834 171.5 -66.501s101.5 -78 139.5 -139s57 -137.167 57 -228.5c0 -98.667 -22.667 -171.667 -68 -219s-104.333 -71 -177 -71c-41.333 0 -79.5 9.33301 -114.5 28zM332.998 37.5
c22 15 39.332 37.168 51.999 66.501s19 64.333 19 105c0 68 -12.5 122.667 -37.5 164s-58.167 62 -99.5 62c-27.333 0 -51.666 -9 -72.999 -27s-38.166 -43.333 -50.499 -76s-18.5 -70.334 -18.5 -113.001c0 -43.333 6.16699 -80.5 18.5 -111.5s28.666 -54.167 48.999 -69.5
s42.833 -23 67.5 -23c26.667 0 51 7.5 73 22.5z" />
    <glyph glyph-name="uni2206" unicode="&#x2206;" horiz-adv-x="653" 
d="M39 29l274 671h26l274 -671v-29h-574v29zM492 79l-192 483l-194 -483h386z" />
    <glyph glyph-name="product" unicode="&#x220f;" horiz-adv-x="684" 
d="M569 648v-597l24 -24l62 -12v-15h-265v15l61 12l25 25v611h-268v-612l24 -24l62 -12v-15h-265v15l61 12l25 25v597l-24 24l-62 12v15h626v-15l-61 -12z" />
    <glyph glyph-name="summation" unicode="&#x2211;" horiz-adv-x="521" 
d="M471 535h-15l-12 61l-25 25h-284l240 -265v-12l-240 -265h285l24 24l12 62h15v-165h-432v20l300 330l-300 331v19h432v-165z" />
    <glyph glyph-name="minus" unicode="&#x2212;" horiz-adv-x="504" 
d="M40 317h424v-34h-424v34z" />
    <glyph glyph-name="uni2215" unicode="&#x2215;" horiz-adv-x="437" 
d="M388 736h39l-378 -772h-39z" />
    <glyph glyph-name="uni2219" unicode="&#x2219;" horiz-adv-x="265" 
d="M73.5 291.5c-16.333 16.333 -24.5 35.833 -24.5 58.5c0 23.333 8.16699 43 24.5 59s35.833 24 58.5 24c23.333 0 43.166 -8.16699 59.499 -24.5s24.5 -35.833 24.5 -58.5s-8.16699 -42.167 -24.5 -58.5s-36.166 -24.5 -59.499 -24.5
c-22.667 0 -42.167 8.16699 -58.5 24.5z" />
    <glyph glyph-name="radical" unicode="&#x221a;" horiz-adv-x="605" 
d="M602 665h-138l-272 -665h-27l-148 354h103l89 -223l228 569h165v-35z" />
    <glyph glyph-name="infinity" unicode="&#x221e;" horiz-adv-x="602" 
d="M541 402c20.667 -24.667 31 -58.334 31 -101.001c0 -45.333 -11.833 -79.833 -35.5 -103.5s-54.5 -35.5 -92.5 -35.5c-28.667 0 -55 8.16699 -79 24.5s-50.667 39.833 -80 70.5c-16 -27.333 -36.5 -50.166 -61.5 -68.499s-51.5 -27.5 -79.5 -27.5
c-34.667 0 -62.334 12.333 -83.001 37s-31 58.334 -31 101.001c0 45.333 11.833 79.833 35.5 103.5s53.834 35.5 90.501 35.5c28.667 0 55.334 -8.33301 80.001 -25s51.667 -40.334 81 -71.001c15.333 27.333 35.666 50.333 60.999 69s52.333 28 81 28
c34 0 61.333 -12.333 82 -37zM533.5 251.5c13.667 15.667 20.5 33.499 20.5 53.499c0 20.667 -9.33301 38.834 -28 54.501s-41.667 23.5 -69 23.5c-25.333 0 -47.666 -5.33301 -66.999 -16s-38 -25 -56 -43c30 -32 55.667 -56 77 -72s43.666 -24 66.999 -24
s41.833 7.83301 55.5 23.5zM213.5 232.499c20.333 10.333 38.832 24.499 55.499 42.499c-31.333 32.667 -57.5 57 -78.5 73s-43.167 24 -66.5 24s-41.666 -7.83301 -54.999 -23.5s-20 -33.5 -20 -53.5c0 -21.333 8.33301 -39.666 25 -54.999s39.667 -23 69 -23
c26.667 0 50.167 5.16699 70.5 15.5z" />
    <glyph glyph-name="integral" unicode="&#x222b;" horiz-adv-x="529" 
d="M28 -175l-0.000976562 96h14l21 -51l20 -24c10 -12 20.333 -21.167 31 -27.5s22.334 -9.5 35.001 -9.5c22.667 0 42.334 12 59.001 36s25 57 25 99v618c0 59.333 16.667 105.166 50 137.499s75.666 48.5 126.999 48.5c46 0 85.667 -12.333 119 -37v-96h-15l-21 51
c-2.66699 3.33301 -8.66699 11.333 -18 24c-10 12 -20.5 21.167 -31.5 27.5s-22.833 9.5 -35.5 9.5c-22.667 0 -42.334 -12 -59.001 -36s-25 -57 -25 -99v-618c0 -59.333 -16.667 -105.166 -50 -137.499s-75.666 -48.5 -126.999 -48.5c-46 0 -85.667 12.333 -119 37z" />
    <glyph glyph-name="approxequal" unicode="&#x2248;" horiz-adv-x="531" 
d="M78 224.5c21.333 27 50.333 40.498 87 40.498c21.333 0 40.666 -4.16699 57.999 -12.5s38.333 -20.5 63 -36.5c22 -14 40 -24.5 54 -31.5s29 -10.5 45 -10.5c23.333 0 42.166 7.83301 56.499 23.5s24.5 34.834 30.5 57.501l20 -5
c-4.66699 -41.333 -17.667 -75.666 -39 -102.999s-50.333 -41 -87 -41c-20.667 0 -39.667 4 -57 12s-38.333 19.667 -63 35c-21.333 14 -40.166 24.833 -56.499 32.5s-33.166 11.5 -50.499 11.5c-20 0 -36.833 -8 -50.5 -24s-23.5 -35 -29.5 -57l-20 3
c4.66699 43.333 17.667 78.5 39 105.5zM78 453.498c21.333 27 50.333 40.498 87 40.498c21.333 0 40.666 -4.16699 57.999 -12.5s38.333 -20.5 63 -36.5c22 -14 40 -24.5 54 -31.5s29 -10.5 45 -10.5c23.333 0 42.166 7.83301 56.499 23.5s24.5 34.834 30.5 57.501l20 -5
c-4.66699 -41.333 -17.667 -75.666 -39 -102.999s-50.333 -41 -87 -41c-20.667 0 -39.667 4 -57 12s-38.333 19.667 -63 35c-21.333 14 -40.166 24.833 -56.499 32.5s-33.166 11.5 -50.499 11.5c-20 0 -36.833 -8 -50.5 -24s-23.5 -35 -29.5 -57l-20 3
c4.66699 43.333 17.667 78.5 39 105.5z" />
    <glyph glyph-name="notequal" unicode="&#x2260;" horiz-adv-x="575" 
d="M346 390l-73 -172h262v-34h-276l-78 -183h-41l78 183h-178v34h193l73 172h-266v34h280l75 175h40l-74 -175h174v-34h-189z" />
    <glyph glyph-name="lessequal" unicode="&#x2264;" horiz-adv-x="610" 
d="M545 443l-485 122v-36l420 -102l-420 -103v-35l485 122v32zM550 155h-490v-33h490v33z" />
    <glyph glyph-name="greaterequal" unicode="&#x2265;" horiz-adv-x="610" 
d="M65 443l485 122v-36l-420 -102l420 -103v-35l-485 122v32zM60 155h490v-33h-490v33z" />
    <glyph glyph-name="lozenge" unicode="&#x25ca;" horiz-adv-x="461" 
d="M33 350l186 350h23l186 -350l-186 -350h-23zM387 350l-156 299l-157 -299l157 -299z" />
    <glyph glyph-name="f_f_b" horiz-adv-x="1204" 
d="M1068.5 471.5c33.667 -20.333 60 -49.1689 79 -86.502s28.5 -80.666 28.5 -129.999c0 -56 -11.167 -104 -33.5 -144s-52.333 -70.5 -90 -91.5s-79.5 -31.5 -125.5 -31.5c-39.333 0 -77.5 7.66699 -114.5 23s-70.5 35.333 -100.5 60v537c0 34 -6.66699 61.667 -20 83
s-38.333 32 -75 32s-66.167 -16.5 -88.5 -49.5s-33.5 -83.167 -33.5 -150.5v-33h120v-29h-120v-413l22 -22l54 -11v-15h-243v15l54 11l22 22v413h-218v-413l22 -22l54 -11v-15h-243v15l54 11l22 22v413h-72v29h72v41c0 64 18.333 116.167 55 156.5s90 60.5 160 60.5
c31.333 0 59.833 -6.16699 85.5 -18.5s46.167 -27.166 61.5 -44.499c40 42 96.667 63 170 63c25.333 0 48.833 -3.5 70.5 -10.5s40.167 -16.167 55.5 -27.5l51 32v-305c41.333 43.333 91 65 149 65c43.333 0 81.833 -10.167 115.5 -30.5zM404 530.997v7l-1 -2v72
c0 33.333 -8.33301 60.833 -25 82.5s-40 32.5 -70 32.5c-36.667 0 -66.167 -16.5 -88.5 -49.5s-33.5 -83.167 -33.5 -150.5v-33h218v41zM1002 49.4971c23.333 19 41.668 46.168 55.001 81.501s20 76.666 20 123.999c0 42 -6 79 -18 111s-28.5 56.833 -49.5 74.5
s-44.833 26.5 -71.5 26.5s-52 -7 -76 -21s-43.333 -34.333 -58 -61v-232c0 -42 11.5 -74.5 34.5 -97.5s51.167 -34.5 84.5 -34.5c29.333 0 55.666 9.5 78.999 28.5z" />
    <glyph glyph-name="f_f_h" horiz-adv-x="1245" 
d="M1224 15l0.00195312 -15.001h-244v15l54 11l22 22v271c0 37.333 -7.16699 66.5 -21.5 87.5s-35.5 31.5 -63.5 31.5c-28.667 0 -59.334 -12.833 -92.001 -38.5s-57.667 -56.5 -75 -92.5v-259l22 -22l54 -11v-15h-244v15l54 11l22 22v560c0 34 -6.66699 61.667 -20 83
s-38.333 32 -75 32s-66.167 -16.5 -88.5 -49.5s-33.5 -83.167 -33.5 -150.5v-33h120v-29h-120v-413l22 -22l54 -11v-15h-243v15l54 11l22 22v413h-218v-413l22 -22l54 -11v-15h-243v15l54 11l22 22v413h-72v29h72v41c0 64 18.333 116.167 55 156.5s90 60.5 160 60.5
c31.333 0 59.833 -6.16699 85.5 -18.5s46.167 -27.166 61.5 -44.499c40 42 96.667 63 170 63c23.333 0 45.166 -3 65.499 -9s38.166 -14 53.499 -24l58 27v-393c20.667 44 48.834 80.5 84.501 109.5s75.167 43.5 118.5 43.5c46 0 81 -14.833 105 -44.5s36 -71.167 36 -124.5
v-285l22 -22zM404.002 530.999v7l-1 -2v72c0 33.333 -8.33301 60.833 -25 82.5s-40 32.5 -70 32.5c-36.667 0 -66.167 -16.5 -88.5 -49.5s-33.5 -83.167 -33.5 -150.5v-33h218v41z" />
    <glyph glyph-name="f_f_j" horiz-adv-x="843" 
d="M803 16c0 -53.333 -13.1699 -98.668 -39.5029 -136.001s-62.833 -64.666 -109.5 -81.999l-6 11c23.333 22.667 39.833 47.667 49.5 75s14.5 63.666 14.5 108.999v468h-217v-413l22 -22l54 -11v-15h-243v15l54 11l22 22v413h-218v-413l22 -22l54 -11v-15h-243v15l54 11
l22 22v413h-72v29h72v41c0 64 18.333 116.167 55 156.5s90 60.5 160 60.5c30.667 0 58.834 -6 84.501 -18s46.167 -26.667 61.5 -44c18.667 20 41.834 35.333 69.501 46s58.167 16 91.5 16c32.667 0 62 -4.5 88 -13.5s46.167 -20.167 60.5 -33.5s21.5 -26 21.5 -38
c0 -11.333 -3.5 -20.666 -10.5 -27.999s-16.5 -11 -28.5 -11c-12.667 0 -23 3.33301 -31 10s-20.667 21.667 -38 45c-11.333 16 -22.166 27.333 -32.499 34s-23.5 10 -39.5 10c-31.333 0 -57.833 -15.167 -79.5 -45.5s-32.5 -84.5 -32.5 -162.5v-25h308v-474z
M403.997 524.998l-1 -2v85c0 33.333 -8.33301 60.833 -25 82.5s-40 32.5 -70 32.5c-36.667 0 -66.167 -16.5 -88.5 -49.5s-33.5 -83.167 -33.5 -150.5v-33h218v35z" />
    <glyph glyph-name="f_f_k" horiz-adv-x="1224" 
d="M1212 15v-15.001h-264v15l54 11l22 22l-185 196h-35v-196l22 -22l54 -11v-15h-244v15l54 11l22 22v560c0 34 -6.66699 61.667 -20 83s-38.333 32 -75 32s-66.167 -16.5 -88.5 -49.5s-33.5 -83.167 -33.5 -150.5v-33h120v-29h-120v-413l22 -22l54 -11v-15h-243v15l54 11
l22 22v413h-218v-413l22 -22l54 -11v-15h-243v15l54 11l22 22v413h-72v29h72v41c0 64 18.333 116.167 55 156.5s90 60.5 160 60.5c31.333 0 59.833 -6.16699 85.5 -18.5s46.167 -27.166 61.5 -44.499c40 42 96.667 63 170 63c44.667 0 83.667 -10.333 117 -31l60 25v-470h37
l172 170l-22 22l-54 11v15h199v-15l-54 -11l-22 -22l-158 -147l234 -247l22 -22zM404 530.999v7l-1 -2v72c0 33.333 -8.33301 60.833 -25 82.5s-40 32.5 -70 32.5c-36.667 0 -66.167 -16.5 -88.5 -49.5s-33.5 -83.167 -33.5 -150.5v-33h218v41z" />
    <glyph glyph-name="N_D.sup" horiz-adv-x="983" 
d="M482 690l-41 -8l-18 -18v-434h-26l-285 340v-305l16 -16l43 -9v-10h-147v10l41 8l18 18v434h27l284 -339v304l-16 16l-43 9v10h147v-10zM840 669c36 -20.667 63.666 -48.832 82.999 -84.499s29 -75.5 29 -119.5s-10 -83.833 -30 -119.5s-48.167 -63.834 -84.5 -84.501
s-78.166 -31 -125.499 -31h-199v10l41 8l18 18v399l-16 16l-43 9v10h201c48 0 90 -10.333 126 -31zM822.499 313.502c29.667 39.667 44.499 90.167 44.499 151.5s-14.667 111.833 -44 151.5s-69.333 59.5 -120 59.5h-52v-422h51c50.667 0 90.834 19.833 120.501 59.5z" />
    <glyph glyph-name="R_D.sup" horiz-adv-x="1009" 
d="M470 249l43.001 -9v-10h-121l-207 221h-20v-186l16 -16l43 -9v-10h-195v10l41 8l18 18v399l-16 16l-43 9v10h214c44 0 78 -10 102 -30s36 -45 36 -75c0 -22.667 -5.33301 -41.667 -16 -57s-23.834 -27.833 -39.501 -37.5s-36.5 -20.5 -62.5 -32.5l191 -203zM866.001 669
c36 -20.667 63.666 -48.832 82.999 -84.499s29 -75.5 29 -119.5s-10 -83.833 -30 -119.5s-48.167 -63.834 -84.5 -84.501s-78.166 -31 -125.499 -31h-199v10l41 8l18 18v399l-16 16l-43 9v10h201c48 0 90 -10.333 126 -31zM165 473.002l48.001 0.000976562
c10.667 0 23.167 4.33301 37.5 13s26.666 21.5 36.999 38.5s15.5 37.5 15.5 61.5c0 31.333 -6 54.666 -18 69.999s-31.333 23 -58 23h-62v-206zM848.501 313.503c29.667 39.667 44.499 90.167 44.499 151.5s-14.667 111.833 -44 151.5s-69.333 59.5 -120 59.5h-53v-422h52
c50.667 0 90.834 19.833 120.501 59.5z" />
    <glyph glyph-name="S_T.sup" horiz-adv-x="802" 
d="M299.5 452.5c22.333 -23.667 33.501 -53.832 33.501 -90.499c0 -40.667 -13.167 -74.167 -39.5 -100.5s-64.5 -39.5 -114.5 -39.5c-26 0 -50.667 4 -74 12s-44.333 19 -63 33v143h13l32 -115c10 -16 23 -28.833 39 -38.5s35 -14.5 57 -14.5c28 0 49.667 8 65 24
s23 37 23 63c0 25.333 -7.66699 46.5 -23 63.5s-39.333 31.5 -72 43.5c-92.667 34 -139 82 -139 144c0 38.667 13 69.667 39 93s59.667 35 101 35c22.667 0 42.167 -2 58.5 -6s37.833 -11.333 64.5 -22v-120h-11l-29 85c-10 14 -21.167 24.5 -33.5 31.5
s-28.833 10.5 -49.5 10.5c-20 0 -37.333 -6.83301 -52 -20.5s-22 -31.5 -22 -53.5c0 -42.667 26.667 -74 80 -94c55.333 -20.667 94.166 -42.834 116.499 -66.501zM773.001 556.002h-10l-47 122h-98v-413l16 -16l43 -9v-10h-197v10l41 8l18 18v412h-97l-47 -122h-11v144h389
v-144z" />
    <glyph glyph-name="T_H.sup" horiz-adv-x="1004" 
d="M418 556h-10l-47 120h-98v-411l16 -16l43 -9v-10h-196v10l41 8l18 18v410h-98l-46 -120h-11v144h388v-144zM916 664v-399l16 -16l43 -9v-10h-197v10l41 8l18 18v195h-228v-196l16 -16l43 -9v-10h-196v10l41 8l18 18v399l-16 16l-43 9v10h196v-10l-41 -8l-18 -18v-179h228
v180l-16 16l-43 9v10h197v-10l-41 -8z" />
    <glyph glyph-name="zero.osf" horiz-adv-x="552" 
d="M148.5 22c-37 22.667 -65.666 53.668 -85.999 93.001s-30.5 82.666 -30.5 129.999s10.167 90.666 30.5 129.999s49 70.333 86 93s79.5 34 127.5 34s90.667 -11.5 128 -34.5s66.166 -54 86.499 -93s30.5 -82.167 30.5 -129.5s-10.167 -90.666 -30.5 -129.999
s-49 -70.333 -86 -93s-79.833 -34 -128.5 -34c-48 0 -90.5 11.333 -127.5 34zM354.001 43.501c22 21.667 38.833 50.334 50.5 86.001s17.5 74.167 17.5 115.5s-5.83301 79.833 -17.5 115.5s-28.5 64.334 -50.5 86.001s-48 32.5 -78 32.5
c-29.333 0 -55.166 -10.833 -77.499 -32.5s-39.333 -50.334 -51 -86.001s-17.5 -74.167 -17.5 -115.5s5.83301 -79.833 17.5 -115.5s28.667 -64.334 51 -86.001s48.166 -32.5 77.499 -32.5c30 0 56 10.833 78 32.5z" />
    <glyph glyph-name="one.osf" horiz-adv-x="379" 
d="M349 17v-17h-308v17l67 12l41 33v310l-112 -39l-7 18l194 139h18v-431l33 -30z" />
    <glyph glyph-name="two.osf" horiz-adv-x="534" 
d="M500 168v-167.996h-462v20l159 139c29.333 25.333 52.666 46.666 69.999 63.999s31.833 37 43.5 59s17.5 45.333 17.5 70c0 35.333 -10.5 64.833 -31.5 88.5s-46.167 35.5 -75.5 35.5c-30 0 -54.5 -11 -73.5 -33s-28.5 -49.667 -28.5 -83
c0 -17.333 2.66699 -34.833 8 -52.5s12.333 -32.5 21 -44.5l-10 -12c-33.333 7.33301 -59.166 20.666 -77.499 39.999s-27.5 41.666 -27.5 66.999c0 24.667 7.5 48 22.5 70s36.833 39.667 65.5 53s62 20 100 20c36 0 69.333 -6.5 100 -19.5s55.167 -31.833 73.5 -56.5
s27.5 -54.334 27.5 -89.001c0 -37.333 -11.333 -71 -34 -101s-55.667 -59.333 -99 -88l-45 -30c-57.333 -38 -105.333 -68 -144 -90l349 55l24 24l12 62h15z" />
    <glyph glyph-name="three.osf" horiz-adv-x="479" 
d="M340.5 193.5c31 -16.333 55.999 -39.5 74.999 -69.5s28.5 -64.667 28.5 -104c0 -46 -9.83301 -86.5 -29.5 -121.5s-46.5 -62.167 -80.5 -81.5s-71.667 -29 -113 -29c-88 0 -152.333 34.667 -193 104l19 15c16 -20.667 35.833 -36.334 59.5 -47.001s48.834 -16 75.501 -16
c29.333 0 56.5 7 81.5 21s45 34.667 60 62s22.5 59.666 22.5 96.999c0 36.667 -7 66.834 -21 90.501s-31.167 40.667 -51.5 51s-39.833 15.5 -58.5 15.5c-17.333 0 -33.833 -1.66699 -49.5 -5s-26.167 -5.66602 -31.5 -6.99902l-15 15l201 237h-230l-22 -22l-11 -54h-15v145
h396v-20l-212 -252h15c35.333 0 68.5 -8.16699 99.5 -24.5z" />
    <glyph glyph-name="four.osf" horiz-adv-x="557" 
d="M407 -149l24 -24l62 -12v-15h-242v15l54 11l22 22v152h-309v16l251 474h95v-18c-38 -76 -72.5 -135.667 -103.5 -179s-66.5 -87.333 -106.5 -132c-38 -43.333 -66.333 -79 -85 -107h259v101l39 40l26 70h14v-211h132v-54h-132v-149z" />
    <glyph glyph-name="five.osf" horiz-adv-x="507" 
d="M359.5 229.5c35.667 -17.667 63.668 -43.168 84.001 -76.501s30.5 -73.333 30.5 -120c0 -50.667 -10.5 -94.5 -31.5 -131.5s-49 -65.167 -84 -84.5s-72.833 -29 -113.5 -29c-48.667 0 -92.334 13.167 -131.001 39.5s-67 62.5 -85 108.5l19 13
c23.333 -33.333 49 -57.5 77 -72.5s59.667 -22.5 95 -22.5c29.333 0 56.5 8 81.5 24s45 38.333 60 67s22.5 61 22.5 97c0 52 -14.833 94.333 -44.5 127s-68.167 49 -115.5 49c-28.667 0 -56.667 -9.16699 -84 -27.5s-51.333 -42.166 -72 -71.499l-18 6l27 365h364v-165h-15
l-12 61l-25 25h-262l-29 -202c17.333 14 38.333 25.333 63 34s51 13 79 13c44 0 83.833 -8.83301 119.5 -26.5z" />
    <glyph glyph-name="six.osf" horiz-adv-x="540" 
d="M403.5 420c33 -18 58.6631 -43.834 76.9961 -77.501s27.5 -73.167 27.5 -118.5c0 -49.333 -10.667 -91.833 -32 -127.5s-50.166 -62.667 -86.499 -81s-76.166 -27.5 -119.499 -27.5c-42.667 0 -81.834 11.5 -117.501 34.5s-64.5 58.333 -86.5 106s-33 106.5 -33 176.5
c0 96.667 12.333 175.334 37 236.001s56.334 104.334 95.001 131.001s80.334 40 125.001 40c46 0 85.333 -14.5 118 -43.5s53.334 -67.5 62.001 -115.5l-22 -7c-8.66699 36 -26.167 65.167 -52.5 87.5s-54.833 33.5 -85.5 33.5c-32 0 -61.333 -11 -88 -33
s-48.5 -54.833 -65.5 -98.5s-27.167 -96.834 -30.5 -159.501c39.333 47.333 94.333 71 165 71c42 0 79.5 -9 112.5 -27zM342.996 39.499c21.333 16.333 38.002 39.333 50.002 69s18 63.167 18 100.5c0 38.667 -5.5 73.667 -16.5 105s-26.5 56 -46.5 74s-43.333 27 -70 27
c-46.667 0 -82.334 -19.333 -107.001 -58s-37 -88 -37 -148c0 -36 6.33301 -68.833 19 -98.5s29.5 -53 50.5 -70s43.167 -25.5 66.5 -25.5c27.333 0 51.666 8.16699 72.999 24.5z" />
    <glyph glyph-name="seven.osf" horiz-adv-x="486" 
d="M456 490l0.00195312 -50.001c-22.667 -44.667 -45 -85 -67 -121c-34.667 -60 -62 -111.5 -82 -154.5s-36.667 -94.5 -50 -154.5s-20 -130 -20 -210h-103c0 70.667 9.16699 134.834 27.5 192.501s40.166 107.667 65.499 150s57.666 89.5 96.999 141.5
c21.333 29.333 38.333 53.333 51 72s23.667 37 33 55h-317l-24 -24l-12 -62h-15v165h416z" />
    <glyph glyph-name="eight.osf" horiz-adv-x="544" 
d="M472 310c22.667 -31.333 34.001 -68.668 34.001 -112.001c0 -38.667 -9.5 -74 -28.5 -106s-46.333 -57.333 -82 -76s-77.167 -28 -124.5 -28c-44 0 -83.833 8.16699 -119.5 24.5s-63.667 38.833 -84 67.5s-30.5 61.334 -30.5 98.001c0 41.333 13.333 78.333 40 111
s62 57 106 73c-37.333 18 -65.666 42.167 -84.999 72.5s-29 64.166 -29 101.499c0 30 7.83301 58.5 23.5 85.5s38.667 48.833 69 65.5s66.833 25 109.5 25s78.667 -8.16699 108 -24.5s51.166 -37.666 65.499 -63.999s21.5 -54.833 21.5 -85.5
c0 -28.667 -9.33301 -56.5 -28 -83.5s-44.334 -48.5 -77.001 -64.5c51.333 -22 88.333 -48.667 111 -80zM188.001 650.498c-20.667 -23.667 -30.999 -53.502 -30.999 -89.502c0 -34.667 12.167 -64.167 36.5 -88.5s65.5 -46.166 123.5 -65.499
c20.667 15.333 36.5 34.833 47.5 58.5s16.5 47.834 16.5 72.501c0 46 -9.66699 82.167 -29 108.5s-46.333 39.5 -81 39.5s-62.334 -11.833 -83.001 -35.5zM378.002 54.9961c27.333 27.333 40.9961 63.333 40.9961 108s-17.167 81.5 -51.5 110.5
s-82.166 53.167 -143.499 72.5c-31.333 -15.333 -56.166 -36.5 -74.499 -63.5s-27.5 -59.167 -27.5 -96.5c0 -32.667 6.33301 -62 19 -88s30.334 -46.5 53.001 -61.5s48.334 -22.5 77.001 -22.5c44 0 79.667 13.667 107 41z" />
    <glyph glyph-name="nine.osf" horiz-adv-x="540" 
d="M388 467.5c36 -23 64.999 -58.168 86.999 -105.501s33 -106 33 -176c0 -94 -12.333 -170.667 -37 -230s-56.5 -102.166 -95.5 -128.499s-80.833 -39.5 -125.5 -39.5c-46 0 -85.333 14.5 -118 43.5s-53 67.5 -61 115.5l22 7c8 -36 25.333 -65.167 52 -87.5
s55.334 -33.5 86.001 -33.5c31.333 0 60.333 10.833 87 32.5s48.5 54 65.5 97s27.5 95.167 31.5 156.5c-40 -47.333 -95.333 -71 -166 -71c-42 0 -79.333 9 -112 27s-58.167 43.667 -76.5 77s-27.5 72.333 -27.5 117c0 48.667 10.667 90.5 32 125.5s50 61.667 86 80
s75.667 27.5 119 27.5c42.667 0 82 -11.5 118 -34.5zM368.999 137.999c24.667 38.667 37.001 87.333 37.001 146c0 35.333 -6.33301 67.5 -19 96.5s-29.334 52 -50.001 69s-42.667 25.5 -66 25.5c-26.667 0 -50.834 -8.16699 -72.501 -24.5s-38.5 -39 -50.5 -68
s-18 -61.833 -18 -98.5c0 -38 5.5 -72.5 16.5 -103.5s26.5 -55.5 46.5 -73.5s43 -27 69 -27c46.667 0 82.334 19.333 107.001 58z" />
    <glyph glyph-name="zero.ss01" horiz-adv-x="553" 
d="M151 27.5c-37.333 26.333 -66.833 64.168 -88.5 113.501s-32.5 107.333 -32.5 174s10.833 124.667 32.5 174s51.167 87.166 88.5 113.499s79.333 39.5 126 39.5c46 0 87.667 -13.167 125 -39.5s66.833 -64.166 88.5 -113.499s32.5 -107.333 32.5 -174
s-10.833 -124.834 -32.5 -174.501s-51.167 -87.5 -88.5 -113.5s-79 -39 -125 -39c-46.667 0 -88.667 13.167 -126 39.5zM353.5 48.502c22.333 25 39.833 60.333 52.5 106s19 99.167 19 160.5s-6.33301 114.833 -19 160.5s-30.167 81 -52.5 106s-47.833 37.5 -76.5 37.5
s-54.334 -12.5 -77.001 -37.5s-40.334 -60.5 -53.001 -106.5s-19 -99.333 -19 -160s6.33301 -114 19 -160s30.334 -81.5 53.001 -106.5s48.334 -37.5 77.001 -37.5s54.167 12.5 76.5 37.5z" />
    <glyph glyph-name="one.ss01" horiz-adv-x="400" 
d="M371 17v-17h-307v17l67 12l40 32v449l-126 -47l-8 17l210 150h16v-571l33 -30z" />
    <glyph glyph-name="two.ss01" horiz-adv-x="537" 
d="M490 170v-169.999h-463v20l213 226c38.667 40.667 67.167 79.667 85.5 117s27.5 74.666 27.5 111.999c0 44.667 -11.5 79.334 -34.5 104.001s-50.833 37 -83.5 37c-34.667 0 -63.834 -13.167 -87.501 -39.5s-35.5 -59.166 -35.5 -98.499c0 -44.667 12.333 -83 37 -115
l-9 -12c-34.667 9.33301 -62.167 25.5 -82.5 48.5s-30.5 51.167 -30.5 84.5c0 28 8.5 54 25.5 78s41.333 43.333 73 58s68.167 22 109.5 22c38 0 73 -7 105 -21s57.667 -35.333 77 -64s29 -64 29 -106c0 -48.667 -12.167 -94.334 -36.5 -137.001s-59.5 -85.667 -105.5 -129
c-35.333 -33.333 -68.666 -61.833 -99.999 -85.5s-68 -47.834 -110 -72.501l345 57l24 24l12 62h15z" />
    <glyph glyph-name="three.ss01" horiz-adv-x="494" 
d="M404.5 339c37 -34.667 55.499 -81.332 55.499 -139.999c0 -38 -9 -73.167 -27 -105.5s-43.667 -58 -77 -77s-71.666 -28.5 -114.999 -28.5c-50.667 0 -94.334 12.667 -131.001 38s-64 61.333 -82 108l20 13c17.333 -30.667 39.5 -53.667 66.5 -69s57.5 -23 91.5 -23
c51.333 0 91 15 119 45s42 67 42 111c0 50.667 -15.167 90 -45.5 118s-72.166 42 -125.499 42h-50v17l160 169h-199l-22 -22l-11 -54h-15v149h384v-20l-201 -215c71.333 -2.66699 125.5 -21.334 162.5 -56.001z" />
    <glyph glyph-name="four.ss01" horiz-adv-x="557" 
d="M406 51l23.999 -24l62 -12v-15h-243v15l54 11l22 22v108h-307v15l250 459h93v-18c-37.333 -76 -71.166 -134.5 -101.499 -175.5s-64.833 -81.5 -103.5 -121.5c-18.667 -19.333 -34.667 -36.833 -48 -52.5s-26.333 -33.167 -39 -52.5h257v111l40 38l26 70h14v-219h133v-54
h-133v-105z" />
    <glyph glyph-name="five.ss01" horiz-adv-x="496" 
d="M356.5 392c33 -16 59 -39.167 78 -69.5s28.5 -65.833 28.5 -106.5c0 -43.333 -9.5 -82.333 -28.5 -117s-45.667 -61.834 -80 -81.501s-73.5 -29.5 -117.5 -29.5c-50.667 0 -95.334 15.5 -134.001 46.5s-63.334 75.5 -74.001 133.5l24 7
c8 -37.333 27.5 -67.166 58.5 -89.499s65.833 -33.5 104.5 -33.5c49.333 0 88.333 16 117 48s43 72.333 43 121s-12.667 88.167 -38 118.5s-58 45.5 -98 45.5c-31.333 0 -61.666 -9.5 -90.999 -28.5s-55.333 -47.167 -78 -84.5l-17 9l27 349h346v-165h-15l-12 61l-25 25
h-245l-31 -180c42.667 30 92.334 45 149.001 45c39.333 0 75.5 -8 108.5 -24z" />
    <glyph glyph-name="six.ss01" horiz-adv-x="533" 
d="M389.5 420c34.333 -18 61.5 -44.332 81.5 -78.999s30 -76 30 -124c0 -46 -10.5 -86.333 -31.5 -121s-49.5 -61.334 -85.5 -80.001s-75.667 -28 -119 -28c-40 0 -77.5 8.66699 -112.5 26s-63.667 44.5 -86 81.5s-33.5 83.5 -33.5 139.5
c0 57.333 15.833 112.666 47.5 165.999s74.667 100.833 129 142.5s115.166 75.167 182.499 100.5l9 -22c-49.333 -28.667 -91.166 -58.167 -125.499 -88.5s-63.5 -65.166 -87.5 -104.499c26 12 55 18 87 18c42 0 80.167 -9 114.5 -27zM364.5 67.501
c25.667 35 38.499 82.167 38.499 141.5c0 38.667 -6.16699 73.667 -18.5 105s-29.166 56 -50.499 74s-45 27 -71 27c-40.667 0 -73.167 -19.333 -97.5 -58s-36.5 -87.667 -36.5 -147c0 -40 6.16699 -74.833 18.5 -104.5s28.833 -52.167 49.5 -67.5s43 -23 67 -23
c41.333 0 74.833 17.5 100.5 52.5z" />
    <glyph glyph-name="seven.ss01" horiz-adv-x="486" 
d="M456 630l-0.000976562 -50.001l-16 -27c-46 -78 -81.167 -141.333 -105.5 -190s-44.166 -102.834 -59.499 -162.501s-23 -126.5 -23 -200.5h-100c0 60.667 9.33301 118.334 28 173.001s41.167 103.334 67.5 146.001s60.833 94 103.5 154c38.667 55.333 57 81.333 55 78
h-315l-24 -24l-12 -62h-15v165h416z" />
    <glyph glyph-name="eight.ss01" horiz-adv-x="522" 
d="M449 269c24 -26 35.998 -59.001 35.998 -99.001c0 -34 -9.33301 -64.833 -28 -92.5s-45.167 -49.5 -79.5 -65.5s-73.5 -24 -117.5 -24c-69.333 0 -123.833 15.333 -163.5 46s-59.5 71.334 -59.5 122.001c0 34.667 12 66.5 36 95.5s58 51.5 102 67.5
c-30 18 -53.833 40.333 -71.5 67s-26.5 57 -26.5 91c0 30.667 8.33301 58.5 25 83.5s39.334 44.833 68.001 59.5s60.334 22 95.001 22c52.667 0 95.667 -14 129 -42s50 -65 50 -111c0 -29.333 -9.66699 -56.333 -29 -81s-46 -46 -80 -64c52 -24 90 -49 114 -75z
M193.998 584.999c-19.333 -20.667 -29 -47.332 -29 -79.999c0 -29.333 11 -56.333 33 -81s51.667 -44.334 89 -59.001l7 -3c44.667 32 67 74.333 67 127c0 36 -9.66699 66.167 -29 90.5s-43.333 36.5 -72 36.5c-24.667 0 -46.667 -10.333 -66 -31zM358.498 45.001
c25.667 20.667 38.499 50.333 38.499 89c0 32.667 -12.833 62.167 -38.5 88.5s-68.167 49.833 -127.5 70.5l-14 5c-31.333 -15.333 -55.166 -35.833 -71.499 -61.5s-24.5 -52.5 -24.5 -80.5c0 -30 6.5 -55.667 19.5 -77s30.167 -37.5 51.5 -48.5s44 -16.5 68 -16.5
c40 0 72.833 10.333 98.5 31z" />
    <glyph glyph-name="nine.ss01" horiz-adv-x="533" 
d="M143.5 210c-34.333 18 -61.5 44.332 -81.5 78.999s-30 76 -30 124c0 46 10.5 86.333 31.5 121s49.5 61.334 85.5 80.001s75.667 28 119 28c40 0 77.5 -8.66699 112.5 -26s63.667 -44.5 86 -81.5s33.5 -83.5 33.5 -139.5c0 -57.333 -15.833 -112.666 -47.5 -165.999
s-74.667 -100.833 -129 -142.5s-115.166 -75.167 -182.499 -100.5l-9 22c49.333 28.667 91.166 58.167 125.499 88.5s63.5 65.166 87.5 104.499c-26 -12 -55 -18 -87 -18c-42 0 -80.167 9 -114.5 27zM168.5 562.499c-25.667 -35 -38.499 -82.167 -38.499 -141.5
c0 -38.667 6.16699 -73.667 18.5 -105s29.166 -56 50.499 -74s45 -27 71 -27c40.667 0 73.167 19.333 97.5 58s36.5 87.667 36.5 147c0 40 -6.16699 74.833 -18.5 104.5s-28.833 52.167 -49.5 67.5s-43 23 -67 23c-41.333 0 -74.833 -17.5 -100.5 -52.5z" />
    <glyph glyph-name="zero.ss01.tf" 
d="M173 27.5c-37.333 26.333 -66.833 64.168 -88.5 113.501s-32.5 107.333 -32.5 174s10.833 124.667 32.5 174s51.167 87.166 88.5 113.499s79.333 39.5 126 39.5c46 0 87.667 -13.167 125 -39.5s66.833 -64.166 88.5 -113.499s32.5 -107.333 32.5 -174
s-10.833 -124.834 -32.5 -174.501s-51.167 -87.5 -88.5 -113.5s-79 -39 -125 -39c-46.667 0 -88.667 13.167 -126 39.5zM375.5 48.502c22.333 25 39.833 60.333 52.5 106s19 99.167 19 160.5s-6.33301 114.833 -19 160.5s-30.167 81 -52.5 106s-47.833 37.5 -76.5 37.5
s-54.334 -12.5 -77.001 -37.5s-40.334 -60.5 -53.001 -106.5s-19 -99.333 -19 -160s6.33301 -114 19 -160s30.334 -81.5 53.001 -106.5s48.334 -37.5 77.001 -37.5s54.167 12.5 76.5 37.5z" />
    <glyph glyph-name="one.ss01.tf" 
d="M467 17v-17h-307v17l67 12l40 32v449l-126 -47l-8 17l210 150h16v-571l33 -30z" />
    <glyph glyph-name="two.ss01.tf" 
d="M532 170v-169.999h-463v20l213 226c38.667 40.667 67.167 79.667 85.5 117s27.5 74.666 27.5 111.999c0 44.667 -11.5 79.334 -34.5 104.001s-50.833 37 -83.5 37c-34.667 0 -63.834 -13.167 -87.501 -39.5s-35.5 -59.166 -35.5 -98.499c0 -44.667 12.333 -83 37 -115
l-9 -12c-34.667 9.33301 -62.167 25.5 -82.5 48.5s-30.5 51.167 -30.5 84.5c0 28 8.5 54 25.5 78s41.333 43.333 73 58s68.167 22 109.5 22c38 0 73 -7 105 -21s57.667 -35.333 77 -64s29 -64 29 -106c0 -48.667 -12.167 -94.334 -36.5 -137.001s-59.5 -85.667 -105.5 -129
c-35.333 -33.333 -68.666 -61.833 -99.999 -85.5s-68 -47.834 -110 -72.501l345 57l24 24l12 62h15z" />
    <glyph glyph-name="three.ss01.tf" 
d="M460.5 339c37 -34.667 55.499 -81.332 55.499 -139.999c0 -38 -9 -73.167 -27 -105.5s-43.667 -58 -77 -77s-71.666 -28.5 -114.999 -28.5c-50.667 0 -94.334 12.667 -131.001 38s-64 61.333 -82 108l20 13c17.333 -30.667 39.5 -53.667 66.5 -69s57.5 -23 91.5 -23
c51.333 0 91 15 119 45s42 67 42 111c0 50.667 -15.167 90 -45.5 118s-72.166 42 -125.499 42h-50v17l160 169h-199l-22 -22l-11 -54h-15v149h384v-20l-201 -215c71.333 -2.66699 125.5 -21.334 162.5 -56.001z" />
    <glyph glyph-name="four.ss01.tf" 
d="M427 51l23.999 -24l62 -12v-15h-243v15l54 11l22 22v108h-307v15l250 459h93v-18c-37.333 -76 -71.166 -134.5 -101.499 -175.5s-64.833 -81.5 -103.5 -121.5c-18.667 -19.333 -34.667 -36.833 -48 -52.5s-26.333 -33.167 -39 -52.5h257v111l40 38l26 70h14v-219h133v-54
h-133v-105z" />
    <glyph glyph-name="five.ss01.tf" 
d="M410.5 392c33 -16 59 -39.167 78 -69.5s28.5 -65.833 28.5 -106.5c0 -43.333 -9.5 -82.333 -28.5 -117s-45.667 -61.834 -80 -81.501s-73.5 -29.5 -117.5 -29.5c-50.667 0 -95.334 15.5 -134.001 46.5s-63.334 75.5 -74.001 133.5l24 7
c8 -37.333 27.5 -67.166 58.5 -89.499s65.833 -33.5 104.5 -33.5c49.333 0 88.333 16 117 48s43 72.333 43 121s-12.667 88.167 -38 118.5s-58 45.5 -98 45.5c-31.333 0 -61.666 -9.5 -90.999 -28.5s-55.333 -47.167 -78 -84.5l-17 9l27 349h346v-165h-15l-12 61l-25 25
h-245l-31 -180c42.667 30 92.334 45 149.001 45c39.333 0 75.5 -8 108.5 -24z" />
    <glyph glyph-name="six.ss01.tf" 
d="M423.5 420c34.333 -18 61.5 -44.332 81.5 -78.999s30 -76 30 -124c0 -46 -10.5 -86.333 -31.5 -121s-49.5 -61.334 -85.5 -80.001s-75.667 -28 -119 -28c-40 0 -77.5 8.66699 -112.5 26s-63.667 44.5 -86 81.5s-33.5 83.5 -33.5 139.5
c0 57.333 15.833 112.666 47.5 165.999s74.667 100.833 129 142.5s115.166 75.167 182.499 100.5l9 -22c-49.333 -28.667 -91.166 -58.167 -125.499 -88.5s-63.5 -65.166 -87.5 -104.499c26 12 55 18 87 18c42 0 80.167 -9 114.5 -27zM398.5 67.501
c25.667 35 38.499 82.167 38.499 141.5c0 38.667 -6.16699 73.667 -18.5 105s-29.166 56 -50.499 74s-45 27 -71 27c-40.667 0 -73.167 -19.333 -97.5 -58s-36.5 -87.667 -36.5 -147c0 -40 6.16699 -74.833 18.5 -104.5s28.833 -52.167 49.5 -67.5s43 -23 67 -23
c41.333 0 74.833 17.5 100.5 52.5z" />
    <glyph glyph-name="seven.ss01.tf" 
d="M508 630l-0.000976562 -50.001l-16 -27c-46 -78 -81.167 -141.333 -105.5 -190s-44.166 -102.834 -59.499 -162.501s-23 -126.5 -23 -200.5h-100c0 60.667 9.33301 118.334 28 173.001s41.167 103.334 67.5 146.001s60.833 94 103.5 154c38.667 55.333 57 81.333 55 78
h-315l-24 -24l-12 -62h-15v165h416z" />
    <glyph glyph-name="eight.ss01.tf" 
d="M488 269c24 -26 35.998 -59.001 35.998 -99.001c0 -34 -9.33301 -64.833 -28 -92.5s-45.167 -49.5 -79.5 -65.5s-73.5 -24 -117.5 -24c-69.333 0 -123.833 15.333 -163.5 46s-59.5 71.334 -59.5 122.001c0 34.667 12 66.5 36 95.5s58 51.5 102 67.5
c-30 18 -53.833 40.333 -71.5 67s-26.5 57 -26.5 91c0 30.667 8.33301 58.5 25 83.5s39.334 44.833 68.001 59.5s60.334 22 95.001 22c52.667 0 95.667 -14 129 -42s50 -65 50 -111c0 -29.333 -9.66699 -56.333 -29 -81s-46 -46 -80 -64c52 -24 90 -49 114 -75z
M232.998 584.999c-19.333 -20.667 -29 -47.332 -29 -79.999c0 -29.333 11 -56.333 33 -81s51.667 -44.334 89 -59.001l7 -3c44.667 32 67 74.333 67 127c0 36 -9.66699 66.167 -29 90.5s-43.333 36.5 -72 36.5c-24.667 0 -46.667 -10.333 -66 -31zM397.498 45.001
c25.667 20.667 38.499 50.333 38.499 89c0 32.667 -12.833 62.167 -38.5 88.5s-68.167 49.833 -127.5 70.5l-14 5c-31.333 -15.333 -55.166 -35.833 -71.499 -61.5s-24.5 -52.5 -24.5 -80.5c0 -30 6.5 -55.667 19.5 -77s30.167 -37.5 51.5 -48.5s44 -16.5 68 -16.5
c40 0 72.833 10.333 98.5 31z" />
    <glyph glyph-name="nine.ss01.tf" 
d="M176.5 210c-34.333 18 -61.5 44.332 -81.5 78.999s-30 76 -30 124c0 46 10.5 86.333 31.5 121s49.5 61.334 85.5 80.001s75.667 28 119 28c40 0 77.5 -8.66699 112.5 -26s63.667 -44.5 86 -81.5s33.5 -83.5 33.5 -139.5c0 -57.333 -15.833 -112.666 -47.5 -165.999
s-74.667 -100.833 -129 -142.5s-115.166 -75.167 -182.499 -100.5l-9 22c49.333 28.667 91.166 58.167 125.499 88.5s63.5 65.166 87.5 104.499c-26 -12 -55 -18 -87 -18c-42 0 -80.167 9 -114.5 27zM201.5 562.499c-25.667 -35 -38.499 -82.167 -38.499 -141.5
c0 -38.667 6.16699 -73.667 18.5 -105s29.166 -56 50.499 -74s45 -27 71 -27c40.667 0 73.167 19.333 97.5 58s36.5 87.667 36.5 147c0 40 -6.16699 74.833 -18.5 104.5s-28.833 52.167 -49.5 67.5s-43 23 -67 23c-41.333 0 -74.833 -17.5 -100.5 -52.5z" />
    <glyph glyph-name="zero.tf" 
d="M174 33c-38 30 -68 72.333 -90 127s-33 118 -33 190s11 135.333 33 190s52 97 90 127s80 45 126 45c45.333 0 87 -15 125 -45s68 -72.333 90 -127s33 -118 33 -190s-11 -135.333 -33 -190s-51.833 -97 -89.5 -127s-79.5 -45 -125.5 -45s-88 15 -126 45zM376 56
c22.667 28 40.5 67.5 53.5 118.5s19.5 109.5 19.5 175.5s-6.5 124.5 -19.5 175.5s-30.833 90.5 -53.5 118.5s-48 42 -76 42c-28.667 0 -54.334 -14 -77.001 -42s-40.5 -67.5 -53.5 -118.5s-19.5 -109.5 -19.5 -175.5s6.5 -124.5 19.5 -175.5s30.833 -90.5 53.5 -118.5
s48.334 -42 77.001 -42c28 0 53.333 14 76 42z" />
    <glyph glyph-name="one.tf" 
d="M468 17v-17h-308v17l67 12l40 32v534l-128 -17l-7 18l212 104h17v-642l32 -29z" />
    <glyph glyph-name="two.tf" 
d="M534 170l0.00195312 -170h-463v20l213 276c38 48 64 90.167 78 126.5s21 73.833 21 112.5c0 41.333 -10.333 76.833 -31 106.5s-48 44.5 -82 44.5c-34.667 0 -63.167 -13.167 -85.5 -39.5s-33.5 -60.833 -33.5 -103.5c0 -28.667 5 -54 15 -76s22.667 -40.667 38 -56
l-12 -13c-36.667 6.66699 -67 23.167 -91 49.5s-36 57.5 -36 93.5c0 27.333 7.66699 54.166 23 80.499s38.333 48 69 65s67.667 25.5 111 25.5c67.333 0 120.166 -18.5 158.499 -55.5s57.5 -85.5 57.5 -145.5c0 -78 -37 -158.667 -111 -242
c-88.667 -99.333 -169.334 -178.666 -242.001 -237.999l352 53l24 24l12 62h15z" />
    <glyph glyph-name="three.tf" 
d="M405.5 402c35 -15.333 63.167 -38.501 84.5 -69.501s32 -69.167 32 -114.5c0 -44 -9.83301 -83.333 -29.5 -118s-47.167 -62 -82.5 -82s-76 -30 -122 -30c-49.333 0 -92.333 13 -129 39s-63.667 62 -81 108l20 13c16.667 -32 38.667 -55.833 66 -71.5
s58.333 -23.5 93 -23.5c32 0 61 7.16699 87 21.5s46.5 34.833 61.5 61.5s22.5 57.667 22.5 93c0 39.333 -8.83301 72 -26.5 98s-40.667 45.167 -69 57.5s-57.833 18.5 -88.5 18.5h-51v17l179 209h-216l-22 -22l-11 -54h-15v147h397v-20l-215 -253
c42 -1.33301 80.5 -9.66602 115.5 -24.999z" />
    <glyph glyph-name="four.tf" 
d="M435 51l24 -23.999l62 -12v-15h-247v15l54 11l22 22v110h-312v19l256 523h105v-18c-33.333 -68 -64.5 -122.833 -93.5 -164.5s-62.167 -85.5 -99.5 -131.5c-28 -34.667 -50.833 -64.334 -68.5 -89.001s-35.167 -53.667 -52.5 -87h266v113l42 40l27 75h15v-228h127v-52
h-127v-107z" />
    <glyph glyph-name="five.tf" 
d="M416.5 433c34.333 -19.333 60.5 -45.833 78.5 -79.5s27 -72.167 27 -115.5c0 -50 -10 -94 -30 -132s-47.333 -67.167 -82 -87.5s-72.667 -30.5 -114 -30.5c-52 0 -97.833 14 -137.5 42s-66.5 67 -80.5 117l16 9c19.333 -34 43.333 -59.833 72 -77.5
s60.667 -26.5 96 -26.5c48.667 0 89.167 16.5 121.5 49.5s48.5 79.833 48.5 140.5c0 60 -14.333 106.167 -43 138.5s-64.334 48.5 -107.001 48.5c-31.333 0 -61.5 -9.33301 -90.5 -28s-54.5 -45.667 -76.5 -81l-17 9l29 371h362v-165h-15l-12 61l-25 25h-261l-33 -205
c44.667 30.667 95.334 46 152.001 46c46.667 0 87.167 -9.66699 121.5 -29z" />
    <glyph glyph-name="six.tf" 
d="M426 420c34 -18 61 -44.3311 81 -78.998s30 -76 30 -124c0 -43.333 -10.667 -82.5 -32 -117.5s-50.166 -62.333 -86.499 -82s-76.166 -29.5 -119.499 -29.5c-42.667 0 -81.834 11.5 -117.501 34.5s-64.5 58.333 -86.5 106s-33 106.5 -33 176.5
c0 91.333 12.333 167.666 37 228.999s56.5 106.333 95.5 135s80.5 43 124.5 43s83 -14.333 117 -43s55 -67.334 63 -116.001l-22 -7c-7.33301 36 -23.833 65.167 -49.5 87.5s-53.834 33.5 -84.501 33.5c-31.333 0 -60.5 -11.833 -87.5 -35.5s-49.5 -57.5 -67.5 -101.5
s-29 -95 -33 -153c20.667 24 44.5 41.667 71.5 53s55.5 17 85.5 17c42 0 80 -9 114 -27zM401 67.502c26 35 39.001 82.168 39.001 141.501c0 38 -6 72.667 -18 104s-28.833 56.166 -50.5 74.499s-45.834 27.5 -72.501 27.5c-42.667 0 -76.167 -19.5 -100.5 -58.5
s-36.5 -88.167 -36.5 -147.5c0 -38.667 6.16699 -72.667 18.5 -102s29 -52 50 -68s43.833 -24 68.5 -24c42 0 76 17.5 102 52.5z" />
    <glyph glyph-name="seven.tf" 
d="M508 700l0.00390625 -50.0029c-17.333 -34 -38.333 -72.667 -63 -116c-35.333 -62 -63.333 -115.333 -84 -160s-37.834 -97.834 -51.501 -159.501s-20.5 -133.167 -20.5 -214.5h-103c0 70.667 9.16699 135.334 27.5 194.001s40.166 109.334 65.499 152.001
s57.666 91.334 96.999 146.001c16 22 31.667 44.333 47 67s27.666 43.334 36.999 62.001h-317l-24 -24l-12 -62h-15v165h416z" />
    <glyph glyph-name="eight.tf" 
d="M501 311c22 -32 33.001 -69.667 33.001 -113c0 -39.333 -9.5 -75 -28.5 -107s-46.333 -57.167 -82 -75.5s-77.167 -27.5 -124.5 -27.5c-44.667 0 -84.667 8 -120 24s-63.166 38.333 -83.499 67s-30.5 61.667 -30.5 99c0 41.333 12.833 78.166 38.5 110.499
s60.5 56.5 104.5 72.5c-36.667 18 -64.334 42.5 -83.001 73.5s-28 64.833 -28 101.5c0 30 7.83301 58.5 23.5 85.5s38.667 48.833 69 65.5s66.833 25 109.5 25s78.667 -8.16699 108 -24.5s51.166 -37.666 65.499 -63.999s21.5 -54.833 21.5 -85.5c0 -28 -9 -55.5 -27 -82.5
s-43 -48.5 -75 -64.5c50.667 -21.333 87 -48 109 -80zM216.501 650c-21 -24 -31.501 -53.667 -31.501 -89c0 -34.667 12.333 -64 37 -88s66.334 -45.667 125.001 -65c19.333 16 34.5 35.5 45.5 58.5s16.5 46.833 16.5 71.5c0 46 -9.66699 82.167 -29 108.5
s-46.333 39.5 -81 39.5c-34 0 -61.5 -12 -82.5 -36zM405.5 55c27.667 27.333 41.498 63.332 41.498 107.999s-17.167 81.334 -51.5 110.001s-82.833 52.667 -145.5 72c-30.667 -15.333 -55 -36.5 -73 -63.5s-27 -58.833 -27 -95.5c0 -32.667 6.33301 -62 19 -88
s30.334 -46.5 53.001 -61.5s48.334 -22.5 77.001 -22.5c43.333 0 78.833 13.667 106.5 41z" />
    <glyph glyph-name="nine.tf" 
d="M174 280c-34 18 -61 44.3311 -81 78.998s-30 76 -30 124c0 43.333 10.667 82.5 32 117.5s50.166 62.333 86.499 82s76.166 29.5 119.499 29.5c42.667 0 81.834 -11.5 117.501 -34.5s64.5 -58.333 86.5 -106s33 -106.5 33 -176.5c0 -91.333 -12.333 -167.666 -37 -228.999
s-56.5 -106.333 -95.5 -135s-80.5 -43 -124.5 -43s-83 14.333 -117 43s-55 67.334 -63 116.001l22 7c7.33301 -36 23.833 -65.167 49.5 -87.5s53.834 -33.5 84.501 -33.5c31.333 0 60.5 11.833 87.5 35.5s49.5 57.5 67.5 101.5s29 95 33 153
c-20.667 -24 -44.5 -41.667 -71.5 -53s-55.5 -17 -85.5 -17c-42 0 -80 9 -114 27zM199 632.498c-26 -35 -39.001 -82.168 -39.001 -141.501c0 -38 6 -72.667 18 -104s28.833 -56.166 50.5 -74.499s45.834 -27.5 72.501 -27.5c42.667 0 76.167 19.5 100.5 58.5
s36.5 88.167 36.5 147.5c0 38.667 -6.16699 72.667 -18.5 102s-29 52 -50 68s-43.833 24 -68.5 24c-42 0 -76 -17.5 -102 -52.5z" />
    <glyph glyph-name="zero.tosf" 
d="M172.5 22c-37 22.667 -65.666 53.668 -85.999 93.001s-30.5 82.666 -30.5 129.999s10.167 90.666 30.5 129.999s49 70.333 86 93s79.5 34 127.5 34s90.667 -11.5 128 -34.5s66.166 -54 86.499 -93s30.5 -82.167 30.5 -129.5s-10.167 -90.666 -30.5 -129.999
s-49 -70.333 -86 -93s-79.833 -34 -128.5 -34c-48 0 -90.5 11.333 -127.5 34zM378.001 43.501c22 21.667 38.833 50.334 50.5 86.001s17.5 74.167 17.5 115.5s-5.83301 79.833 -17.5 115.5s-28.5 64.334 -50.5 86.001s-48 32.5 -78 32.5
c-29.333 0 -55.166 -10.833 -77.499 -32.5s-39.333 -50.334 -51 -86.001s-17.5 -74.167 -17.5 -115.5s5.83301 -79.833 17.5 -115.5s28.667 -64.334 51 -86.001s48.166 -32.5 77.499 -32.5c30 0 56 10.833 78 32.5z" />
    <glyph glyph-name="one.tosf" 
d="M459 17v-17h-308v17l67 12l41 33v310l-112 -39l-7 18l194 139h18v-431l33 -30z" />
    <glyph glyph-name="two.tosf" 
d="M533 168v-167.996h-462v20l159 139c29.333 25.333 52.666 46.666 69.999 63.999s31.833 37 43.5 59s17.5 45.333 17.5 70c0 35.333 -10.5 64.833 -31.5 88.5s-46.167 35.5 -75.5 35.5c-30 0 -54.5 -11 -73.5 -33s-28.5 -49.667 -28.5 -83
c0 -17.333 2.66699 -34.833 8 -52.5s12.333 -32.5 21 -44.5l-10 -12c-33.333 7.33301 -59.166 20.666 -77.499 39.999s-27.5 41.666 -27.5 66.999c0 24.667 7.5 48 22.5 70s36.833 39.667 65.5 53s62 20 100 20c36 0 69.333 -6.5 100 -19.5s55.167 -31.833 73.5 -56.5
s27.5 -54.334 27.5 -89.001c0 -37.333 -11.333 -71 -34 -101s-55.667 -59.333 -99 -88l-45 -30c-57.333 -38 -105.333 -68 -144 -90l349 55l24 24l12 62h15z" />
    <glyph glyph-name="three.tosf" 
d="M404.5 193.5c31 -16.333 55.999 -39.5 74.999 -69.5s28.5 -64.667 28.5 -104c0 -46 -9.83301 -86.5 -29.5 -121.5s-46.5 -62.167 -80.5 -81.5s-71.667 -29 -113 -29c-88 0 -152.333 34.667 -193 104l19 15c16 -20.667 35.833 -36.334 59.5 -47.001s48.834 -16 75.501 -16
c29.333 0 56.5 7 81.5 21s45 34.667 60 62s22.5 59.666 22.5 96.999c0 36.667 -7 66.834 -21 90.501s-31.167 40.667 -51.5 51s-39.833 15.5 -58.5 15.5c-17.333 0 -33.833 -1.66699 -49.5 -5s-26.167 -5.66602 -31.5 -6.99902l-15 15l201 237h-230l-22 -22l-11 -54h-15v145
h396v-20l-212 -252h15c35.333 0 68.5 -8.16699 99.5 -24.5z" />
    <glyph glyph-name="four.tosf" 
d="M428 -149l24 -24l62 -12v-15h-242v15l54 11l22 22v152h-309v16l251 474h95v-18c-38 -76 -72.5 -135.667 -103.5 -179s-66.5 -87.333 -106.5 -132c-38 -43.333 -66.333 -79 -85 -107h259v101l39 40l26 70h14v-211h132v-54h-132v-149z" />
    <glyph glyph-name="five.tosf" 
d="M408.5 229.5c35.667 -17.667 63.668 -43.168 84.001 -76.501s30.5 -73.333 30.5 -120c0 -50.667 -10.5 -94.5 -31.5 -131.5s-49 -65.167 -84 -84.5s-72.833 -29 -113.5 -29c-48.667 0 -92.334 13.167 -131.001 39.5s-67 62.5 -85 108.5l19 13
c23.333 -33.333 49 -57.5 77 -72.5s59.667 -22.5 95 -22.5c29.333 0 56.5 8 81.5 24s45 38.333 60 67s22.5 61 22.5 97c0 52 -14.833 94.333 -44.5 127s-68.167 49 -115.5 49c-28.667 0 -56.667 -9.16699 -84 -27.5s-51.333 -42.166 -72 -71.499l-18 6l27 365h364v-165h-15
l-12 61l-25 25h-262l-29 -202c17.333 14 38.333 25.333 63 34s51 13 79 13c44 0 83.833 -8.83301 119.5 -26.5z" />
    <glyph glyph-name="six.tosf" 
d="M426 420c34 -18 61 -44.3311 81 -78.998s30 -76 30 -124c0 -43.333 -10.667 -82.5 -32 -117.5s-50.166 -62.333 -86.499 -82s-76.166 -29.5 -119.499 -29.5c-42.667 0 -81.834 11.5 -117.501 34.5s-64.5 58.333 -86.5 106s-33 106.5 -33 176.5
c0 91.333 12.333 167.666 37 228.999s56.5 106.333 95.5 135s80.5 43 124.5 43s83 -14.333 117 -43s55 -67.334 63 -116.001l-22 -7c-7.33301 36 -23.833 65.167 -49.5 87.5s-53.834 33.5 -84.501 33.5c-31.333 0 -60.5 -11.833 -87.5 -35.5s-49.5 -57.5 -67.5 -101.5
s-29 -95 -33 -153c20.667 24 44.5 41.667 71.5 53s55.5 17 85.5 17c42 0 80 -9 114 -27zM401 67.502c26 35 39.001 82.168 39.001 141.501c0 38 -6 72.667 -18 104s-28.833 56.166 -50.5 74.499s-45.834 27.5 -72.501 27.5c-42.667 0 -76.167 -19.5 -100.5 -58.5
s-36.5 -88.167 -36.5 -147.5c0 -38.667 6.16699 -72.667 18.5 -102s29 -52 50 -68s43.833 -24 68.5 -24c42 0 76 17.5 102 52.5z" />
    <glyph glyph-name="seven.tosf" 
d="M508 490l0.00195312 -50.001c-22.667 -44.667 -45 -85 -67 -121c-34.667 -60 -62 -111.5 -82 -154.5s-36.667 -94.5 -50 -154.5s-20 -130 -20 -210h-103c0 70.667 9.16699 134.834 27.5 192.501s40.166 107.667 65.499 150s57.666 89.5 96.999 141.5
c21.333 29.333 38.333 53.333 51 72s23.667 37 33 55h-317l-24 -24l-12 -62h-15v165h416z" />
    <glyph glyph-name="eight.tosf" 
d="M500 310c22.667 -31.333 34.001 -68.668 34.001 -112.001c0 -38.667 -9.5 -74 -28.5 -106s-46.333 -57.333 -82 -76s-77.167 -28 -124.5 -28c-44 0 -83.833 8.16699 -119.5 24.5s-63.667 38.833 -84 67.5s-30.5 61.334 -30.5 98.001c0 41.333 13.333 78.333 40 111
s62 57 106 73c-37.333 18 -65.666 42.167 -84.999 72.5s-29 64.166 -29 101.499c0 30 7.83301 58.5 23.5 85.5s38.667 48.833 69 65.5s66.833 25 109.5 25s78.667 -8.16699 108 -24.5s51.166 -37.666 65.499 -63.999s21.5 -54.833 21.5 -85.5
c0 -28.667 -9.33301 -56.5 -28 -83.5s-44.334 -48.5 -77.001 -64.5c51.333 -22 88.333 -48.667 111 -80zM216.001 650.498c-20.667 -23.667 -30.999 -53.502 -30.999 -89.502c0 -34.667 12.167 -64.167 36.5 -88.5s65.5 -46.166 123.5 -65.499
c20.667 15.333 36.5 34.833 47.5 58.5s16.5 47.834 16.5 72.501c0 46 -9.66699 82.167 -29 108.5s-46.333 39.5 -81 39.5s-62.334 -11.833 -83.001 -35.5zM406.002 54.9961c27.333 27.333 40.9961 63.333 40.9961 108s-17.167 81.5 -51.5 110.5
s-82.166 53.167 -143.499 72.5c-31.333 -15.333 -56.166 -36.5 -74.499 -63.5s-27.5 -59.167 -27.5 -96.5c0 -32.667 6.33301 -62 19 -88s30.334 -46.5 53.001 -61.5s48.334 -22.5 77.001 -22.5c44 0 79.667 13.667 107 41z" />
    <glyph glyph-name="nine.tosf" 
d="M418 467.5c36 -23 64.999 -58.168 86.999 -105.501s33 -106 33 -176c0 -94 -12.333 -170.667 -37 -230s-56.5 -102.166 -95.5 -128.499s-80.833 -39.5 -125.5 -39.5c-46 0 -85.333 14.5 -118 43.5s-53 67.5 -61 115.5l22 7c8 -36 25.333 -65.167 52 -87.5
s55.334 -33.5 86.001 -33.5c31.333 0 60.333 10.833 87 32.5s48.5 54 65.5 97s27.5 95.167 31.5 156.5c-40 -47.333 -95.333 -71 -166 -71c-42 0 -79.333 9 -112 27s-58.167 43.667 -76.5 77s-27.5 72.333 -27.5 117c0 48.667 10.667 90.5 32 125.5s50 61.667 86 80
s75.667 27.5 119 27.5c42.667 0 82 -11.5 118 -34.5zM398.999 137.999c24.667 38.667 37.001 87.333 37.001 146c0 35.333 -6.33301 67.5 -19 96.5s-29.334 52 -50.001 69s-42.667 25.5 -66 25.5c-26.667 0 -50.834 -8.16699 -72.501 -24.5s-38.5 -39 -50.5 -68
s-18 -61.833 -18 -98.5c0 -38 5.5 -72.5 16.5 -103.5s26.5 -55.5 46.5 -73.5s43 -27 69 -27c46.667 0 82.334 19.333 107.001 58z" />
    <glyph glyph-name="colon.case" horiz-adv-x="210" 
d="M65.5 511.5c-11 11 -16.5 24.167 -16.5 39.5s5.5 28.5 16.5 39.5s24.167 16.5 39.5 16.5s28.5 -5.5 39.5 -16.5s16.5 -24.167 16.5 -39.5s-5.5 -28.5 -16.5 -39.5s-24.167 -16.5 -39.5 -16.5s-28.5 5.5 -39.5 16.5zM65.5 109c-11 10.667 -16.5 24 -16.5 40
c0 15.333 5.5 28.5 16.5 39.5s24.167 16.5 39.5 16.5s28.5 -5.5 39.5 -16.5s16.5 -24.167 16.5 -39.5c0 -16 -5.5 -29.333 -16.5 -40s-24.167 -16 -39.5 -16s-28.5 5.33301 -39.5 16z" />
    <glyph glyph-name="comma.tf" 
d="M235 -113c10.667 8.66699 20.6689 17.334 30.002 26.001s17 17 23 25c10.667 14 16 26 16 36c0 11.333 -6.33301 20.333 -19 27c-8 4 -15 9.83301 -21 17.5s-9 17.167 -9 28.5c0 14 4.83301 25.667 14.5 35s21.167 14 34.5 14c17.333 0 31.666 -6 42.999 -18
s17 -27.333 17 -46c0 -22.667 -3.5 -42 -10.5 -58s-18.333 -31.833 -34 -47.5s-38.834 -34.834 -69.501 -57.501z" />
    <glyph glyph-name="period.tf" 
d="M260 4c-10.667 10.667 -16 24 -16 40c0 15.333 5.33301 28.5 16 39.5s24 16.5 40 16.5c15.333 0 28.5 -5.5 39.5 -16.5s16.5 -24.167 16.5 -39.5c0 -16 -5.5 -29.333 -16.5 -40s-24.167 -16 -39.5 -16c-16 0 -29.333 5.33301 -40 16z" />
    <glyph glyph-name="braceleft.case" horiz-adv-x="303" 
d="M104.5 22c-43.667 28 -65.5 67.0029 -65.5 117.003c0 59.333 34.667 107.666 104 144.999c12.667 6.66699 19 13.667 19 21c0 10.667 -12.833 19.667 -38.5 27s-52.167 11 -79.5 11v15c27.333 0 53.833 3.66699 79.5 11s38.5 16 38.5 26c0 7.33301 -6 14.666 -18 21.999
c-68.667 38 -103 86 -103 144c0 50.667 21.5 89.834 64.5 117.501s102.167 41.5 177.5 41.5v-21c-46 0 -82.667 -11.833 -110 -35.5s-41 -60.5 -41 -110.5c0 -24 3.5 -43.333 10.5 -58s16.833 -29.334 29.5 -44.001c8 -10 13.833 -18.167 17.5 -24.5s5.5 -13.833 5.5 -22.5
c0 -12 -6.33301 -22.667 -19 -32s-30.667 -16.666 -54 -21.999c23.333 -4.66699 41.333 -11.834 54 -21.501s19 -20.167 19 -31.5c0 -8.66699 -1.66699 -16 -5 -22s-9.33301 -14.667 -18 -26c-12.667 -14.667 -22.5 -29.334 -29.5 -44.001s-10.5 -34 -10.5 -58
c0 -50 13.667 -86.833 41 -110.5s64 -35.5 110 -35.5v-21c-75.333 0 -134.833 14 -178.5 42z" />
    <glyph glyph-name="braceright.case" horiz-adv-x="303" 
d="M198.5 22c43.667 28 65.5 67.0029 65.5 117.003c0 59.333 -34.667 107.666 -104 144.999c-12.667 6.66699 -19 13.667 -19 21c0 10.667 12.833 19.667 38.5 27s52.167 11 79.5 11v15c-27.333 0 -53.833 3.66699 -79.5 11s-38.5 16 -38.5 26c0 7.33301 6 14.666 18 21.999
c68.667 38 103 86 103 144c0 50.667 -21.5 89.834 -64.5 117.501s-102.167 41.5 -177.5 41.5v-21c46 0 82.667 -11.833 110 -35.5s41 -60.5 41 -110.5c0 -24 -3.5 -43.333 -10.5 -58s-16.833 -29.334 -29.5 -44.001c-8 -10 -13.833 -18.167 -17.5 -24.5
s-5.5 -13.833 -5.5 -22.5c0 -12 6.33301 -22.667 19 -32s30.667 -16.666 54 -21.999c-23.333 -4.66699 -41.333 -11.834 -54 -21.501s-19 -20.167 -19 -31.5c0 -8.66699 1.66699 -16 5 -22s9.33301 -14.667 18 -26c12.667 -14.667 22.5 -29.334 29.5 -44.001
s10.5 -34 10.5 -58c0 -50 -13.667 -86.833 -41 -110.5s-64 -35.5 -110 -35.5v-21c75.333 0 134.833 14 178.5 42z" />
    <glyph glyph-name="bracketleft.case" horiz-adv-x="337" 
d="M171 678v-656h131v-22h-224v700h224v-22h-131z" />
    <glyph glyph-name="bracketright.case" horiz-adv-x="337" 
d="M166 678v-656h-131v-22h224v700h-224v-22h131z" />
    <glyph glyph-name="parenleft.case" horiz-adv-x="273" 
d="M91 572c38 65.333 90.333 114 157 146l9 -15c-42.667 -34 -75.5 -82.5 -98.5 -145.5s-34.5 -132.167 -34.5 -207.5s11.5 -144.333 34.5 -207s55.833 -111 98.5 -145l-9 -15c-66.667 32 -119 80.667 -157 146s-57 139 -57 221c0 82.667 19 156.667 57 222z" />
    <glyph glyph-name="parenright.case" horiz-adv-x="273" 
d="M182 572c-38 65.333 -90.333 114 -157 146l-9 -15c42.667 -34 75.5 -82.5 98.5 -145.5s34.5 -132.167 34.5 -207.5s-11.5 -144.333 -34.5 -207s-55.833 -111 -98.5 -145l9 -15c66.667 32 119 80.667 157 146s57 139 57 221c0 82.667 -19 156.667 -57 222z" />
    <glyph glyph-name="emdash.case" horiz-adv-x="939" 
d="M889 366v-32h-839v32h839z" />
    <glyph glyph-name="endash.case" horiz-adv-x="657" 
d="M607 366v-32h-557v32h557z" />
    <glyph glyph-name="hyphen.case" horiz-adv-x="353" 
d="M303 366v-32h-253v32h253z" />
    <glyph glyph-name="uni00AD.case" horiz-adv-x="328" 
d="M278 366v-32h-228v32h228z" />
    <glyph glyph-name="guillemotleft.case" horiz-adv-x="521" 
d="M158 350l133 -182l-14 -15l-239 188v20l239 185l14 -14zM358 350l133 -182l-14 -15l-239 188v20l239 185l14 -14z" />
    <glyph glyph-name="guillemotright.case" horiz-adv-x="521" 
d="M363 350l-133 -182l14 -15l239 188v20l-239 185l-14 -14zM163 350l-133 -182l14 -15l239 188v20l-239 185l-14 -14z" />
    <glyph glyph-name="guilsinglleft.case" horiz-adv-x="321" 
d="M158 350l133 -182l-14 -15l-239 188v20l239 185l14 -14z" />
    <glyph glyph-name="guilsinglright.case" horiz-adv-x="321" 
d="M163 350l-133 -182l14 -15l239 188v20l-239 185l-14 -14z" />
    <glyph glyph-name="space.tf" 
d="M0 0z" />
    <glyph glyph-name="dollar.ss01" horiz-adv-x="470" 
d="M394 44c-32 -32 -77.668 -50.3311 -137.001 -54.998v-59h-39v58c-68.667 2.66699 -127.667 29.334 -177 80.001v174h16l50 -134c32.667 -56 69.667 -87.333 111 -94v272l-26 12c-54 24 -93.333 51.167 -118 81.5s-37 65.833 -37 106.5c0 31.333 8.16699 58.833 24.5 82.5
s38.333 41.667 66 54s57.834 18.833 90.501 19.5v58h39v-59c30.667 -2.66699 57.167 -8.33398 79.5 -17.001s43.5 -21 63.5 -37v-179h-16l-34 106c-15.333 29.333 -30 51.666 -44 66.999s-30.333 25.666 -49 30.999v-229c5.33301 -2.66699 10.666 -5 15.999 -7
c4.66699 -2.66699 9 -5 13 -7c52.667 -24.667 91.834 -52.167 117.501 -82.5s38.5 -68.833 38.5 -115.5c0 -52.667 -16 -95 -48 -127zM134.499 459.002c15 -16.667 42.833 -35.665 83.5 -56.998v215c-33.333 0 -59.333 -9.83301 -78 -29.5s-28 -42.834 -28 -69.501
c0 -22.667 7.5 -42.334 22.5 -59.001zM330.499 50.5039c19 20.333 28.501 49.167 28.501 86.5c0 24 -7.33301 45.833 -22 65.5s-41.334 40.5 -80.001 62.5v-251c30 4 54.5 16.167 73.5 36.5z" />
    <glyph glyph-name="Euro.ss01" horiz-adv-x="631" 
d="M314 587c-25.333 -16 -47.167 -40.168 -65.5 -72.501s-30.833 -72.166 -37.5 -119.499h266l-13 -30h-257c-1.33301 -21.333 -2 -38 -2 -50s0.666992 -28.667 2 -50h216l-13 -30h-200c7.33301 -47.333 20.166 -87.333 38.499 -120s40.166 -56.834 65.499 -72.501
s52 -23.5 80 -23.5c32 0 57.833 5.83301 77.5 17.5s40.834 32.167 63.501 61.5l22 78l20 -1v-148c-49.333 -26 -108.666 -39 -177.999 -39c-44 0 -86.667 8.66699 -128 26s-77.166 44.5 -107.499 81.5s-50.5 83.5 -60.5 139.5h-68l12 30h52c-2 16 -3 32.667 -3 50s1 34 3 50
h-64l12 30h56c10 56 30.167 102.5 60.5 139.5s66.166 64.167 107.499 81.5s84 26 128 26c70 0 129.333 -13.667 178 -41v-179h-21l-23 111c-24 28.667 -45.667 48.834 -65 60.501s-44 17.5 -74 17.5c-28 0 -54.667 -8 -80 -24z" />
    <glyph glyph-name="sterling.ss01" horiz-adv-x="536" 
d="M495 140c-6 -46.667 -22.001 -83.502 -48.001 -110.502s-59.333 -40.5 -100 -40.5c-17.333 0 -32 1.33301 -44 4s-26.667 7 -44 13c-14 5.33301 -26.167 9.16602 -36.5 11.499s-22.166 3.5 -35.499 3.5c-20 0 -37.5 -1.5 -52.5 -4.5s-36.5 -8.5 -64.5 -16.5l-19 33
c39.333 32 65.833 58.667 79.5 80s20.5 47 20.5 77c0 26 -7.33301 51.333 -22 76h-79v27h60c-3.33301 4 -12 15.167 -26 33.5s-24.833 37.833 -32.5 58.5s-11.5 43 -11.5 67c0 38 9.66699 71.333 29 100s46.166 50.834 80.499 66.501s73.5 23.5 117.5 23.5
c30 0 58.333 -3.66699 85 -11s55.334 -19.666 86.001 -36.999v-186h-19l-38 123c-16.667 26 -34 45.667 -52 59s-38.667 20 -62 20c-36.667 0 -67.834 -12 -93.501 -36s-38.5 -57.333 -38.5 -100c0 -20 3.33301 -37.833 10 -53.5s17 -34.834 31 -57.501
c18.667 -29.333 31 -52.666 37 -69.999h149v-27h-141c3.33301 -15.333 5 -30.333 5 -45c0 -63.333 -30.667 -118 -92 -164c42 16.667 77 25 105 25c18.667 0 42 -2.66699 70 -8c24 -4 40.667 -6 50 -6c32.667 0 58.334 4.83301 77.001 14.5s32.667 29.834 42 60.501z" />
    <glyph glyph-name="yen.ss01" horiz-adv-x="656" 
d="M637 615l-61 -12l-25 -25l-159 -275h150v-30h-167v-94h167v-29h-167v-99l24 -24l62 -12v-15h-264v15l61 12l25 25v98h-167v29h167v92l-1 2h-166v30h148l-160 276l-24 24l-62 12v15h279v-15l-61 -12l-25 -25l147 -268l148 269l-24 24l-62 12v15h217v-15z" />
    <glyph glyph-name="dollar.tf" 
d="M460 51c-35.333 -38 -86.002 -58.9971 -152.002 -62.9971v-63h-31v63c-31.333 2.66699 -64.333 11.5 -99 26.5s-64.667 33.5 -90 55.5v180h15l53 -135c18 -28 37.333 -50.5 58 -67.5s41.667 -27.5 63 -31.5v306l-12 6c-4 2 -7.66699 3.66699 -11 5
c-59.333 26 -102.166 55.167 -128.499 87.5s-39.5 70.166 -39.5 113.499c0 33.333 8.16699 63.166 24.5 89.499s39 47.333 68 63s61.833 24.167 98.5 25.5v63h31v-64c57.333 -3.33301 111.333 -21.333 162 -54v-186h-16l-37 110c-32 59.333 -68.333 93.666 -109 102.999
v-256l31 -15c56.667 -26 99.834 -56.5 129.501 -91.5s44.5 -77.5 44.5 -127.5c0 -57.333 -17.667 -105 -53 -143zM187.498 509.003c17 -20 46.833 -41.667 89.5 -65v242c-37.333 -2 -65.833 -14 -85.5 -36s-29.5 -46.667 -29.5 -74c0 -24.667 8.5 -47 25.5 -67z
M395.498 55.5029c22.333 25 33.5 58.165 33.5 99.498c0 26.667 -9 52.334 -27 77.001s-49.333 49.334 -94 74.001v-292c36 2.66699 65.167 16.5 87.5 41.5z" />
    <glyph glyph-name="Euro.tf" 
d="M268 617c-34 -42.667 -55.668 -103.335 -65.001 -182.002h285l-13 -30h-275c-1.33301 -24 -2 -42.333 -2 -55s0.666992 -31 2 -55h233l-13 -30h-217c9.33301 -79.333 31 -140.166 65 -182.499s75.333 -63.5 124 -63.5c31.333 0 57.333 6.66699 78 20
s40.334 35.666 59.001 66.999l22 70l20 -1v-148c-26.667 -14 -53.834 -24 -81.501 -30s-59.5 -9 -95.5 -9c-46 0 -89.833 10.167 -131.5 30.5s-77.334 51.333 -107.001 93s-49.167 92.834 -58.5 153.501h-68l12 30h52c-2 18 -3 36.333 -3 55s1 37 3 55h-64l12 30h56
c9.33301 60.667 28.833 111.834 58.5 153.501s65.334 72.667 107.001 93s85.5 30.5 131.5 30.5c36.667 0 68.667 -3 96 -9s54.333 -16.333 81 -31v-180h-21l-23 103c-19.333 28.667 -39.666 50.167 -60.999 64.5s-46 21.5 -74 21.5c-48.667 0 -90 -21.333 -124 -64z" />
    <glyph glyph-name="dollar.ss01.tf" 
d="M454 44c-32 -32 -77.668 -50.3311 -137.001 -54.998v-59h-39v58c-68.667 2.66699 -127.667 29.334 -177 80.001v174h16l50 -134c32.667 -56 69.667 -87.333 111 -94v272l-26 12c-54 24 -93.333 51.167 -118 81.5s-37 65.833 -37 106.5c0 31.333 8.16699 58.833 24.5 82.5
s38.333 41.667 66 54s57.834 18.833 90.501 19.5v58h39v-59c30.667 -2.66699 57.167 -8.33398 79.5 -17.001s43.5 -21 63.5 -37v-179h-16l-34 106c-15.333 29.333 -30 51.666 -44 66.999s-30.333 25.666 -49 30.999v-229c5.33301 -2.66699 10.666 -5 15.999 -7
c4.66699 -2.66699 9 -5 13 -7c52.667 -24.667 91.834 -52.167 117.501 -82.5s38.5 -68.833 38.5 -115.5c0 -52.667 -16 -95 -48 -127zM194.499 459.002c15 -16.667 42.833 -35.665 83.5 -56.998v215c-33.333 0 -59.333 -9.83301 -78 -29.5s-28 -42.834 -28 -69.501
c0 -22.667 7.5 -42.334 22.5 -59.001zM390.499 50.5039c19 20.333 28.501 49.167 28.501 86.5c0 24 -7.33301 45.833 -22 65.5s-41.334 40.5 -80.001 62.5v-251c30 4 54.5 16.167 73.5 36.5z" />
    <glyph glyph-name="Euro.ss01.tf" 
d="M267 555.5c-34 -37 -56.001 -91.1641 -66.001 -162.497h302l-13 -30h-292c-1.33301 -20 -2 -36 -2 -48s0.666992 -28 2 -48h247l-13 -30h-231c6.66699 -48.667 19 -89.334 37 -122.001s39.667 -56.834 65 -72.501s52 -23.5 80 -23.5c30.667 0 56.5 6 77.5 18
s42.833 32.333 65.5 61l22 78l20 -1v-148c-49.333 -26 -108.666 -39 -177.999 -39c-44 0 -86.5 8.66699 -127.5 26s-76.5 44.666 -106.5 81.999s-50 84.333 -60 141h-68l13 30h51c-1.33301 20 -2 36 -2 48s0.666992 28 2 48h-64l12 30h56c10 56.667 30 103.667 60 141
s65.5 64.666 106.5 81.999s83.5 26 127.5 26c70 0 129.333 -13.667 178 -41v-179h-21l-23 111c-22.667 28.667 -44.167 48.834 -64.5 60.501s-45.833 17.5 -76.5 17.5c-43.333 0 -82 -18.5 -116 -55.5z" />
    <glyph glyph-name="sterling.ss01.tf" 
d="M526 140c-6 -46.667 -22.001 -83.502 -48.001 -110.502s-59.333 -40.5 -100 -40.5c-17.333 0 -32 1.33301 -44 4s-26.667 7 -44 13c-14 5.33301 -26.167 9.16602 -36.5 11.499s-22.166 3.5 -35.499 3.5c-20 0 -37.5 -1.5 -52.5 -4.5s-36.5 -8.5 -64.5 -16.5l-19 33
c39.333 32 65.833 58.667 79.5 80s20.5 47 20.5 77c0 26 -7.33301 51.333 -22 76h-79v27h60c-3.33301 4 -12 15.167 -26 33.5s-24.833 37.833 -32.5 58.5s-11.5 43 -11.5 67c0 38 9.66699 71.333 29 100s46.166 50.834 80.499 66.501s73.5 23.5 117.5 23.5
c30 0 58.333 -3.66699 85 -11s55.334 -19.666 86.001 -36.999v-186h-19l-38 123c-16.667 26 -34 45.667 -52 59s-38.667 20 -62 20c-36.667 0 -67.834 -12 -93.501 -36s-38.5 -57.333 -38.5 -100c0 -20 3.33301 -37.833 10 -53.5s17 -34.834 31 -57.501
c18.667 -29.333 31 -52.666 37 -69.999h149v-27h-141c3.33301 -15.333 5 -30.333 5 -45c0 -63.333 -30.667 -118 -92 -164c42 16.667 77 25 105 25c18.667 0 42 -2.66699 70 -8c24 -4 40.667 -6 50 -6c32.667 0 58.334 4.83301 77.001 14.5s32.667 29.834 42 60.501z" />
    <glyph glyph-name="yen.ss01.tf" 
d="M500 578l-140 -255h152v-30h-165v-77h165v-30h-165v-135l24 -24l62 -12v-15h-265v15l61 12l25 25v134h-168v30h168v77h-168v30h154l-141 256l-24 24l-62 12v15h277v-15l-61 -12l-25 -25l126 -246l126 247l-24 24l-62 12v15h216v-15l-61 -12z" />
    <glyph glyph-name="sterling.tf" 
d="M541 140c-6 -46.667 -21.5 -83.5 -46.5 -110.5s-57.167 -40.5 -96.5 -40.5c-21.333 0 -40 1.33301 -56 4s-35.333 7 -58 13c-34.667 10 -64 15 -88 15c-20 0 -37.667 -1.5 -53 -4.5s-37 -8.5 -65 -16.5l-20 34c30.667 25.333 54.667 46.666 72 63.999
s31.166 36.666 41.499 57.999s15.5 45.333 15.5 72c0 13.333 -3 26.333 -9 39h-100v31h82l-22 31c-23.333 32.667 -41.166 61.5 -53.499 86.5s-18.5 53.833 -18.5 86.5c0 38.667 9.33301 74 28 106s44.5 57.333 77.5 76s70.833 28 113.5 28
c62.667 0 123.667 -14.333 183 -43v-194h-19l-41 129c-18.667 28 -38.167 48.5 -58.5 61.5s-42.833 19.5 -67.5 19.5c-21.333 0 -41 -6.16699 -59 -18.5s-32.333 -29.833 -43 -52.5s-16 -48 -16 -76c0 -23.333 4.16699 -45.333 12.5 -66s21.166 -46.334 38.499 -77.001
c12 -21.333 21.5 -39.166 28.5 -53.499s12.167 -28.833 15.5 -43.5h157v-31h-152v-6c0 -34 -7 -64.167 -21 -90.5s-29.5 -47.666 -46.5 -63.999s-37.5 -33.5 -61.5 -51.5c24.667 10 46.667 17.333 66 22s41 7 65 7c13.333 0 36 -2.66699 68 -8
c33.333 -5.33301 57.333 -8 72 -8c31.333 0 56.833 5.33301 76.5 16s33.834 30.334 42.501 59.001z" />
    <glyph glyph-name="yen.tf" 
d="M493 648l-131 -284h136v-30h-144v-96h144v-30h-144v-157l24 -24l62 -12v-15h-265v15l61 12l25 25v156h-145v30h145v96h-145v30h131l-141 285l-24 24l-62 12v15h278v-15l-61 -12l-25 -25l124 -272l120 273l-24 24l-62 12v15h209v-15l-61 -12z" />
    <glyph glyph-name="uni0308.case" horiz-adv-x="0" 
d="M-343 790c-10.667 10.667 -16 23.334 -16 38.001c0 15.333 5.33301 28.333 16 39s23.334 16 38.001 16s27.334 -5.33301 38.001 -16s16 -23.667 16 -39c0 -14.667 -5.33301 -27.334 -16 -38.001s-23.334 -16 -38.001 -16s-27.334 5.33301 -38.001 16zM-142 790
c-10.667 10.667 -16 23.334 -16 38.001s5.33301 27.5 16 38.5s23.334 16.5 38.001 16.5s27.334 -5.33301 38.001 -16s16 -23.667 16 -39c0 -14.667 -5.33301 -27.334 -16 -38.001s-23.334 -16 -38.001 -16s-27.334 5.33301 -38.001 16z" />
    <glyph glyph-name="uni0307.case" horiz-adv-x="0" 
d="M-139 802.5c-10 10.333 -15 22.833 -15 37.5c0 14 5 26.167 15 36.5s22.333 15.5 37 15.5s27 -5.16699 37 -15.5s15 -22.5 15 -36.5c0 -14.667 -5 -27.167 -15 -37.5s-22.333 -15.5 -37 -15.5s-27 5.16699 -37 15.5z" />
    <glyph glyph-name="gravecomb.case" horiz-adv-x="0" 
d="M-64 761l-150 147v16h95l69 -154z" />
    <glyph glyph-name="acutecomb.case" horiz-adv-x="0" 
d="M-159 924h95v-16l-150 -147l-14 8z" />
    <glyph glyph-name="uni030B.case" horiz-adv-x="0" 
d="M-307 946h88v-16l-168 -165h-18zM-139 946h89v-16l-169 -165h-18z" />
    <glyph glyph-name="uni0302.case" horiz-adv-x="0" 
d="M-207 924h14l143 -146l-10 -10l-140 74l-141 -74l-10 10z" />
    <glyph glyph-name="uni030C.case" horiz-adv-x="0" 
d="M-351 914l10 11l141 -75l140 75l10 -11l-143 -146h-14z" />
    <glyph glyph-name="uni0306.case" horiz-adv-x="0" 
d="M-282.5 800.5c-26.333 19.667 -39.501 45.5 -39.501 77.5c0 16 3.33301 33 10 51h14c0.666992 -29.333 11 -51.333 31 -66s47 -22 81 -22s60.833 7.33301 80.5 22s29.834 36.667 30.501 66h15c6.66699 -18 10 -35 10 -51c0 -31.333 -13.333 -57 -40 -77
s-58.667 -30 -96 -30c-38 0 -70.167 9.83301 -96.5 29.5z" />
    <glyph glyph-name="uni030A.case" horiz-adv-x="0" 
d="M-188 784.5c-16 16.333 -24 35.5 -24 57.5c0 22.667 8 41.834 24 57.501s35 23.5 57 23.5s41 -7.83301 57 -23.5s24 -34.834 24 -57.501c0 -22 -8 -41.167 -24 -57.5s-35 -24.5 -57 -24.5s-41 8.16699 -57 24.5zM-96 806.5c10 10.333 15 22.166 15 35.499
c0 14 -5 25.833 -15 35.5s-21.667 14.5 -35 14.5s-25 -4.83301 -35 -14.5s-15 -21.5 -15 -35.5c0 -13.333 5 -25.166 15 -35.499s21.667 -15.5 35 -15.5s25 5.16699 35 15.5z" />
    <glyph glyph-name="tildecomb.case" horiz-adv-x="0" 
d="M-196.5 779c-11 6 -22.8311 14.666 -35.498 25.999c-10 9.33301 -19.167 16.5 -27.5 21.5s-18.166 7.5 -29.499 7.5c-12.667 0 -25.167 -4.66699 -37.5 -14s-23.5 -22.666 -33.5 -39.999l-14 5c8.66699 35.333 21.667 62.333 39 81s38.666 28 63.999 28
c16.667 0 30.5 -3 41.5 -9s22.833 -14.667 35.5 -26c10.667 -9.33301 20 -16.333 28 -21s17.667 -7 29 -7c13.333 0 25.666 4.66699 36.999 14s22.666 22.333 33.999 39l15 -5c-8.66699 -35.333 -21.667 -62.333 -39 -81s-39 -28 -65 -28c-16.667 0 -30.5 3 -41.5 9z" />
    <glyph glyph-name="uni0304.case" horiz-adv-x="0" 
d="M-50 855v-35h-271v35h271z" />
    <glyph glyph-name="uni0327.case" horiz-adv-x="0" 
d="M-78 -77.5c14.667 -11 21.999 -28.5 21.999 -52.5c0 -24.667 -8.5 -44.5 -25.5 -59.5s-36.167 -22.5 -57.5 -22.5c-18 0 -34.5 5.16699 -49.5 15.5s-25.5 24.833 -31.5 43.5l12 8c13.333 -26.667 33 -40 59 -40c12.667 0 23.5 5 32.5 15s13.5 22.667 13.5 38
c0 13.333 -4.5 24.5 -13.5 33.5s-19.5 13.5 -31.5 13.5c-6.66699 0 -12.667 -2 -18 -6s-10.333 -8.5 -15 -13.5s-7.66699 -8.5 -9 -10.5l-11 10l63 134h68l-86 -96c10 4 20.333 6 31 6c16.667 0 32.334 -5.5 47.001 -16.5z" />
    <glyph glyph-name="uni0328.case" horiz-adv-x="0" 
d="M-196.5 -185c-19 18 -28.502 41.335 -28.502 70.002c0 27.333 10 52.166 30 74.499s49.667 39.166 89 50.499l16 -10c-23.333 -13.333 -41.166 -28.333 -53.499 -45s-18.5 -33.334 -18.5 -50.001c0 -15.333 4.5 -27.166 13.5 -35.499s21.167 -12.5 36.5 -12.5
c24 0 44.667 5.66699 62 17v-68c-21.333 -12 -45.666 -18 -72.999 -18c-30 0 -54.5 9 -73.5 27z" />
    </font>
</defs>
</svg>
