<svg xmlns="http://www.w3.org/2000/svg" xmlns:xlink="http://www.w3.org/1999/xlink" width="119" height="119" viewBox="0 0 119 119">
  <defs>
    <clipPath id="clip-path">
      <circle id="Ellipse_8" data-name="Ellipse 8" cx="56.234" cy="56.234" r="56.234"/>
    </clipPath>
  </defs>
  <g id="Group_2778" data-name="Group 2778" transform="translate(-840 -1665.137)">
    <g id="Ellipse_9" data-name="Ellipse 9" transform="translate(840 1665.137)" fill="#fff" stroke="#707070" stroke-width="1">
      <circle cx="59.5" cy="59.5" r="59.5" stroke="none"/>
      <circle cx="59.5" cy="59.5" r="59" fill="none"/>
    </g>
    <g id="clean_air_logo-01" data-name="clean air logo-01" transform="translate(843.415 1671.329)">
      <g id="Group_5" data-name="Group 5" transform="translate(0 0)">
        <g id="Group_4" data-name="Group 4" clip-path="url(#clip-path)">
          <rect id="Rectangle_5" data-name="Rectangle 5" width="238.49" height="158.993" transform="translate(-50.003 -36.545)" fill="none"/>
        </g>
      </g>
      <g id="Group_7" data-name="Group 7" transform="translate(18.315 4.895)">
        <g id="Group_6" data-name="Group 6">
          <path id="Path_1" data-name="Path 1" d="M302.654,286.794c-2.313-.621-4.594-1.117-6.954-1.521.5-.792.761-1.18,1.3-1.94,1.552.419,3.1.916,4.61,1.474.016-.031.031-.031.047-.062-.885-1.366-1.738-2.778-2.514-4.206.5-.59.745-.885,1.257-1.443,1.506.59,3.011,1.257,4.47,1.971l.047-.047c-.761-1.428-1.475-2.887-2.126-4.361.636-.605.962-.885,1.63-1.459.761,2.251,1.6,4.424,2.545,6.6-.481.466-.714.7-1.18,1.2-1.4-.636-2.84-1.2-4.3-1.707l-.047.047c.683,1.381,1.443,2.747,2.235,4.067C303.274,285.941,303.073,286.22,302.654,286.794Z" transform="translate(-295.7 -264.961)" fill="#001384"/>
          <path id="Path_2" data-name="Path 2" d="M362.213,256.123c-1.366-1.723-2.747-3.446-4.113-5.184a43.277,43.277,0,0,1,5.153-3.539l.574.993a35.421,35.421,0,0,0-3.492,2.282c.373.512.559.761.931,1.273a30.441,30.441,0,0,1,3.1-2.033c.233.4.357.59.59.993a29.657,29.657,0,0,0-3.011,1.987c.372.512.559.76.931,1.273a31.213,31.213,0,0,1,3.151-2.049l.574.993C365.069,254.059,363.657,255.036,362.213,256.123Z" transform="translate(-348.415 -241.476)" fill="#001384"/>
          <path id="Path_3" data-name="Path 3" d="M420.416,226.337c-.9-2-1.816-4.02-2.716-6.022.7-.31,1.055-.466,1.769-.745.4,1.009.605,1.521,1.009,2.53a34.82,34.82,0,0,1,3.446-1.2c-.31-1.04-.466-1.568-.776-2.608.729-.217,1.1-.31,1.831-.5.543,2.142,1.086,4.268,1.614,6.41-.621.155-.947.248-1.552.419-.31-1.04-.466-1.568-.792-2.623-1.35.4-2.033.636-3.353,1.149.4,1.009.605,1.521,1.009,2.53C421.316,225.933,421.006,226.057,420.416,226.337Z" transform="translate(-398.764 -216.47)" fill="#001384"/>
          <path id="Path_4" data-name="Path 4" d="M476.766,217.195c-.45-2.157-.916-4.315-1.366-6.472a43.329,43.329,0,0,1,6.007-.823c.031.466.047.683.078,1.149a35.03,35.03,0,0,0-4.02.466c.109.621.155.931.264,1.552a34.752,34.752,0,0,1,3.585-.435c.031.466.047.683.093,1.149a32.69,32.69,0,0,0-3.477.419c.109.621.155.931.264,1.552a31.713,31.713,0,0,1,3.632-.419c.031.466.047.683.078,1.149C480.134,216.652,478.473,216.885,476.766,217.195Z" transform="translate(-447.508 -209.797)" fill="#001384"/>
          <path id="Path_5" data-name="Path 5" d="M524.817,215.857c-.078-2.2-.14-4.408-.217-6.6.761-.031,1.133-.031,1.894-.016-.016,1.816-.047,3.632-.062,5.448a30.6,30.6,0,0,1,3.368.186c-.047.466-.062.683-.109,1.149A34.031,34.031,0,0,0,524.817,215.857Z" transform="translate(-489.072 -209.234)" fill="#001384"/>
          <path id="Path_6" data-name="Path 6" d="M565,218.15c.295-2.189.574-4.361.869-6.55a32.828,32.828,0,0,1,3.492.605,4.371,4.371,0,0,1,1.63.667,2.2,2.2,0,0,1,.838,1.04,1.941,1.941,0,0,1,.031,1.226,2,2,0,0,1-.667,1.009,2.451,2.451,0,0,1-1.2.5,4.177,4.177,0,0,1-1.614-.093c-.792-.171-1.2-.248-2-.372.078-.435.109-.667.171-1.1.714.109,1.071.171,1.785.326a2.769,2.769,0,0,0,.854.047,1.1,1.1,0,0,0,.574-.264,1.045,1.045,0,0,0,.295-.528,1,1,0,0,0-.031-.605,1.147,1.147,0,0,0-.419-.5,2.36,2.36,0,0,0-.838-.326c-.5-.093-.73-.14-1.226-.233-.31,1.8-.636,3.585-.947,5.386C565.962,218.29,565.652,218.243,565,218.15Z" transform="translate(-523.201 -211.233)" fill="#001384"/>
          <path id="Path_7" data-name="Path 7" d="M636.2,228.2c.807.31,1.2.481,1.987.823a33.751,33.751,0,0,1,.59,3.43c.031.016.047.016.078.031a34.612,34.612,0,0,1,3.135-1.552c.76.435,1.133.652,1.862,1.133-1.692.636-3.29,1.3-4.92,2.08-.435.823-.667,1.242-1.1,2.064-.574-.31-.869-.45-1.459-.73.4-.838.605-1.257,1.009-2.111C637.069,231.615,636.666,229.938,636.2,228.2Z" transform="translate(-583.35 -225.256)" fill="#001384"/>
          <path id="Path_8" data-name="Path 8" d="M679.591,270.045a3.306,3.306,0,0,1-1.661.947,3.393,3.393,0,0,1-1.8-.109,4.916,4.916,0,0,1-1.707-.947,5.376,5.376,0,0,1-1.273-1.475,3.568,3.568,0,0,1-.45-1.723,3.232,3.232,0,0,1,.59-1.816,3.013,3.013,0,0,1,1.459-1.242,3.179,3.179,0,0,1,1.909-.078,5.231,5.231,0,0,1,2.018,1.04,5.124,5.124,0,0,1,1.443,1.769,3.44,3.44,0,0,1,.357,1.925A2.78,2.78,0,0,1,679.591,270.045Zm-1.366-1.3a2.145,2.145,0,0,0,.574-1.071,1.754,1.754,0,0,0-.124-1.086,2.673,2.673,0,0,0-.776-.978,2.534,2.534,0,0,0-1.118-.559,1.69,1.69,0,0,0-1.071.109,2.414,2.414,0,0,0-.916.792,2.341,2.341,0,0,0-.481,1.118,1.791,1.791,0,0,0,.155,1.024,2.749,2.749,0,0,0,1.723,1.381,1.834,1.834,0,0,0,1.04-.062A1.891,1.891,0,0,0,678.226,268.741Z" transform="translate(-614.185 -255.072)" fill="#001384"/>
          <path id="Path_9" data-name="Path 9" d="M722.612,303c.481.7.729,1.055,1.18,1.769-1.444.916-2.173,1.381-3.617,2.3a1.9,1.9,0,0,1-1.319.295,3.282,3.282,0,0,1-1.412-.574,6.563,6.563,0,0,1-1.335-1.3,5.848,5.848,0,0,1-.916-1.6,2.924,2.924,0,0,1-.171-1.474,2.039,2.039,0,0,1,.621-1.18c1.257-1.18,1.878-1.754,3.135-2.934.559.605.823.9,1.366,1.537-1.273,1.087-1.909,1.63-3.182,2.7a1.245,1.245,0,0,0-.373.605,1.483,1.483,0,0,0,.031.776,2.644,2.644,0,0,0,.435.823,2.415,2.415,0,0,0,.7.636,1.4,1.4,0,0,0,.745.233,1.211,1.211,0,0,0,.683-.2C720.563,304.446,721.246,303.965,722.612,303Z" transform="translate(-649.911 -284.476)" fill="#001384"/>
        </g>
      </g>
      <g id="Group_9" data-name="Group 9" transform="translate(13.084 73.214)">
        <g id="Group_8" data-name="Group 8">
          <path id="Path_10" data-name="Path 10" d="M262,651.883c2-.823,4-1.661,6.007-2.483a33.434,33.434,0,0,0,1.568,3.368,6.153,6.153,0,0,1,.605,1.568,2.442,2.442,0,0,1,0,1.164,1.24,1.24,0,0,1-.559.745,1.1,1.1,0,0,1-.683.171,1.715,1.715,0,0,1-.714-.279,2.64,2.64,0,0,1-.667-.652c-.016.015-.031.015-.062.031a3.525,3.525,0,0,1,.341,1.009,2.2,2.2,0,0,1-.062.962,1.211,1.211,0,0,1-.543.7,1.286,1.286,0,0,1-.993.155,2.37,2.37,0,0,1-1.149-.7,5.764,5.764,0,0,1-1.149-1.614A43.816,43.816,0,0,1,262,651.883Zm4.346.481c.264.559.4.838.667,1.381a2.434,2.434,0,0,0,.435.621,1.374,1.374,0,0,0,.5.326.646.646,0,0,0,.481-.047.66.66,0,0,0,.326-.59,2.073,2.073,0,0,0-.279-1.009c-.279-.543-.4-.807-.667-1.366C267.215,651.961,266.92,652.085,266.346,652.365ZM263.94,653.5c.31.652.466.978.792,1.614a2.953,2.953,0,0,0,.807,1.071.641.641,0,0,0,.714.062.673.673,0,0,0,.31-.4,1.3,1.3,0,0,0,.016-.652,2.941,2.941,0,0,0-.295-.823c-.326-.621-.481-.947-.776-1.6C264.871,653.063,264.561,653.2,263.94,653.5Z" transform="translate(-262 -649.4)" fill="#001384"/>
          <path id="Path_11" data-name="Path 11" d="M291.4,700.763c1.8-1.226,3.585-2.437,5.386-3.663.776,1.149,1.18,1.707,2.018,2.778a5.4,5.4,0,0,1,.869,1.444,2.544,2.544,0,0,1,.155,1.288,1.793,1.793,0,0,1-.574,1.04,1.622,1.622,0,0,1-1.071.481,2.383,2.383,0,0,1-1.288-.372,5.6,5.6,0,0,1-1.366-1.257c-.621-.792-.931-1.2-1.521-2.018.357-.264.543-.388.9-.652.5.7.76,1.055,1.288,1.723a2.885,2.885,0,0,0,.667.652,1.108,1.108,0,0,0,.59.217.827.827,0,0,0,.528-.217.8.8,0,0,0,.295-.5,1.127,1.127,0,0,0-.078-.621,3.3,3.3,0,0,0-.466-.776c-.31-.4-.466-.605-.761-1.009-1.443,1.071-2.871,2.157-4.315,3.228C292.129,701.834,291.881,701.477,291.4,700.763Zm5.51,2.39c-.295,1.474-.419,2.235-.621,3.756-.621-.667-.931-1.009-1.537-1.707.264-1.506.435-2.251.807-3.71C296.087,702.176,296.367,702.517,296.91,703.153Z" transform="translate(-286.837 -689.696)" fill="#001384"/>
          <path id="Path_12" data-name="Path 12" d="M328.6,741.025c1.537-1.536,3.058-3.089,4.594-4.625a39.448,39.448,0,0,0,4.222,3.663c-.279.357-.4.543-.683.916a35.116,35.116,0,0,1-3.027-2.515c-.419.466-.621.683-1.04,1.149,1.118,1.024,1.707,1.506,2.887,2.421-.279.357-.419.543-.683.9a34.379,34.379,0,0,1-2.965-2.483c-.419.466-.621.7-1.04,1.149a37.666,37.666,0,0,0,3.337,2.778c-.279.357-.4.543-.683.916A53.86,53.86,0,0,1,328.6,741.025Z" transform="translate(-318.263 -722.897)" fill="#001384"/>
          <path id="Path_13" data-name="Path 13" d="M368.369,778.867c-.714-.466-1.071-.7-1.769-1.2,2.111-1.164,4.144-2.406,6.131-3.772.761.466,1.133.683,1.925,1.1-.186,2.39-.248,4.75-.217,7.155-.776-.341-1.149-.528-1.909-.916.062-1.832.217-3.648.435-5.464-.016-.016-.031-.016-.062-.031C371.443,776.865,369.922,777.9,368.369,778.867Zm1.273-2.22a38.788,38.788,0,0,0,4.129,2.359c-.2.388-.295.574-.481.962a40.626,40.626,0,0,1-4.222-2.421C369.3,777.19,369.409,777.02,369.642,776.647Z" transform="translate(-350.365 -754.576)" fill="#001384"/>
          <path id="Path_14" data-name="Path 14" d="M430.2,789.424c.186-.419.279-.621.481-1.024a57.723,57.723,0,0,0,6.193,2.235l-.31,1.086c-.978-.264-1.459-.419-2.406-.729-.59,1.692-1.164,3.384-1.754,5.075-.729-.248-1.1-.373-1.832-.652.652-1.676,1.3-3.337,1.971-5.013C431.6,790.045,431.116,789.844,430.2,789.424Z" transform="translate(-404.093 -766.826)" fill="#001384"/>
          <path id="Path_15" data-name="Path 15" d="M470.6,811.017c.528-2.111,1.04-4.206,1.568-6.317.652.155.993.233,1.645.357-.217,1.055-.326,1.583-.543,2.623a35.454,35.454,0,0,0,3.6.559c.124-1.071.186-1.6.326-2.67.667.078,1.009.109,1.676.155-.171,2.157-.341,4.315-.512,6.488-.776-.062-1.164-.093-1.94-.186.124-1.071.186-1.6.326-2.67-1.49-.171-2.22-.295-3.694-.574l-.543,2.638C471.733,811.281,471.361,811.2,470.6,811.017Z" transform="translate(-438.223 -780.595)" fill="#001384"/>
          <path id="Path_16" data-name="Path 16" d="M531.9,817.912c.093-2.157.171-4.33.264-6.488,1.816.031,3.554-.015,5.37-.124.047.45.062.683.109,1.133-1.506.124-2.266.171-3.787.171v1.552c1.459,0,2.173-.031,3.632-.14.031.45.062.683.093,1.133-1.49.124-2.235.155-3.725.155v1.552a37.383,37.383,0,0,0,4.175-.186c.047.45.062.683.109,1.133A59.743,59.743,0,0,1,531.9,817.912Z" transform="translate(-490.008 -786.171)" fill="#001384"/>
          <path id="Path_17" data-name="Path 17" d="M595.011,806.914c-.4-2.127-.807-4.253-1.211-6.395,1.785-.373,3.477-.792,5.215-1.319.14.435.217.652.357,1.071a37.6,37.6,0,0,1-3.663,1.009c.14.605.217.9.357,1.506,1.412-.326,2.126-.512,3.523-.947.14.435.2.652.341,1.086-1.428.45-2.157.652-3.6.978.14.605.217.9.357,1.506a41.13,41.13,0,0,0,4.051-1.1c.14.435.217.652.357,1.071A46.552,46.552,0,0,1,595.011,806.914Z" transform="translate(-542.3 -775.949)" fill="#001384"/>
          <path id="Path_18" data-name="Path 18" d="M649.871,792.11c-.776.31-1.18.466-1.971.745.233-2.39.357-4.734.388-7.14.807-.342,1.211-.528,1.987-.916,1.863,1.521,3.772,2.933,5.774,4.284-.729.435-1.1.636-1.863,1.024-1.459-1.1-2.887-2.282-4.237-3.508l-.062.031C649.964,788.447,649.964,790.279,649.871,792.11Zm-1.086-2.328a42.822,42.822,0,0,0,4.284-1.971l.512.947a38.65,38.65,0,0,1-4.393,2.018C649.033,790.388,648.955,790.186,648.785,789.782Z" transform="translate(-588.003 -763.784)" fill="#001384"/>
          <path id="Path_19" data-name="Path 19" d="M692.536,757.3a.819.819,0,0,0-.714-.217,2.3,2.3,0,0,0-.947.435,2.9,2.9,0,0,0-.543.5,1.241,1.241,0,0,0-.233.481.521.521,0,0,0,.078.4.454.454,0,0,0,.248.2.976.976,0,0,0,.372.016,1.793,1.793,0,0,0,.45-.124,4.431,4.431,0,0,0,.5-.217l.714-.357a7.906,7.906,0,0,1,.993-.45,4.538,4.538,0,0,1,.9-.233,1.822,1.822,0,0,1,.776.062,1.385,1.385,0,0,1,.621.419,1.4,1.4,0,0,1,.341,1.071,2.751,2.751,0,0,1-.543,1.319,7.005,7.005,0,0,1-3.229,2.328,2.961,2.961,0,0,1-1.49.109,1.657,1.657,0,0,1-1.024-.745c.636-.388.947-.574,1.552-.993a.811.811,0,0,0,.528.31,1.492,1.492,0,0,0,.714-.093,3.184,3.184,0,0,0,.807-.435,3.426,3.426,0,0,0,.636-.605,1.307,1.307,0,0,0,.279-.574.549.549,0,0,0-.093-.45.541.541,0,0,0-.373-.186,1.83,1.83,0,0,0-.574.109c-.217.078-.481.2-.776.341-.357.171-.543.248-.9.419a4.083,4.083,0,0,1-1.816.45,1.336,1.336,0,0,1-1.149-.636,1.477,1.477,0,0,1-.2-1.087,2.922,2.922,0,0,1,.559-1.18,5.353,5.353,0,0,1,1.164-1.118,5.43,5.43,0,0,1,1.428-.776,2.661,2.661,0,0,1,1.273-.14,1.671,1.671,0,0,1,.978.512A13.115,13.115,0,0,1,692.536,757.3Z" transform="translate(-622.225 -739.14)" fill="#001384"/>
          <path id="Path_20" data-name="Path 20" d="M724.073,736.1c1.537,1.537,3.058,3.089,4.594,4.625-.574.59-.869.869-1.475,1.413l-4.392-4.812C723.312,736.845,723.56,736.612,724.073,736.1Z" transform="translate(-651.278 -722.643)" fill="#001384"/>
          <path id="Path_21" data-name="Path 21" d="M742.865,708.387l-4.765-4.439a40.654,40.654,0,0,0,3.6-4.548c.372.264.559.388.931.652a35.53,35.53,0,0,1-2.483,3.275c.466.4.714.605,1.18,1.009a34.679,34.679,0,0,0,2.39-3.135c.373.264.559.388.931.652a36.53,36.53,0,0,1-2.452,3.213c.481.4.714.605,1.18,1.009a39.1,39.1,0,0,0,2.747-3.632c.372.264.559.388.931.652A62.088,62.088,0,0,1,742.865,708.387Z" transform="translate(-664.203 -691.639)" fill="#001384"/>
          <path id="Path_22" data-name="Path 22" d="M772.579,664.6c-1.831-1.164-3.663-2.328-5.479-3.508a31.267,31.267,0,0,0,1.754-3.089,6.267,6.267,0,0,1,1.024-1.49,2.855,2.855,0,0,1,1.149-.76,1.676,1.676,0,0,1,1.2.062,1.559,1.559,0,0,1,.854.838,2.676,2.676,0,0,1,.14,1.443,5.858,5.858,0,0,1-.652,1.894c-.481.947-.745,1.412-1.273,2.3-.372-.233-.574-.342-.947-.574.45-.76.667-1.149,1.086-1.956a3.989,3.989,0,0,0,.357-.931,1.175,1.175,0,0,0-.031-.667.735.735,0,0,0-.4-.4.835.835,0,0,0-.574-.062,1.26,1.26,0,0,0-.559.357,3.481,3.481,0,0,0-.543.792c-.248.466-.372.7-.636,1.164,1.552.9,3.1,1.785,4.656,2.685C773.262,663.486,773.029,663.859,772.579,664.6Zm.047-6.255a35.894,35.894,0,0,0,3.756-1.164c-.388.947-.59,1.4-1.024,2.313a33.671,33.671,0,0,1-3.756.885C772.036,659.59,772.238,659.187,772.626,658.349Z" transform="translate(-688.702 -654.701)" fill="#001384"/>
        </g>
      </g>
      <g id="Group_10" data-name="Group 10" transform="translate(15.603 19.417)">
        <path id="Path_23" data-name="Path 23" d="M415.937,450.151c3.43-5.138,6.814-10.213,10.244-15.35,3.43,5.138,6.814,10.213,10.244,15.35H435.7c-1.35,0-2.7.016-4.036,0-.279,0-.342.078-.357.357a35.224,35.224,0,0,1-6.131,19.65,35.648,35.648,0,0,1-15.366,12.821,34.064,34.064,0,0,1-10.725,2.825,35.406,35.406,0,0,1-26.9-8.444,37.351,37.351,0,0,1-3.461-3.368.4.4,0,0,1-.062-.59q2.817-4.167,5.588-8.381c.233-.357.326-.109.45.062a25.506,25.506,0,0,0,23.235,10.523,25.681,25.681,0,0,0,22.025-18.067,27.441,27.441,0,0,0,1.1-7c.016-.295-.062-.4-.388-.4C419.134,450.166,417.582,450.151,415.937,450.151Z" transform="translate(-354.539 -414.312)" fill="#fd7c51"/>
        <path id="Path_24" data-name="Path 24" d="M320.348,302.8a34.951,34.951,0,0,1,21.807,8.428c1.35,1.133,2.561,2.406,3.787,3.663.186.186.047.31-.047.45-.5.776-1.009,1.537-1.521,2.3-1.335,2-2.654,3.989-3.989,5.976-.264.4-.279.4-.559.016a25.88,25.88,0,0,0-7.311-6.8,24.36,24.36,0,0,0-10.275-3.616,25.728,25.728,0,0,0-28.047,19.4,25.623,25.623,0,0,0-.714,5.665c0,.279.078.357.357.357,1.459-.015,2.9,0,4.361,0,.109,0,.233-.047.295.047.078.124-.062.217-.124.31q-4.843,7.241-9.67,14.5a.629.629,0,0,0-.078.14c-.264.373-.264.373-.512-.016l-9.22-13.829c-.171-.264-.357-.528-.528-.807-.062-.093-.171-.171-.124-.279.047-.124.186-.062.295-.062,1.459,0,2.9-.015,4.362,0,.279,0,.357-.062.357-.357a35.976,35.976,0,0,1,28.156-34.643A39.242,39.242,0,0,1,320.348,302.8Z" transform="translate(-278.227 -302.8)" fill="#ffe220"/>
      </g>
      <g id="Group_15" data-name="Group 15" transform="translate(8.754 40.262)">
        <g id="Group_12" data-name="Group 12" transform="translate(0.776 1.164)">
          <g id="Group_11" data-name="Group 11">
            <path id="Path_25" data-name="Path 25" d="M250.617,449.225h-2.732a2.588,2.588,0,0,0-.9-1.661,2.564,2.564,0,0,0-.838-.45,3.085,3.085,0,0,0-1.024-.155,3,3,0,0,0-1.723.5,3.223,3.223,0,0,0-1.149,1.428,6.652,6.652,0,0,0,0,4.563,3.177,3.177,0,0,0,1.149,1.412,3.139,3.139,0,0,0,1.707.481,3.524,3.524,0,0,0,1.009-.14,2.425,2.425,0,0,0,.823-.419,2.138,2.138,0,0,0,.605-.683,2.8,2.8,0,0,0,.341-.916l2.732.016a5.128,5.128,0,0,1-3.353,4.16,6.134,6.134,0,0,1-2.2.372,6.05,6.05,0,0,1-3.058-.776,5.478,5.478,0,0,1-2.126-2.235,7.563,7.563,0,0,1-.776-3.554,7.379,7.379,0,0,1,.792-3.554,5.513,5.513,0,0,1,2.142-2.235,6.033,6.033,0,0,1,3.042-.776,6.77,6.77,0,0,1,2.064.31,5.1,5.1,0,0,1,1.692.916,4.748,4.748,0,0,1,1.2,1.459A5.18,5.18,0,0,1,250.617,449.225Z" transform="translate(-239.1 -444.6)" fill="#001384"/>
            <path id="Path_26" data-name="Path 26" d="M327.1,458.289V445.5h2.7v10.554h5.479v2.235Z" transform="translate(-313.441 -445.36)" fill="#001384"/>
            <path id="Path_27" data-name="Path 27" d="M392.7,458.289V445.5h8.614v2.235H395.4v3.042h5.463v2.235H395.4v3.058h5.945v2.235H392.7Z" transform="translate(-368.859 -445.36)" fill="#001384"/>
            <path id="Path_28" data-name="Path 28" d="M461.8,458.289h-2.9l4.408-12.789H466.8l4.408,12.789h-2.9l-3.2-9.872h-.093Zm-.186-5.029h6.845v2.111h-6.845Z" transform="translate(-424.784 -445.36)" fill="#001384"/>
            <path id="Path_29" data-name="Path 29" d="M560.094,445.5v12.789h-2.328l-5.572-8.056H552.1v8.056h-2.7V445.5h2.375l5.526,8.04h.109V445.5Z" transform="translate(-501.238 -445.36)" fill="#001384"/>
            <path id="Path_30" data-name="Path 30" d="M658.7,458.289h-2.9l4.408-12.789H663.7l4.408,12.789h-2.9l-3.2-9.872h-.093Zm-.186-5.029h6.845v2.111h-6.845Z" transform="translate(-591.123 -445.36)" fill="#001384"/>
            <path id="Path_31" data-name="Path 31" d="M749,445.5v12.789h-2.7V445.5Z" transform="translate(-667.576 -445.36)" fill="#001384"/>
            <path id="Path_32" data-name="Path 32" d="M779.4,458.289V445.5h5.044a5.583,5.583,0,0,1,2.483.512,3.572,3.572,0,0,1,1.568,1.459,4.377,4.377,0,0,1,.543,2.2,4.237,4.237,0,0,1-.543,2.188,3.659,3.659,0,0,1-1.583,1.4,5.911,5.911,0,0,1-2.515.481h-3.384v-2.173h2.949a3.433,3.433,0,0,0,1.288-.217,1.551,1.551,0,0,0,.76-.636,2.007,2.007,0,0,0,.248-1.056,2.1,2.1,0,0,0-.248-1.071,1.607,1.607,0,0,0-.76-.667,3.135,3.135,0,0,0-1.288-.233h-1.832v10.585H779.4Zm6.907-5.82,3.182,5.82h-2.98l-3.1-5.82Z" transform="translate(-695.539 -445.36)" fill="#001384"/>
          </g>
        </g>
        <g id="Group_13" data-name="Group 13">
          <path id="Path_33" data-name="Path 33" d="M245.617,441.725h-2.732a2.588,2.588,0,0,0-.9-1.661,2.561,2.561,0,0,0-.838-.45,3.086,3.086,0,0,0-1.024-.155,3,3,0,0,0-1.723.5,3.223,3.223,0,0,0-1.149,1.428,6.651,6.651,0,0,0,0,4.563,3.177,3.177,0,0,0,1.149,1.412,3.138,3.138,0,0,0,1.707.481,3.521,3.521,0,0,0,1.009-.14,2.424,2.424,0,0,0,.823-.419,2.136,2.136,0,0,0,.605-.683,2.8,2.8,0,0,0,.341-.916l2.732.016a5.127,5.127,0,0,1-3.353,4.16,6.132,6.132,0,0,1-2.2.373,6.051,6.051,0,0,1-3.058-.776,5.478,5.478,0,0,1-2.126-2.235,7.563,7.563,0,0,1-.776-3.554,7.379,7.379,0,0,1,.792-3.554,5.514,5.514,0,0,1,2.142-2.235,6.033,6.033,0,0,1,3.042-.776,6.77,6.77,0,0,1,2.064.31,5.1,5.1,0,0,1,1.692.916,4.745,4.745,0,0,1,1.2,1.459A5.18,5.18,0,0,1,245.617,441.725Z" transform="translate(-234.1 -437.1)" fill="#06659f"/>
          <path id="Path_34" data-name="Path 34" d="M322.1,450.79V438h2.7v10.554h5.479v2.235Z" transform="translate(-308.441 -437.86)" fill="#06659f"/>
          <path id="Path_35" data-name="Path 35" d="M387.7,450.79V438h8.614v2.235H390.4v3.042h5.464v2.235H390.4v3.058h5.945v2.235H387.7Z" transform="translate(-363.859 -437.86)" fill="#06659f"/>
          <path id="Path_36" data-name="Path 36" d="M456.8,450.79h-2.9L458.308,438H461.8l4.408,12.789h-2.9l-3.2-9.871h-.093Zm-.186-5.029h6.845v2.111h-6.845Z" transform="translate(-419.784 -437.86)" fill="#06659f"/>
          <path id="Path_37" data-name="Path 37" d="M555.11,438v12.79h-2.344l-5.572-8.056H547.1v8.056h-2.7V438h2.375l5.526,8.04h.109V438Z" transform="translate(-496.237 -437.86)" fill="#06659f"/>
          <path id="Path_38" data-name="Path 38" d="M653.7,450.79h-2.9L655.208,438H658.7l4.408,12.789h-2.9l-3.2-9.871h-.093Zm-.186-5.029h6.845v2.111h-6.845Z" transform="translate(-586.123 -437.86)" fill="#06659f"/>
          <path id="Path_39" data-name="Path 39" d="M744,438v12.79h-2.7V438Z" transform="translate(-662.576 -437.86)" fill="#06659f"/>
          <path id="Path_40" data-name="Path 40" d="M774.4,450.79V438h5.044a5.583,5.583,0,0,1,2.483.512,3.573,3.573,0,0,1,1.568,1.459,4.377,4.377,0,0,1,.543,2.2,4.238,4.238,0,0,1-.543,2.189,3.659,3.659,0,0,1-1.583,1.4,5.911,5.911,0,0,1-2.515.481h-3.383v-2.173h2.949a3.433,3.433,0,0,0,1.288-.217,1.553,1.553,0,0,0,.76-.636,2.007,2.007,0,0,0,.248-1.055,2.1,2.1,0,0,0-.248-1.071,1.609,1.609,0,0,0-.76-.667,3.136,3.136,0,0,0-1.288-.233h-1.832v10.586H774.4Zm6.907-5.82,3.182,5.82h-2.98l-3.1-5.82Z" transform="translate(-690.539 -437.86)" fill="#06659f"/>
        </g>
        <g id="Group_14" data-name="Group 14" transform="translate(6.069 18.532)">
          <path id="Path_41" data-name="Path 41" d="M273.2,558.548V557.4h6.038v1.149h-2.344v6.426h-1.366v-6.426Z" transform="translate(-273.2 -557.26)" fill="#001384"/>
          <path id="Path_42" data-name="Path 42" d="M320.4,564.974V557.4h4.92v1.149h-3.554V560.6h3.306v1.148h-3.306v2.064h3.586v1.149H320.4Z" transform="translate(-313.074 -557.26)" fill="#001384"/>
          <path id="Path_43" data-name="Path 43" d="M367.359,559.285h-1.381a1.746,1.746,0,0,0-.217-.605,1.805,1.805,0,0,0-.388-.45,1.639,1.639,0,0,0-.543-.279,2.206,2.206,0,0,0-.652-.093,2.031,2.031,0,0,0-1.1.31,1.953,1.953,0,0,0-.745.9,4.013,4.013,0,0,0,.015,2.9,2.16,2.16,0,0,0,.745.9,1.968,1.968,0,0,0,1.087.295,2.1,2.1,0,0,0,.636-.093,2.205,2.205,0,0,0,.543-.264,1.352,1.352,0,0,0,.4-.435,1.8,1.8,0,0,0,.233-.59h1.381a2.878,2.878,0,0,1-.341,1.009,2.951,2.951,0,0,1-1.63,1.4,3.721,3.721,0,0,1-3.011-.264,3.332,3.332,0,0,1-1.242-1.335,5.1,5.1,0,0,1,0-4.191,3.332,3.332,0,0,1,1.242-1.335,3.424,3.424,0,0,1,1.769-.466,4.165,4.165,0,0,1,1.18.171,3.36,3.36,0,0,1,.962.512,3.05,3.05,0,0,1,.7.838A3.282,3.282,0,0,1,367.359,559.285Z" transform="translate(-347.119 -556.585)" fill="#001384"/>
          <path id="Path_44" data-name="Path 44" d="M412.5,564.974V557.4h1.366v3.213h3.523V557.4h1.381v7.574h-1.381v-3.213h-3.508v3.213Z" transform="translate(-390.879 -557.26)" fill="#001384"/>
          <path id="Path_45" data-name="Path 45" d="M469.424,557.4v7.574H468.2l-3.57-5.153h-.062v5.153H463.2V557.4h1.226l3.57,5.169h.062V557.4Z" transform="translate(-433.71 -557.26)" fill="#001384"/>
          <path id="Path_46" data-name="Path 46" d="M519.453,560.6a4.543,4.543,0,0,1-.45,2.1,3.333,3.333,0,0,1-1.242,1.335,3.654,3.654,0,0,1-3.57,0,3.332,3.332,0,0,1-1.242-1.335,4.355,4.355,0,0,1-.45-2.1,4.543,4.543,0,0,1,.45-2.1,3.332,3.332,0,0,1,1.242-1.335,3.654,3.654,0,0,1,3.57,0A3.235,3.235,0,0,1,519,558.5,4.634,4.634,0,0,1,519.453,560.6Zm-1.382,0a3.714,3.714,0,0,0-.264-1.459,2.05,2.05,0,0,0-.745-.9,2.015,2.015,0,0,0-1.087-.311,1.939,1.939,0,0,0-1.086.311,2.066,2.066,0,0,0-.745.9,3.455,3.455,0,0,0-.264,1.459,3.713,3.713,0,0,0,.264,1.459,2.052,2.052,0,0,0,.745.9,1.979,1.979,0,0,0,1.086.31,1.942,1.942,0,0,0,1.087-.31,2.068,2.068,0,0,0,.745-.9A3.712,3.712,0,0,0,518.072,560.6Z" transform="translate(-475.357 -556.669)" fill="#001384"/>
          <path id="Path_47" data-name="Path 47" d="M566.4,564.974V557.4h1.366v6.426H571.1v1.149Z" transform="translate(-520.892 -557.26)" fill="#001384"/>
          <path id="Path_48" data-name="Path 48" d="M608.953,560.6a4.542,4.542,0,0,1-.45,2.1,3.331,3.331,0,0,1-1.242,1.335,3.653,3.653,0,0,1-3.57,0,3.331,3.331,0,0,1-1.242-1.335,4.357,4.357,0,0,1-.45-2.1,4.543,4.543,0,0,1,.45-2.1,3.331,3.331,0,0,1,1.242-1.335,3.653,3.653,0,0,1,3.57,0A3.234,3.234,0,0,1,608.5,558.5,4.438,4.438,0,0,1,608.953,560.6Zm-1.366,0a3.716,3.716,0,0,0-.264-1.459,1.878,1.878,0,0,0-.745-.9,2.056,2.056,0,0,0-2.173,0,2.066,2.066,0,0,0-.745.9,3.408,3.408,0,0,0-.264,1.459,3.713,3.713,0,0,0,.264,1.459,2.052,2.052,0,0,0,.745.9,2.057,2.057,0,0,0,2.173,0,2.068,2.068,0,0,0,.745-.9A3.715,3.715,0,0,0,607.588,560.6Z" transform="translate(-550.966 -556.669)" fill="#001384"/>
          <path id="Path_49" data-name="Path 49" d="M660.146,559.23a2.162,2.162,0,0,0-.248-.543,1.6,1.6,0,0,0-.388-.4,1.85,1.85,0,0,0-1.133-.357,1.977,1.977,0,0,0-1.086.311,2.049,2.049,0,0,0-.745.9,3.372,3.372,0,0,0-.279,1.443,3.712,3.712,0,0,0,.264,1.459,1.943,1.943,0,0,0,1.863,1.211,2.182,2.182,0,0,0,.993-.217,1.608,1.608,0,0,0,.652-.636,1.921,1.921,0,0,0,.233-.962l.31.047h-2.049V560.41h3.073v.916a3.2,3.2,0,0,1-.419,1.676,2.827,2.827,0,0,1-1.133,1.087,3.591,3.591,0,0,1-1.661.388,3.532,3.532,0,0,1-1.832-.466,3.2,3.2,0,0,1-1.226-1.335,4.5,4.5,0,0,1-.435-2.064,4.94,4.94,0,0,1,.264-1.645,3.575,3.575,0,0,1,.729-1.226,3.231,3.231,0,0,1,1.1-.776,3.785,3.785,0,0,1,2.561-.078,3.172,3.172,0,0,1,.962.512,3.088,3.088,0,0,1,.7.792,2.772,2.772,0,0,1,.357,1.024h-1.428Z" transform="translate(-595.656 -556.669)" fill="#001384"/>
          <path id="Path_50" data-name="Path 50" d="M708.766,557.4v7.574H707.4V557.4Z" transform="translate(-640.007 -557.26)" fill="#001384"/>
          <path id="Path_51" data-name="Path 51" d="M726.6,564.974V557.4h4.92v1.149h-3.554V560.6h3.306v1.148h-3.306v2.064h3.585v1.149H726.6Z" transform="translate(-656.227 -557.26)" fill="#001384"/>
          <path id="Path_52" data-name="Path 52" d="M770.777,558.719a1.04,1.04,0,0,0-.435-.76,1.634,1.634,0,0,0-.993-.264,2.046,2.046,0,0,0-.729.124,1.1,1.1,0,0,0-.466.357.847.847,0,0,0-.171.512.684.684,0,0,0,.109.4,1.064,1.064,0,0,0,.295.295,2.622,2.622,0,0,0,.419.2l.466.14.714.171a5.078,5.078,0,0,1,.823.264,3.03,3.03,0,0,1,.714.435,1.91,1.91,0,0,1,.5.621,1.868,1.868,0,0,1,.186.854,1.944,1.944,0,0,1-.341,1.164,2.261,2.261,0,0,1-.978.792,4.41,4.41,0,0,1-3.089,0,2.177,2.177,0,0,1-1.4-2.064h1.35a1.113,1.113,0,0,0,.248.652,1.213,1.213,0,0,0,.559.388,2.391,2.391,0,0,0,.776.124,2.117,2.117,0,0,0,.792-.14,1.243,1.243,0,0,0,.528-.372,1.024,1.024,0,0,0,.2-.574.769.769,0,0,0-.171-.5,1.251,1.251,0,0,0-.481-.326,3.506,3.506,0,0,0-.714-.233l-.869-.217a3.373,3.373,0,0,1-1.474-.729,1.686,1.686,0,0,1-.543-1.3,2.038,2.038,0,0,1,.357-1.18,2.277,2.277,0,0,1,.993-.776,3.5,3.5,0,0,1,1.428-.279,3.325,3.325,0,0,1,1.413.279,2.4,2.4,0,0,1,.962.776,1.928,1.928,0,0,1,.357,1.133h-1.335Z" transform="translate(-689.849 -556.5)" fill="#001384"/>
        </g>
      </g>
    </g>
  </g>
</svg>
