<svg xmlns="http://www.w3.org/2000/svg" width="121.528" height="91.934" viewBox="0 0 121.528 91.934">
  <g id="Group_2906" data-name="Group 2906" transform="translate(-1586.169 -8979.608)">
    <g id="Group_10" data-name="Group 10" transform="translate(1594.957 8979.608)">
      <path id="Path_23" data-name="Path 23" d="M429.342,454.494c4.4-6.591,8.742-13.1,13.142-19.694,4.4,6.591,8.742,13.1,13.143,19.694h-.936c-1.732,0-3.465.02-5.177,0-.358,0-.438.1-.458.458a45.191,45.191,0,0,1-7.866,25.21,45.734,45.734,0,0,1-19.714,16.448,43.7,43.7,0,0,1-13.76,3.624A45.424,45.424,0,0,1,373.207,489.4a47.921,47.921,0,0,1-4.441-4.321.52.52,0,0,1-.08-.757q3.614-5.347,7.169-10.753c.3-.458.418-.139.577.08a32.723,32.723,0,0,0,29.81,13.5A32.946,32.946,0,0,0,434.5,463.972a35.206,35.206,0,0,0,1.414-8.981c.02-.378-.08-.518-.5-.518C433.444,454.514,431.453,454.494,429.342,454.494Z" transform="translate(-350.572 -408.515)" fill="#fd7c51"/>
      <path id="Path_24" data-name="Path 24" d="M332.265,302.8a44.84,44.84,0,0,1,27.978,10.813c1.732,1.454,3.286,3.086,4.859,4.7.239.239.06.4-.06.577-.637,1-1.294,1.971-1.951,2.947-1.712,2.569-3.405,5.118-5.118,7.666-.339.518-.358.518-.717.02a33.2,33.2,0,0,0-9.379-8.722,31.252,31.252,0,0,0-13.182-4.64,33.008,33.008,0,0,0-35.982,24.891,32.872,32.872,0,0,0-.916,7.268c0,.358.1.458.458.458,1.872-.02,3.724,0,5.6,0,.139,0,.3-.06.378.06.1.159-.08.279-.159.4q-6.213,9.289-12.406,18.6a.81.81,0,0,0-.1.179c-.338.478-.338.478-.657-.02l-11.828-17.742c-.219-.339-.458-.677-.677-1.035-.08-.119-.219-.219-.159-.358.06-.159.239-.08.378-.08,1.872,0,3.724-.02,5.6,0,.358,0,.458-.08.458-.458A46.155,46.155,0,0,1,320.8,303.875,50.345,50.345,0,0,1,332.265,302.8Z" transform="translate(-278.227 -302.8)" fill="#ffe220"/>
    </g>
    <g id="Group_15" data-name="Group 15" transform="translate(1586.169 9006.351)">
      <g id="Group_12" data-name="Group 12" transform="translate(0.996 1.493)">
        <g id="Group_11" data-name="Group 11">
          <path id="Path_25" data-name="Path 25" d="M253.875,450.534h-3.5a3.32,3.32,0,0,0-1.155-2.131,3.289,3.289,0,0,0-1.075-.577,3.957,3.957,0,0,0-1.314-.2,3.851,3.851,0,0,0-2.21.637,4.135,4.135,0,0,0-1.473,1.832,8.534,8.534,0,0,0,0,5.854,4.076,4.076,0,0,0,1.473,1.812,4.027,4.027,0,0,0,2.19.617,4.52,4.52,0,0,0,1.294-.179,3.109,3.109,0,0,0,1.055-.538,2.742,2.742,0,0,0,.777-.876,3.594,3.594,0,0,0,.438-1.175l3.5.02a6.579,6.579,0,0,1-4.3,5.337,7.87,7.87,0,0,1-2.828.478,7.762,7.762,0,0,1-3.923-1,7.029,7.029,0,0,1-2.728-2.867,9.7,9.7,0,0,1-1-4.56,9.467,9.467,0,0,1,1.016-4.56,7.074,7.074,0,0,1,2.748-2.867,7.74,7.74,0,0,1,3.9-1,8.684,8.684,0,0,1,2.648.4,6.546,6.546,0,0,1,2.17,1.175,6.09,6.09,0,0,1,1.533,1.872A6.645,6.645,0,0,1,253.875,450.534Z" transform="translate(-239.1 -444.6)" fill="#001384"/>
          <path id="Path_26" data-name="Path 26" d="M327.1,461.908V445.5h3.465v13.541h7.029v2.867Z" transform="translate(-309.577 -445.321)" fill="#001384"/>
          <path id="Path_27" data-name="Path 27" d="M392.7,461.908V445.5h11.052v2.867h-7.587v3.9h7.009v2.867h-7.009v3.923h7.627v2.867H392.7Z" transform="translate(-362.114 -445.321)" fill="#001384"/>
          <path id="Path_28" data-name="Path 28" d="M462.624,461.908H458.9l5.655-16.408h4.48l5.655,16.408h-3.724l-4.1-12.665h-.119Zm-.239-6.452h8.781v2.708h-8.781Z" transform="translate(-415.132 -445.321)" fill="#001384"/>
          <path id="Path_29" data-name="Path 29" d="M563.12,445.5v16.408h-2.987l-7.149-10.335h-.119v10.335H549.4V445.5h3.047l7.089,10.315h.139V445.5Z" transform="translate(-487.611 -445.321)" fill="#001384"/>
          <path id="Path_30" data-name="Path 30" d="M659.524,461.908H655.8l5.655-16.408h4.48l5.655,16.408h-3.724l-4.1-12.665h-.12Zm-.239-6.452h8.782v2.708h-8.782Z" transform="translate(-572.823 -445.321)" fill="#001384"/>
          <path id="Path_31" data-name="Path 31" d="M749.765,445.5v16.408H746.3V445.5Z" transform="translate(-645.302 -445.321)" fill="#001384"/>
          <path id="Path_32" data-name="Path 32" d="M779.4,461.908V445.5h6.472a7.163,7.163,0,0,1,3.186.657,4.583,4.583,0,0,1,2.011,1.872,5.615,5.615,0,0,1,.7,2.828,5.436,5.436,0,0,1-.7,2.808,4.694,4.694,0,0,1-2.031,1.792,7.583,7.583,0,0,1-3.226.617h-4.341v-2.788h3.784a4.4,4.4,0,0,0,1.653-.279,1.99,1.99,0,0,0,.976-.816,2.574,2.574,0,0,0,.319-1.354,2.7,2.7,0,0,0-.319-1.374,2.062,2.062,0,0,0-.976-.856,4.022,4.022,0,0,0-1.653-.3H782.9v13.581h-3.5Zm8.861-7.467,4.082,7.467H788.52l-3.982-7.467Z" transform="translate(-671.811 -445.321)" fill="#001384"/>
        </g>
      </g>
      <g id="Group_13" data-name="Group 13">
        <path id="Path_33" data-name="Path 33" d="M248.875,443.034h-3.5a3.32,3.32,0,0,0-1.155-2.131,3.286,3.286,0,0,0-1.075-.577,3.96,3.96,0,0,0-1.314-.2,3.851,3.851,0,0,0-2.21.637,4.135,4.135,0,0,0-1.474,1.832,8.533,8.533,0,0,0,0,5.854,4.076,4.076,0,0,0,1.474,1.812,4.027,4.027,0,0,0,2.19.617,4.518,4.518,0,0,0,1.294-.179,3.11,3.11,0,0,0,1.055-.538,2.74,2.74,0,0,0,.777-.876,3.6,3.6,0,0,0,.438-1.175l3.5.02a6.578,6.578,0,0,1-4.3,5.337,7.867,7.867,0,0,1-2.828.478,7.762,7.762,0,0,1-3.923-1,7.028,7.028,0,0,1-2.728-2.867,9.7,9.7,0,0,1-1-4.56,9.467,9.467,0,0,1,1.016-4.56,7.073,7.073,0,0,1,2.748-2.867,7.74,7.74,0,0,1,3.9-1,8.686,8.686,0,0,1,2.648.4,6.545,6.545,0,0,1,2.17,1.175,6.088,6.088,0,0,1,1.533,1.872A6.645,6.645,0,0,1,248.875,443.034Z" transform="translate(-234.1 -437.1)" fill="#06659f"/>
        <path id="Path_34" data-name="Path 34" d="M322.1,454.408V438h3.465v13.541h7.029v2.867Z" transform="translate(-304.577 -437.821)" fill="#06659f"/>
        <path id="Path_35" data-name="Path 35" d="M387.7,454.408V438h11.052v2.867h-7.587v3.9h7.009v2.867h-7.009v3.923h7.627v2.867H387.7Z" transform="translate(-357.114 -437.821)" fill="#06659f"/>
        <path id="Path_36" data-name="Path 36" d="M457.624,454.408H453.9L459.555,438h4.48l5.655,16.408h-3.724l-4.1-12.665h-.119Zm-.239-6.452h8.782v2.708h-8.782Z" transform="translate(-410.132 -437.821)" fill="#06659f"/>
        <path id="Path_37" data-name="Path 37" d="M558.14,438v16.408h-3.007l-7.149-10.335h-.12v10.335H544.4V438h3.047l7.089,10.315h.14V438Z" transform="translate(-482.61 -437.821)" fill="#06659f"/>
        <path id="Path_38" data-name="Path 38" d="M654.524,454.408H650.8L656.455,438h4.48l5.655,16.408h-3.723l-4.1-12.665h-.119Zm-.239-6.452h8.782v2.708h-8.782Z" transform="translate(-567.823 -437.821)" fill="#06659f"/>
        <path id="Path_39" data-name="Path 39" d="M744.765,438v16.408H741.3V438Z" transform="translate(-640.302 -437.821)" fill="#06659f"/>
        <path id="Path_40" data-name="Path 40" d="M774.4,454.408V438h6.472a7.163,7.163,0,0,1,3.186.657,4.584,4.584,0,0,1,2.011,1.872,5.615,5.615,0,0,1,.7,2.828,5.437,5.437,0,0,1-.7,2.808,4.694,4.694,0,0,1-2.031,1.792,7.584,7.584,0,0,1-3.226.617h-4.341v-2.788h3.783a4.4,4.4,0,0,0,1.653-.279,1.992,1.992,0,0,0,.976-.816,2.575,2.575,0,0,0,.318-1.354,2.7,2.7,0,0,0-.318-1.374,2.065,2.065,0,0,0-.976-.856,4.023,4.023,0,0,0-1.653-.3H777.9v13.581h-3.5Zm8.861-7.467,4.082,7.467H783.52l-3.983-7.467Z" transform="translate(-666.811 -437.821)" fill="#06659f"/>
      </g>
      <g id="Group_14" data-name="Group 14" transform="translate(7.786 23.776)">
        <path id="Path_41" data-name="Path 41" d="M273.2,558.873V557.4h7.746v1.474h-3.007v8.244h-1.752v-8.244Z" transform="translate(-273.2 -557.221)" fill="#001384"/>
        <path id="Path_42" data-name="Path 42" d="M320.4,567.117V557.4h6.312v1.474h-4.56V561.5h4.241v1.473h-4.241v2.649h4.6V567.1H320.4Z" transform="translate(-311.001 -557.221)" fill="#001384"/>
        <path id="Path_43" data-name="Path 43" d="M369.242,560.045H367.47a2.241,2.241,0,0,0-.279-.777,2.315,2.315,0,0,0-.5-.577,2.1,2.1,0,0,0-.7-.358,2.83,2.83,0,0,0-.836-.12,2.605,2.605,0,0,0-1.414.4,2.506,2.506,0,0,0-.956,1.155,5.148,5.148,0,0,0,.02,3.724,2.772,2.772,0,0,0,.956,1.155,2.524,2.524,0,0,0,1.394.378,2.7,2.7,0,0,0,.816-.119,2.828,2.828,0,0,0,.7-.339,1.735,1.735,0,0,0,.518-.557,2.31,2.31,0,0,0,.3-.757h1.772a3.693,3.693,0,0,1-.438,1.294,3.786,3.786,0,0,1-2.091,1.792A4.773,4.773,0,0,1,362.87,566a4.275,4.275,0,0,1-1.593-1.713,6.546,6.546,0,0,1,0-5.377,4.275,4.275,0,0,1,1.593-1.712,4.392,4.392,0,0,1,2.27-.6,5.343,5.343,0,0,1,1.513.219,4.31,4.31,0,0,1,1.235.657,3.913,3.913,0,0,1,.9,1.075A4.212,4.212,0,0,1,369.242,560.045Z" transform="translate(-343.276 -556.58)" fill="#001384"/>
        <path id="Path_44" data-name="Path 44" d="M412.5,567.117V557.4h1.752v4.122h4.52V557.4h1.772v9.717h-1.772V563h-4.5v4.122Z" transform="translate(-384.761 -557.221)" fill="#001384"/>
        <path id="Path_45" data-name="Path 45" d="M471.185,557.4v9.717h-1.573l-4.58-6.611h-.08v6.611H463.2V557.4h1.573l4.58,6.631h.08V557.4Z" transform="translate(-425.366 -557.221)" fill="#001384"/>
        <path id="Path_46" data-name="Path 46" d="M521.421,561.7a5.828,5.828,0,0,1-.578,2.688,4.276,4.276,0,0,1-1.593,1.713,4.687,4.687,0,0,1-4.58,0,4.274,4.274,0,0,1-1.593-1.713,5.588,5.588,0,0,1-.578-2.688,5.829,5.829,0,0,1,.578-2.688,4.274,4.274,0,0,1,1.593-1.712,4.687,4.687,0,0,1,4.58,0,4.151,4.151,0,0,1,1.593,1.712A5.946,5.946,0,0,1,521.421,561.7Zm-1.772,0a4.765,4.765,0,0,0-.338-1.872,2.63,2.63,0,0,0-.956-1.155,2.585,2.585,0,0,0-1.394-.4,2.488,2.488,0,0,0-1.394.4,2.65,2.65,0,0,0-.956,1.155,4.433,4.433,0,0,0-.339,1.872,4.765,4.765,0,0,0,.339,1.872,2.632,2.632,0,0,0,.956,1.155,2.539,2.539,0,0,0,1.394.4,2.492,2.492,0,0,0,1.394-.4,2.653,2.653,0,0,0,.956-1.155A4.764,4.764,0,0,0,519.649,561.7Z" transform="translate(-464.848 -556.66)" fill="#001384"/>
        <path id="Path_47" data-name="Path 47" d="M566.4,567.117V557.4h1.752v8.244h4.281v1.474Z" transform="translate(-508.016 -557.221)" fill="#001384"/>
        <path id="Path_48" data-name="Path 48" d="M610.921,561.7a5.826,5.826,0,0,1-.578,2.688,4.274,4.274,0,0,1-1.593,1.713,4.687,4.687,0,0,1-4.58,0,4.274,4.274,0,0,1-1.593-1.713A5.59,5.59,0,0,1,602,561.7a5.829,5.829,0,0,1,.577-2.688,4.274,4.274,0,0,1,1.593-1.712,4.687,4.687,0,0,1,4.58,0,4.149,4.149,0,0,1,1.593,1.712A5.693,5.693,0,0,1,610.921,561.7Zm-1.752,0a4.769,4.769,0,0,0-.338-1.872,2.409,2.409,0,0,0-.956-1.155,2.638,2.638,0,0,0-2.788,0,2.651,2.651,0,0,0-.956,1.155,4.374,4.374,0,0,0-.339,1.872,4.765,4.765,0,0,0,.339,1.872,2.632,2.632,0,0,0,.956,1.155,2.639,2.639,0,0,0,2.788,0,2.653,2.653,0,0,0,.956-1.155A4.767,4.767,0,0,0,609.168,561.7Z" transform="translate(-536.527 -556.66)" fill="#001384"/>
        <path id="Path_49" data-name="Path 49" d="M661.631,559.946a2.776,2.776,0,0,0-.319-.7,2.056,2.056,0,0,0-.5-.518,2.373,2.373,0,0,0-1.454-.458,2.537,2.537,0,0,0-1.394.4,2.629,2.629,0,0,0-.956,1.155,4.326,4.326,0,0,0-.358,1.852,4.762,4.762,0,0,0,.339,1.872,2.493,2.493,0,0,0,2.39,1.553,2.8,2.8,0,0,0,1.274-.279,2.063,2.063,0,0,0,.836-.816,2.464,2.464,0,0,0,.3-1.235l.4.06H659.56v-1.374H663.5v1.175a4.105,4.105,0,0,1-.538,2.151,3.627,3.627,0,0,1-1.454,1.394,4.607,4.607,0,0,1-2.131.5,4.531,4.531,0,0,1-2.35-.6,4.1,4.1,0,0,1-1.573-1.712,5.774,5.774,0,0,1-.557-2.648,6.337,6.337,0,0,1,.339-2.111,4.585,4.585,0,0,1,.936-1.573,4.144,4.144,0,0,1,1.414-1,4.856,4.856,0,0,1,3.286-.1,4.07,4.07,0,0,1,1.235.657,3.963,3.963,0,0,1,.9,1.016,3.558,3.558,0,0,1,.458,1.314h-1.832Z" transform="translate(-578.893 -556.66)" fill="#001384"/>
        <path id="Path_50" data-name="Path 50" d="M709.152,557.4v9.717H707.4V557.4Z" transform="translate(-620.938 -557.221)" fill="#001384"/>
        <path id="Path_51" data-name="Path 51" d="M726.6,567.117V557.4h6.312v1.474h-4.56V561.5h4.241v1.473h-4.241v2.649h4.6V567.1H726.6Z" transform="translate(-636.315 -557.221)" fill="#001384"/>
        <path id="Path_52" data-name="Path 52" d="M772.015,559.347a1.334,1.334,0,0,0-.558-.976,2.1,2.1,0,0,0-1.274-.339,2.625,2.625,0,0,0-.936.159,1.412,1.412,0,0,0-.6.458,1.086,1.086,0,0,0-.219.657.877.877,0,0,0,.139.518,1.364,1.364,0,0,0,.378.378,3.359,3.359,0,0,0,.538.259l.6.179.916.219a6.519,6.519,0,0,1,1.055.339,3.892,3.892,0,0,1,.916.557,2.451,2.451,0,0,1,.637.8,2.4,2.4,0,0,1,.239,1.1,2.5,2.5,0,0,1-.438,1.493,2.9,2.9,0,0,1-1.255,1.016,5.656,5.656,0,0,1-3.963,0,2.793,2.793,0,0,1-1.792-2.648h1.733a1.428,1.428,0,0,0,.319.836,1.556,1.556,0,0,0,.717.5,3.069,3.069,0,0,0,1,.159,2.718,2.718,0,0,0,1.016-.179,1.6,1.6,0,0,0,.677-.478,1.314,1.314,0,0,0,.259-.737.987.987,0,0,0-.219-.637,1.6,1.6,0,0,0-.617-.418,4.493,4.493,0,0,0-.916-.3l-1.115-.279a4.326,4.326,0,0,1-1.892-.936,2.162,2.162,0,0,1-.7-1.673,2.614,2.614,0,0,1,.458-1.513,2.921,2.921,0,0,1,1.274-1,4.49,4.49,0,0,1,1.832-.358,4.267,4.267,0,0,1,1.812.358,3.077,3.077,0,0,1,1.234,1,2.474,2.474,0,0,1,.458,1.454h-1.712Z" transform="translate(-668.19 -556.5)" fill="#001384"/>
      </g>
    </g>
  </g>
</svg>
