<svg xmlns="http://www.w3.org/2000/svg" width="62" height="56" viewBox="0 0 62 56">
  <g id="Group_2740" data-name="Group 2740" transform="translate(-444 -1694)">
    <g id="Image_4" data-name="Image 4" transform="translate(450 1700)" fill="#004f92" stroke="#fff" stroke-width="6">
      <rect width="50" height="44" rx="5" stroke="none"/>
      <rect x="-3" y="-3" width="56" height="50" rx="8" fill="none"/>
    </g>
    <path id="arrow-down" d="M22.667,15.321a1.981,1.981,0,0,0-2.8,0l-3.672,3.67.095-11.848a1.981,1.981,0,0,0-1.981-1.981h0a1.981,1.981,0,0,0-1.981,1.981l-.1,11.83L8.581,15.321a1.981,1.981,0,1,0-2.8,2.8L10.955,23.3a4.622,4.622,0,0,0,6.535,0l5.177-5.175A1.981,1.981,0,0,0,22.667,15.321Z" transform="translate(474.518 1742.597) rotate(-135)" fill="#fff" stroke="#004f92" stroke-width="2"/>
  </g>
</svg>
