<svg xmlns="http://www.w3.org/2000/svg" width="30.8" height="31.678" viewBox="0 0 30.8 31.678">
  <g id="dislike_1_" data-name="dislike (1)" transform="translate(-6.625 0)">
    <path id="Path_30635" data-name="Path 30635" d="M36.5,10.141a4.675,4.675,0,0,0,.278-1.325,4.218,4.218,0,0,0-1.5-3.438,4.049,4.049,0,0,0-.45-2.537A5.774,5.774,0,0,0,30.7.277,19.188,19.188,0,0,0,25.4.091a66.7,66.7,0,0,0-8.831.484L15.012.76a2.75,2.75,0,0,0-1.59-.5H9.381A2.758,2.758,0,0,0,6.625,3.013V13.778a2.758,2.758,0,0,0,2.756,2.756h4.041a2.734,2.734,0,0,0,1.312-.331,7.117,7.117,0,0,0,1.3,1.948.709.709,0,0,0,.106.093c2.08,1.6,4.531,7.347,5.4,9.692a4.527,4.527,0,0,0,.556,3.16,1.654,1.654,0,0,0,1.279.583,4.219,4.219,0,0,0,3.372-1.636c1.04-1.444,1.1-3.6.172-6.426a11.557,11.557,0,0,1-.828-3.849c.358.079.709.152,1.047.212h.007A20.79,20.79,0,0,0,30.4,20.4c2.478.119,4.273-.311,5.32-1.272a3.532,3.532,0,0,0,.841-4.074,4.041,4.041,0,0,0,.861-2.279A4.025,4.025,0,0,0,36.5,10.141ZM13.422,14.752H9.381a.968.968,0,0,1-.967-.967V3.019a.968.968,0,0,1,.967-.967h4.041a.968.968,0,0,1,.967.967V13.785A.964.964,0,0,1,13.422,14.752Zm21.312.643a2.654,2.654,0,0,1,.311.868,1.619,1.619,0,0,1-.537,1.55c-1.265,1.153-4.909.888-6.943.437-.026-.007-.053-.013-.086-.02-.364-.066-.755-.146-1.153-.232a1.444,1.444,0,0,0-1.444.258c-.881.782-.782,2.557.325,5.929.729,2.213.755,3.882.079,4.816a2.369,2.369,0,0,1-1.868.894,4.036,4.036,0,0,1-.086-1.921,1.016,1.016,0,0,0-.04-.444c-.126-.338-3.034-8.3-6.009-10.659A5.62,5.62,0,0,1,16.052,14.6a2.8,2.8,0,0,0,.126-.821V3.019a2.807,2.807,0,0,0-.06-.583l.669-.079h.007a65.289,65.289,0,0,1,8.612-.47H25.5a17.44,17.44,0,0,1,4.829.146A4.168,4.168,0,0,1,33.243,3.7a2.312,2.312,0,0,1,.192,1.736.874.874,0,0,0,.3,1.014,2.534,2.534,0,0,1,.941,3.4.873.873,0,0,0,.119,1.08,2.5,2.5,0,0,1,.828,1.775,2.462,2.462,0,0,1-.742,1.557A.873.873,0,0,0,34.734,15.395Z" transform="translate(0)" fill="#e3b505"/>
  </g>
</svg>
