<svg xmlns="http://www.w3.org/2000/svg" width="113.449" height="16.757" viewBox="0 0 113.449 16.757">
  <g id="Group_2726" data-name="Group 2726" transform="translate(-217.475 -412.128)">
    <path id="Path_30619" data-name="Path 30619" d="M569.087,565l1.9,5.855h6.156l-4.981,3.619,1.9,5.855-4.981-3.619-4.981,3.619,1.9-5.855-4.981-3.619h6.156Z" transform="translate(-343.553 -152.872)" fill="#fbbc05"/>
    <path id="Path_30620" data-name="Path 30620" d="M569.087,565l1.9,5.855h6.156l-4.981,3.619,1.9,5.855-4.981-3.619-4.981,3.619,1.9-5.855-4.981-3.619h6.156Z" transform="translate(-326.048 -152.872)" fill="#fbbc05"/>
    <path id="Path_30621" data-name="Path 30621" d="M569.087,565l1.9,5.855h6.156l-4.981,3.619,1.9,5.855-4.981-3.619-4.981,3.619,1.9-5.855-4.981-3.619h6.156Z" transform="translate(-308.543 -152.872)" fill="#fbbc05"/>
    <path id="Path_30622" data-name="Path 30622" d="M569.087,565l1.9,5.855h6.156l-4.981,3.619,1.9,5.855-4.981-3.619-4.981,3.619,1.9-5.855-4.981-3.619h6.156Z" transform="translate(-291.039 -152.872)" fill="#fbbc05"/>
    <path id="Path_30623" data-name="Path 30623" d="M569.087,565l1.9,5.855h6.156l-4.981,3.619,1.9,5.855-4.981-3.619-4.981,3.619,1.9-5.855-4.981-3.619h6.156Z" transform="translate(-273.534 -152.872)" fill="#fbbc05"/>
    <g id="Group_1933" data-name="Group 1933" transform="translate(314.689 412.319)">
      <path id="Path_29827" data-name="Path 29827" d="M178.452,201.277a9.52,9.52,0,0,0-.151-1.694h-7.8v3.208h4.458a3.819,3.819,0,0,1-1.664,2.492v2.086h2.688A8.093,8.093,0,0,0,178.452,201.277Z" transform="translate(-162.217 -192.806)" fill="#4285f4"/>
      <path id="Path_29828" data-name="Path 29828" d="M126.749,227.64a7.906,7.906,0,0,0,5.482-2l-2.688-2.086a4.98,4.98,0,0,1-7.432-2.613h-2.756v2.139A8.276,8.276,0,0,0,126.749,227.64Z" transform="translate(-118.465 -211.073)" fill="#34a853"/>
      <path id="Path_29829" data-name="Path 29829" d="M116.853,189.609a4.83,4.83,0,0,1,0-3.148v-2.139H114.1a8.2,8.2,0,0,0,0,7.425l2.146-1.672Z" transform="translate(-113.208 -179.752)" fill="#fbbc05"/>
      <path id="Path_29830" data-name="Path 29830" d="M126.749,156.006a4.52,4.52,0,0,1,3.17,1.235l2.372-2.372a7.947,7.947,0,0,0-5.542-2.161,8.269,8.269,0,0,0-7.395,4.571l2.756,2.139A4.945,4.945,0,0,1,126.749,156.006Z" transform="translate(-118.465 -152.708)" fill="#ea4335"/>
    </g>
  </g>
</svg>
