<svg xmlns="http://www.w3.org/2000/svg" width="28.19" height="18.5" viewBox="0 0 28.19 18.5">
  <path id="menu_3_" data-name="menu (3)" d="M10.463,21.079A1.739,1.739,0,0,1,12.2,19.34H25.48a1.739,1.739,0,0,1,0,3.478H12.2A1.739,1.739,0,0,1,10.463,21.079ZM.156,7.058A1.739,1.739,0,0,1,1.9,5.319H25.607a1.739,1.739,0,1,1,0,3.478H1.9A1.739,1.739,0,0,1,.156,7.058Zm0,7.376A1.739,1.739,0,0,1,1.9,12.695H25.607a1.739,1.739,0,1,1,0,3.478H1.9A1.739,1.739,0,0,1,.156,14.434Z" transform="translate(0.344 -4.819)" fill="#004f92" stroke="#fff" stroke-width="1" fill-rule="evenodd"/>
</svg>
