<svg xmlns="http://www.w3.org/2000/svg" width="30.003" height="31.678" viewBox="0 0 30.003 31.678">
  <g id="_12" data-name="12" transform="translate(-13.53 0.002)">
    <path id="_12-2" data-name="12-2" d="M26.181,149.988H19.791a3.774,3.774,0,0,1-3.762-3.749v-12.7a2.346,2.346,0,0,1,.847-1.791L18,130.91a1.25,1.25,0,0,0-1.444-1.985l-1.153.861a4.83,4.83,0,0,0-1.874,3.749v12.718a6.275,6.275,0,0,0,6.261,6.262h6.389a1.25,1.25,0,1,0,0-2.5Z" transform="translate(0 -120.838)" fill="#e3b505"/>
    <path id="_12-1" data-name="12-1" d="M161.792,12.668a4.873,4.873,0,0,0-1.818-3.749l-9.595-7.65a5.762,5.762,0,0,0-7.22,0l-3.04,2.208A1.273,1.273,0,0,0,141.6,5.546l3.083-2.3a3.279,3.279,0,0,1,4.165,0l9.594,7.65a2.344,2.344,0,0,1,.888,1.8V25.414a3.749,3.749,0,0,1-3.749,3.749H152.74a.528.528,0,0,1-.528-.528V22.9a3.318,3.318,0,0,0-3.3-3.318h-4.165a3.318,3.318,0,0,0-3.318,3.319v2.193a1.25,1.25,0,1,0,2.5,0V22.9a.8.8,0,0,1,.8-.819h4.166a.8.8,0,0,1,.8.8v5.748a3.041,3.041,0,0,0,3.041,3.027h2.775a6.262,6.262,0,0,0,6.264-6.261Z" transform="translate(-118.259)" fill="#e3b505"/>
  </g>
</svg>
